<svg xmlns="http://www.w3.org/2000/svg" width="901" height="443.729" viewBox="0 0 901 443.729">
  <g id="Grupo_1084155" data-name="Grupo 1084155" transform="translate(-349 -1448)">
    <text id="Protocolos" transform="translate(796 1693)" fill="#12263f" font-size="20" font-family="Roboto-Regular, Roboto"><tspan x="-48.394" y="0">Protocolos</tspan></text>
    <rect id="Rectángulo_361733" data-name="Rectángulo 361733" width="230" height="70" rx="18" transform="translate(407 1789)" fill="#fdb70a"/>
    <rect id="Rectángulo_361734" data-name="Rectángulo 361734" width="230" height="70" rx="18" transform="translate(349 1627)" fill="#fdb70a"/>
    <g id="Grupo_1083515" data-name="Grupo 1083515" transform="translate(622.397 1512.141)">
      <ellipse id="Elipse_4903" data-name="Elipse 4903" cx="176.32" cy="180.83" rx="176.32" ry="180.83" transform="translate(0 0)" fill="#ffa686"/>
      <path id="Trazado_124360" data-name="Trazado 124360" d="M168.2,0c92.9,0,168.2,75.711,168.2,169.1a168.746,168.746,0,0,1-168.2,169.1C75.307,338.21,0,262.5,0,169.1S75.307,0,168.2,0Z" transform="translate(8.117 11.725)" fill="#fff"/>
    </g>
    <g id="Grupo_1084128" data-name="Grupo 1084128" transform="translate(664.786 1553.993)">
      <ellipse id="Elipse_4903-2" data-name="Elipse 4903" cx="133.931" cy="137.356" rx="133.931" ry="137.356" transform="translate(0 0)" fill="#fdb70a"/>
    </g>
    <g id="Grupo_1083527" data-name="Grupo 1083527" transform="translate(873.785 1808.47)">
      <g id="Grupo_1083526" data-name="Grupo 1083526" transform="translate(0 0)">
        <g id="Grupo_1083523" data-name="Grupo 1083523" transform="translate(0 0)">
          <g id="Grupo_1083522" data-name="Grupo 1083522" transform="translate(0 0)">
            <g id="Grupo_1083521" data-name="Grupo 1083521" transform="translate(0 0)">
              <circle id="Elipse_4731" data-name="Elipse 4731" cx="27.545" cy="27.545" r="27.545" fill="#fdb70a"/>
            </g>
          </g>
        </g>
      </g>
    </g>
    <g id="Grupo_1083540" data-name="Grupo 1083540" transform="translate(947.064 1628.309)">
      <g id="Grupo_1083539" data-name="Grupo 1083539" transform="translate(0 0)">
        <g id="Grupo_1083535" data-name="Grupo 1083535" transform="translate(0 0)">
          <g id="Grupo_1083534" data-name="Grupo 1083534" transform="translate(0 0)">
            <g id="Grupo_1083533" data-name="Grupo 1083533" transform="translate(0 0)">
              <path id="Trazado_124261" data-name="Trazado 124261" d="M27.545,0A27.545,27.545,0,1,1,0,27.545,27.545,27.545,0,0,1,27.545,0Z" fill="#ffb90b"/>
            </g>
          </g>
        </g>
      </g>
    </g>
    <g id="Grupo_1083553" data-name="Grupo 1083553" transform="translate(773.736 1486)">
      <g id="Grupo_1083552" data-name="Grupo 1083552" transform="translate(0 0)">
        <g id="Grupo_1083548" data-name="Grupo 1083548" transform="translate(0 0)">
          <g id="Grupo_1083547" data-name="Grupo 1083547" transform="translate(0 0)">
            <g id="Grupo_1083546" data-name="Grupo 1083546" transform="translate(0 0)">
              <circle id="Elipse_4735" data-name="Elipse 4735" cx="27.545" cy="27.545" r="27.545" transform="matrix(0.026, -1, 1, 0.026, 0, 55.067)" fill="#fdb70a"/>
            </g>
          </g>
        </g>
      </g>
    </g>
    <g id="Grupo_1083566" data-name="Grupo 1083566" transform="translate(601.311 1635.32)">
      <g id="Grupo_1083565" data-name="Grupo 1083565" transform="translate(0 0)">
        <g id="Grupo_1083561" data-name="Grupo 1083561" transform="translate(0 0)">
          <g id="Grupo_1083560" data-name="Grupo 1083560" transform="translate(0 0)">
            <g id="Grupo_1083559" data-name="Grupo 1083559" transform="translate(0 0)">
              <circle id="Elipse_4737" data-name="Elipse 4737" cx="27.545" cy="27.545" r="27.545" fill="#fdb70a"/>
            </g>
          </g>
        </g>
      </g>
    </g>
    <g id="Grupo_1083584" data-name="Grupo 1083584" transform="translate(433 1474)">
      <g id="Grupo_1083583" data-name="Grupo 1083583" transform="translate(222.158 316.488)">
        <g id="Grupo_1083579" data-name="Grupo 1083579" transform="translate(0 0)">
          <g id="Grupo_1083578" data-name="Grupo 1083578" transform="translate(0 0)">
            <g id="Grupo_1083577" data-name="Grupo 1083577" transform="translate(0)">
              <circle id="Elipse_4739" data-name="Elipse 4739" cx="27.545" cy="27.545" r="27.545" transform="matrix(0.026, -1, 1, 0.026, 0, 55.067)" fill="#edab0a"/>
            </g>
          </g>
        </g>
        <g id="Grupo_1083582" data-name="Grupo 1083582" transform="translate(9.249 9.323)">
          <g id="Grupo_1083581" data-name="Grupo 1083581" transform="translate(0 0)">
            <g id="Grupo_1083580" data-name="Grupo 1083580">
              <path id="Trazado_124259" data-name="Trazado 124259" d="M457.215,77.424l-2.661-.447a15.063,15.063,0,0,0-1.072-2.582l1.569-2.194a2.338,2.338,0,0,0-.248-3.019l-2.353-2.353a2.32,2.32,0,0,0-1.658-.685,2.284,2.284,0,0,0-1.35.437l-2.194,1.569a15.279,15.279,0,0,0-2.671-1.1l-.447-2.631a2.337,2.337,0,0,0-2.314-1.956h-3.326a2.337,2.337,0,0,0-2.314,1.956l-.457,2.691a15.337,15.337,0,0,0-2.572,1.082l-2.175-1.569a2.314,2.314,0,0,0-1.36-.437,2.344,2.344,0,0,0-1.658.685l-2.363,2.353a2.349,2.349,0,0,0-.248,3.019l1.579,2.224a14.321,14.321,0,0,0-1.053,2.592l-2.631.447a2.337,2.337,0,0,0-1.956,2.314v3.326a2.337,2.337,0,0,0,1.956,2.314l2.691.457a15.336,15.336,0,0,0,1.082,2.572l-1.559,2.165a2.338,2.338,0,0,0,.248,3.019l2.353,2.353a2.32,2.32,0,0,0,1.658.685,2.284,2.284,0,0,0,1.35-.437l2.224-1.579a15.786,15.786,0,0,0,2.5,1.033l.447,2.661a2.337,2.337,0,0,0,2.314,1.956h3.336a2.337,2.337,0,0,0,2.314-1.956l.447-2.661a15.058,15.058,0,0,0,2.582-1.072l2.194,1.569a2.314,2.314,0,0,0,1.36.437,2.362,2.362,0,0,0,1.658-.685l2.353-2.353a2.349,2.349,0,0,0,.248-3.019l-1.569-2.2a15.394,15.394,0,0,0,1.072-2.582l2.661-.447a2.337,2.337,0,0,0,1.956-2.314V79.728a2.317,2.317,0,0,0-1.946-2.3Zm-.179,5.64a.213.213,0,0,1-.169.209l-3.326.556a1.054,1.054,0,0,0-.854.784,12.413,12.413,0,0,1-1.38,3.316,1.053,1.053,0,0,0,.05,1.162l1.956,2.751a.21.21,0,0,1-.02.268l-2.353,2.353a.182.182,0,0,1-.149.06.213.213,0,0,1-.119-.04l-2.741-1.956a1.071,1.071,0,0,0-1.162-.05,12.949,12.949,0,0,1-3.316,1.38,1.053,1.053,0,0,0-.784.854l-.566,3.326a.213.213,0,0,1-.209.179h-3.326a.212.212,0,0,1-.209-.179l-.556-3.326a1.054,1.054,0,0,0-.784-.854,13,13,0,0,1-3.247-1.331,1.055,1.055,0,0,0-.536-.139.992.992,0,0,0-.616.2l-2.77,1.966a.282.282,0,0,1-.119.04.223.223,0,0,1-.149-.06l-2.353-2.353a.209.209,0,0,1-.02-.268l1.946-2.731a1.088,1.088,0,0,0,.05-1.172,12.569,12.569,0,0,1-1.39-3.307,1.08,1.08,0,0,0-.854-.784l-3.346-.566a.213.213,0,0,1-.179-.209V79.817a.212.212,0,0,1,.179-.209l3.3-.556a1.076,1.076,0,0,0,.864-.794,12.73,12.73,0,0,1,1.35-3.326,1.036,1.036,0,0,0-.06-1.152l-1.966-2.77a.21.21,0,0,1,.02-.268l2.353-2.353a.182.182,0,0,1,.149-.06.213.213,0,0,1,.119.04l2.731,1.946a1.088,1.088,0,0,0,1.172.05,12.569,12.569,0,0,1,3.307-1.39,1.08,1.08,0,0,0,.784-.854l.566-3.346a.213.213,0,0,1,.209-.179h3.326a.212.212,0,0,1,.209.179l.556,3.3a1.076,1.076,0,0,0,.794.864,12.811,12.811,0,0,1,3.4,1.39,1.053,1.053,0,0,0,1.162-.05l2.731-1.966a.282.282,0,0,1,.119-.04.223.223,0,0,1,.149.06l2.353,2.353a.209.209,0,0,1,.02.268l-1.956,2.741a1.071,1.071,0,0,0-.05,1.162,12.952,12.952,0,0,1,1.38,3.316,1.067,1.067,0,0,0,.854.784l3.326.566a.213.213,0,0,1,.179.209l-.02,3.336Zm0,0" transform="translate(-421.28 -62.46)" fill="#1f1f1f"/>
              <path id="Trazado_124260" data-name="Trazado 124260" d="M440.3,73.29a8.172,8.172,0,1,0,8.172,8.172A8.179,8.179,0,0,0,440.3,73.29Zm0,14.209a6.037,6.037,0,1,1,6.037-6.037A6.041,6.041,0,0,1,440.3,87.5Zm0,0" transform="translate(-421.356 -62.536)" fill="#1f1f1f"/>
            </g>
          </g>
        </g>
      </g>
      <g id="Grupo_1083574" data-name="Grupo 1083574" transform="translate(0.826 3)">
        <g id="Grupo_1083572" data-name="Grupo 1083572" transform="translate(0 162.877)">
          <g id="Grupo_1083571" data-name="Grupo 1083571" transform="translate(94.698 0)">
            <g id="Grupo_1083570" data-name="Grupo 1083570" transform="translate(414.987 1)">
              <rect id="Rectángulo_34624" data-name="Rectángulo 34624" width="128.42" height="44.356" transform="translate(69.428 8.981)" fill="none"/>
            </g>
            <rect id="Rectángulo_34625" data-name="Rectángulo 34625" width="128.42" height="44.356" transform="translate(0 207.496)" fill="none"/>
            <g id="Grupo" transform="translate(222 37.026)">
              <text id="Protocolos-2" data-name="Protocolos" transform="translate(14 10)" fill="#12263f" font-size="16" font-family="Roboto-Regular, Roboto"><tspan x="0" y="0">Protocolos</tspan></text>
            </g>
            <text id="_4._La_manufactura" data-name="4. La manufactura" transform="translate(-54.699 186.433)" fill="#12263f" font-size="12" font-family="Roboto-Regular, Roboto"><tspan x="0" y="0">4. La manufactura</tspan></text>
          </g>
          <rect id="Rectángulo_34626" data-name="Rectángulo 34626" width="128.42" height="44.356" transform="translate(24.134 34.796)" fill="none"/>
          <g id="Grupo-2" data-name="Grupo" transform="translate(-33 -2.517)">
            <text id="_5._La_comercialización_y_el_uso_de_semillas_e_insumos_agropecuarios" data-name="5. La comercialización
y el uso de semillas
e insumos agropecuarios" transform="translate(0 13)" fill="#12263f" font-size="12" font-family="Roboto-Regular, Roboto"><tspan x="0" y="0">5. La comercialización</tspan><tspan x="0" y="16">y el uso de semillas</tspan><tspan x="0" y="32">e insumos agropecuarios</tspan></text>
          </g>
        </g>
      </g>
    </g>
    <g id="exportar" transform="translate(644 1446)">
      <path id="Trazado_124303" data-name="Trazado 124303" d="M55.9,202.359a.491.491,0,0,0-.487.487V213.4H51.077a.677.677,0,0,0-.677.677v5.081a.677.677,0,0,0,.677.677h3.387a.677.677,0,0,0,.677-.677v-.927H72.324v.927a.677.677,0,0,0,.677.677h3.387a.677.677,0,0,0,.677-.677v-5.064a.673.673,0,0,0-.677-.677H71.795V202.846a.487.487,0,0,0-.487-.487H66.35v-5.843a8.282,8.282,0,1,0-5.314-.021v5.864ZM70.825,213.4v.186H56.379V203.328h5.2v5.788l.817-.529.2-.131,1.109.661,1.139-.661.152.1.847.559v-5.788h4.984Zm4.882,1.355v2.1H73a.538.538,0,0,0-.119,0H51.755v-2.1ZM63.725,181.726a6.923,6.923,0,0,1,2.625,13.333,6.66,6.66,0,0,1-1.355.4,7.02,7.02,0,0,1-1.27.119,7.267,7.267,0,0,1-1.334-.127,6.927,6.927,0,0,1,1.334-13.723Zm-1.334,15.1a8.676,8.676,0,0,0,1.334.106,8.383,8.383,0,0,0,1.27-.093v5.5h-2.6Z" transform="translate(-79.4 14.998)" fill="#050505"/>
      <path id="Trazado_124333" data-name="Trazado 124333" d="M354.36,199.609a23.507,23.507,0,0,0-2.868-.606h-4.441l-1.441-2.284h1.7a.7.7,0,0,0,.7-.7v-2.091a.7.7,0,0,0-.7-.7h-2.091a.751.751,0,0,0-.259.048,4.833,4.833,0,0,0-1.142.611L341.56,190.3h1.555a.7.7,0,0,0,.7-.707V187.6a.7.7,0,0,0-.7-.7h-2a.752.752,0,0,0-.259.048,4.787,4.787,0,0,0-1.059.558l-1.928-3.053a.676.676,0,0,0-.329-.277l-3.83-1.537a.712.712,0,0,0-.738.132.7.7,0,0,0-.2.72l4.586,15.528H324.617a.77.77,0,0,0-.141,0c-.044,0-.813.167-1.757.439l-2.789-5.4a.707.707,0,0,0-.628-.382h-2.636a.7.7,0,0,0-.553.268.721.721,0,0,0-.132.6l1.66,6.879h-.918a.7.7,0,0,0,0,1.406h.9l-1.647,6.809a.712.712,0,0,0,.132.6.7.7,0,0,0,.553.268H319.3a.707.707,0,0,0,.628-.382l2.719-5.306c1,.242,1.814.365,1.858.373h12.831l-4.577,15.5a.7.7,0,0,0,.2.72.712.712,0,0,0,.474.18.8.8,0,0,0,.264-.048l3.83-1.537a.725.725,0,0,0,.329-.277l1.928-3.053a4.769,4.769,0,0,0,1.059.553.668.668,0,0,0,.259.053h2a.7.7,0,0,0,.7-.707v-2a.7.7,0,0,0-.7-.7h-1.555l2.262-3.584a5.017,5.017,0,0,0,1.16.6.75.75,0,0,0,.259.048h2.091a.7.7,0,0,0,.7-.7v-2.1a.7.7,0,0,0-.7-.7h-1.7l1.419-2.258H351.5a25.176,25.176,0,0,0,2.86-.633c2.236-.646,3.277-1.419,3.277-2.438C357.637,200.712,355.766,200.014,354.36,199.609Zm-.545,3.637a24.7,24.7,0,0,1-2.473.536H324.674c-.479-.075-.936-.158-1.357-.255l.36-.7h.813a.7.7,0,0,0,0-1.406h-.773l-.351-.69c.633-.171,1.151-.29,1.318-.325h26.651a21.805,21.805,0,0,1,2.636.558c1.832.527,2.24,1.024,2.258,1.147C356.2,202.162,355.9,202.662,353.816,203.247Zm-11.421,12.027v.6H341.23a4,4,0,0,1-.532-.277,5.147,5.147,0,0,1,.553-.321Zm-5.377,3.132,7.709-13.235h.641Zm6.545-13.235L335.3,219.381l-.777.312,4.292-14.522Zm-22.284-.76-2.394,4.665h-1.34l1.432-5.935.083-.334H322.1l-.171.334-.321.633Zm-2.394-9.343,2.469,4.832.325.628.321.633.136.264H319.06l-.009-.206-1.489-6.15Zm17.914-9.7,8.592,13.617h-.685l-7.938-13.617Zm5.614,2.908v.6H341.27a4,4,0,0,1-.553-.321,4.591,4.591,0,0,1,.531-.277Zm-7.16-3.514L343.541,199h-4.722l-4.3-14.536Zm11.36,9.87v.685h-1.234a4.775,4.775,0,0,1-.624-.369,5.923,5.923,0,0,1,.606-.316Zm-1.23,14.228h1.23v.685H345.36a4.26,4.26,0,0,1-.6-.316,4.681,4.681,0,0,1,.624-.378Z" transform="translate(-80.269 187.747)" fill="#050505"/>
      <path id="Trazado_124350" data-name="Trazado 124350" d="M495.45,345.05v-2.567a11.508,11.508,0,0,0-4.5-7.822,15.949,15.949,0,0,0-9.89-3.214,14.744,14.744,0,0,0-9.544,3.1,14.341,14.341,0,0,0-4.8,7.836.772.772,0,0,0,0,.175v2.5c-2.508.243-4.46,1.933-4.46,3.974v2.189c0,2.072,2,3.781,4.563,3.983A5.759,5.759,0,0,0,469,359v3.709a.724.724,0,0,0,1.443,0h0v-2.9a5.619,5.619,0,0,0,2.068.387h.985a10.168,10.168,0,0,0,2.891,2.549,9.593,9.593,0,0,0,9.625.054,10.538,10.538,0,0,0,5.228-9.189v-5.777h0v-.117a.059.059,0,0,0,0-.027.085.085,0,0,0,0-.036s0-.022,0-.036V347.5h0a.252.252,0,0,0,0-.036h0v-.031l-.027-.027-.022-.027-.031-.027h0l-.036-.022h-.265a14.381,14.381,0,0,1-2.778-.953c-2.832-1.218-6.163-3.115-6.208-3.147a.733.733,0,0,0-.8.054,21.2,21.2,0,0,1-6,3.147,17.527,17.527,0,0,1-2.7.724.742.742,0,0,0-.364.171.719.719,0,0,0-.544.7v5.763a10.789,10.789,0,0,0,1.295,5.147h-.04a4.27,4.27,0,0,1-2.068-.53V346.129c0-5.395,4.837-9.782,10.789-9.782s10.789,4.388,10.789,9.782v16.88h0a.719.719,0,1,0,1.439,0v-17.06c0-6.186-5.484-11.239-12.228-11.239s-12.228,5.035-12.228,11.239v10.987a4.3,4.3,0,0,1-.791-2.482.706.706,0,0,0-.067-.306v-7.723a.686.686,0,0,0,0-.135h0v-3.655a12.862,12.862,0,0,1,4.284-6.977,13.347,13.347,0,0,1,8.64-2.783,14.511,14.511,0,0,1,8.991,2.909,10.083,10.083,0,0,1,3.943,6.8v3.565h0a.553.553,0,0,0,0,.09V354.5a.715.715,0,0,0,.71.719h.094c2.8,0,5.08-1.8,5.08-4.005V349.02C499.905,346.979,497.959,345.3,495.45,345.05Zm-22.743,8.541v-5.264a20.086,20.086,0,0,0,2.374-.634,24.089,24.089,0,0,0,3.524-1.479,21.32,21.32,0,0,0,2.769-1.708c.6.337,1.8.989,3.147,1.677,1.137.571,2.4,1.164,3.547,1.623a17.1,17.1,0,0,0,1.722.589v5.192a8.8,8.8,0,0,1-8.541,9.018,8.285,8.285,0,0,1-5.844-2.432h1.124a1.8,1.8,0,0,0,1.569.94h2.027a1.8,1.8,0,1,0,0-3.56h-2.041a1.8,1.8,0,0,0-1.677,1.182h-2.171a9.3,9.3,0,0,1-1.528-5.129Zm25.759-2.392c0,1.263-1.3,2.315-3.007,2.526V346.5c1.7.211,3.007,1.263,3.007,2.526Zm-34.759-2.189c0-1.263,1.3-2.315,3.007-2.526v7.238c-1.7-.211-3.007-1.263-3.007-2.526Z" transform="translate(-324.26 -279.885)" fill="#050505"/>
    </g>
    <rect id="Rectángulo_361735" data-name="Rectángulo 361735" width="210" height="70" rx="18" transform="translate(552 1448)" fill="#fdb70a"/>
    <text id="_4._La_manufactura-2" data-name="4. La manufactura" transform="translate(604.826 1483)" fill="#12263f" font-size="12" font-family="Roboto-Regular, Roboto"><tspan x="0" y="0">1. La identificación</tspan></text>
    <rect id="Rectángulo_361736" data-name="Rectángulo 361736" width="230" height="70" rx="18" transform="translate(1020 1621)" fill="#fdb70a"/>
    <text id="_4._La_manufactura-3" data-name="4. La manufactura" transform="translate(1044.826 1644)" fill="#12263f" font-size="12" font-family="Roboto-Regular, Roboto"><tspan x="0" y="0">2. El manejo y la supervisión de</tspan><tspan x="0" y="16">las plagas y enfermedades que se</tspan><tspan x="0" y="32">evidencian en las importaciones</tspan></text>
    <rect id="Rectángulo_361737" data-name="Rectángulo 361737" width="230" height="70" rx="18" transform="translate(947 1799)" fill="#fdb70a"/>
    <text id="_4._La_manufactura-4" data-name="4. La manufactura" transform="translate(1005 1837)" fill="#12263f" font-size="12" font-family="Roboto-Regular, Roboto"><tspan x="0" y="0">3. Las exportaciones</tspan></text>
    <path id="Trazado_716881" data-name="Trazado 716881" d="M0,0H18.75" transform="translate(637 1822.5)" fill="none" stroke="#707070" stroke-width="1"/>
    <line id="Línea_3876" data-name="Línea 3876" x2="21" transform="translate(580 1662)" fill="none" stroke="#707070" stroke-width="1"/>
    <line id="Línea_3877" data-name="Línea 3877" x2="17" y2="6" transform="translate(763 1492)" fill="none" stroke="#707070" stroke-width="1"/>
    <path id="Trazado_716880" data-name="Trazado 716880" d="M0,0H18.167" transform="translate(1001.833 1654)" fill="none" stroke="#707070" stroke-width="1"/>
    <line id="Línea_3879" data-name="Línea 3879" x2="20" transform="translate(927 1835)" fill="none" stroke="#707070" stroke-width="1"/>
    <path id="Trazado_716882" data-name="Trazado 716882" d="M236.809,343.911c-.939.068-2.217-1.678-4.041-3.995s-1.856-3.858-3.413-3.636c-1.1.157-4.556.616-6.661.953a5.521,5.521,0,0,0-1.5-.608,11.078,11.078,0,0,0-.141-1.141,4.489,4.489,0,0,1,1.037-.023,4.95,4.95,0,0,0,2.37-.216c.923-.359,2.234-2.094,2.436-2.156s1.858.755,2.149.739a4.788,4.788,0,0,0,1.867-.65c.477-.369.732.217,1.224.138s.315-1.131-.365-1.181-1.514.358-2.225.209-2.351-.677-2.983-.334-3.354,2.292-4.422,2.179a4.663,4.663,0,0,0-1.345.085,7.225,7.225,0,0,0-.659-1.776c1.371-1.84,3.349-5.709,3.25-6.227-.12-.628-1.772-6.69-1.834-6.892s.227-1.178.211-1.468-.634-.616-.623-.1-.482.592-.413,1.531a35.3,35.3,0,0,0,1.442,6.7c.152.421-1.843,3.459-3.164,5.4a6.761,6.761,0,0,0-1.212-.565c.014-.219.015-.454.02-.721a11.818,11.818,0,0,0-.207-1.819c-.022-.215-1.116-1.317-1.211-1.612s.4-1,.474-1.465-.613-.549-.6.444a3.027,3.027,0,0,1-.642,1.259,12.7,12.7,0,0,1,1.088,1.62,3.207,3.207,0,0,1,.275,1.607s-.093.173-.179.385c-.507-.133-.913-.214-1.079-.273a.788.788,0,0,0-.371-.008.71.71,0,0,0-1.206.418c-.26.119-.445.216-.445.216a2.926,2.926,0,0,0-.618.747.714.714,0,1,0-.664,1.237c0,.144-.012.709.03,1.4a5.326,5.326,0,0,0-.38-.408c-.225-.23-1.122-.079-1.122-.079a3.205,3.205,0,0,1-1.43-.783,12.722,12.722,0,0,1-1.177-1.557,3.027,3.027,0,0,1-1.4.2c-.935-.335-1.083.345-.616.424s1.291-.156,1.54.029.934,1.579,1.13,1.67a11.824,11.824,0,0,0,1.653.788,3.431,3.431,0,0,0,1.752.294.535.535,0,0,0,.095-.025c.032.319.076.645.138.957-1.915.538-6.878,1.888-7.3,1.552a35.292,35.292,0,0,0-5.864-3.546c-.865-.371-1.1.069-1.582-.108s-.375.513-.105.622,1.286.154,1.457.279,5.365,3.662,5.919,3.98,6.618-.623,7.95-1.463a8.411,8.411,0,0,0,1.215,1.493,4.45,4.45,0,0,0-.714.922c-.523.939-3.684,2.04-4.329,2.36s-1.159,1.963-1.446,2.631-1.1,1.114-1.452,1.7.407,1.336.755.978.016-.9.592-1.081a4.785,4.785,0,0,0,1.607-1.151c.18-.228.466-2.053.633-2.182s2.34-.2,3.165-.749a4.945,4.945,0,0,0,1.542-1.813,4.451,4.451,0,0,1,.61-.828,1.48,1.48,0,0,0,1.131.316s.015.176.065.479c-.647,1-3.141,5.991-3.809,7.3-.717,1.4.729,1.932,2.325,4.411s2.831,4.257,2.461,5.122a3.75,3.75,0,0,0-.183,2.4c.186.223.967-.6,1-1.367s-.065-1.708.2-1.775-.668-2.849-1.025-3.2a31.617,31.617,0,0,1-2.956-4.086c-.174-.525,1.868-4.573,2.691-6.277.143.365.311.747.51,1.137,1.123,2.2,4.347,3.712,6.479,4.161s2.55-3.738,1.8-6.165a9.72,9.72,0,0,0-1.487-3c2.139-.263,5.324-.642,5.69-.363a31.614,31.614,0,0,1,2.9,4.126c.213.451,2.54,2.243,2.689,2.011s1.012.169,1.744.386,1.769-.251,1.618-.5A3.748,3.748,0,0,0,236.809,343.911Z" transform="translate(755.346 1316.977)" fill="#1f1f1f"/>
  </g>
</svg>
