<svg xmlns="http://www.w3.org/2000/svg" width="105.194" height="105.194" viewBox="0 0 105.194 105.194">
  <g id="Grupo_1084156" data-name="Grupo 1084156" transform="translate(-284.806 -2058.333)">
    <g id="Grupo_1084147" data-name="Grupo 1084147" transform="translate(284.806 2058.333)">
      <g id="Grupo_1083552" data-name="Grupo 1083552" transform="translate(0 0)">
        <g id="Grupo_1083548" data-name="Grupo 1083548" transform="translate(0 0)">
          <g id="Grupo_1083547" data-name="Grupo 1083547" transform="translate(0 0)">
            <g id="Grupo_1083546" data-name="Grupo 1083546">
              <circle id="Elipse_4735" data-name="Elipse 4735" cx="51.259" cy="51.259" r="51.259" transform="matrix(0.026, -1, 1, 0.026, 0, 102.478)" fill="#fdb70a"/>
            </g>
          </g>
        </g>
      </g>
    </g>
    <g id="mano_hoja" data-name="mano hoja" transform="translate(297.009 2071.796)">
      <path id="Trazado_716874" data-name="Trazado 716874" d="M235.175,418.27c3.081,1.109,5.755,2.181,8.491,3.013,4.141,1.232,8.818,1.553,12.4,3.7,6.68,3.993,12.238.154,18.314-.955,1.879-.345,5.367.776,5.9,2.107.764,1.923.339,5.9-1.041,6.828-7.906,5.343-16.132,10.241-24.519,14.789-1.725.943-4.615.1-6.871-.388a16.743,16.743,0,0,1-5.127-2.3c-6.544-4.073-12.682-4.5-19.4.2-5.115,3.574-6.852,2.465-8.67-3.506-1.14-3.765-2.576-7.475-3.235-11.326-.265-1.571.752-4.554,1.9-4.991C220.484,422.768,227.854,420.612,235.175,418.27ZM214.02,428.394c1.645,5.546,3.081,10.383,4.856,16.385,9.631-9.28,18.93-6.852,28.235-1.35,3.451,2.04,6.834,1.688,10.161-.376,6.094-3.784,12.263-7.462,18.283-11.369,1.159-.752,1.762-2.348,2.625-3.549l-.887-1.122c-5.614,1.3-11.572,1.756-16.163,5.946-6.4,5.848-16.022,5.737-20.477-1.51a43.553,43.553,0,0,0,6.162,1.282,61.787,61.787,0,0,0,9.373-.265c.789-.092,1.423-1.584,2.126-2.434a12.588,12.588,0,0,0-2.7-1.849c-4.634-1.473-9.28-2.933-13.988-4.1-2.909-.721-6.113-1.75-8.88-1.177C226.628,424.2,220.681,426.385,214.02,428.394Z" transform="translate(-211.38 -374.972)"/>
      <path id="Trazado_716875" data-name="Trazado 716875" d="M258.105,390.187c3.7-7.265,10.377-7.314,17-8.22V366.222h-9.712c-9.434-.049-12.823-7.216-11.443-16.071.129-.813,1.849-1.849,2.945-1.966a65.163,65.163,0,0,1,7.684-.1c9.243,0,11.837,1.892,14.278,9.619,6.248-.29,12.263-.739,18.271-.684,1.146,0,3.112,1.935,3.278,3.161,1.232,9.422-3.4,14.536-12.94,14.629h-8.116c-1.122,4.93-1.325,8.541,4.313,10.007,2.046.53,3.7,2.526,5.152,5.084C278.36,384.265,268.322,383.495,258.105,390.187Zm21.148-19.324c13.7,2.465,18.758-.487,17.488-10.118C284.522,358.852,277.239,360.5,279.254,370.862Zm-4.221-8.627c1.916-10.1-5.256-12.324-17.765-10.063-.789,9.5,3.3,11.856,17.765,10.007Z" transform="translate(-227.606 -348.01)"/>
    </g>
  </g>
</svg>
