<svg xmlns="http://www.w3.org/2000/svg" width="873.999" height="460.952" viewBox="0 0 873.999 460.952">
  <g id="Grupo_1084130" data-name="Grupo 1084130" transform="translate(-411 -1435.467)">
    <g id="Grupo_1084127" data-name="Grupo 1084127">
      <ellipse id="Elipse_4903" data-name="Elipse 4903" cx="195.5" cy="200.5" rx="195.5" ry="200.5" transform="translate(622 1474.976)" fill="#ffa686"/>
      <path id="Trazado_124360" data-name="Trazado 124360" d="M186.5,0C289.5,0,373,83.947,373,187.5a187.483,187.483,0,0,1-23.722,91.583C317.384,336.3,256.438,375,186.5,375,83.5,375,0,291.053,0,187.5S83.5,0,186.5,0Z" transform="translate(631 1487.976)" fill="#fff"/>
      <g id="Grupo_1083540" data-name="Grupo 1083540" transform="translate(954.846 1584.934)">
        <g id="Grupo_1083539" data-name="Grupo 1083539" transform="translate(20.766 18.653)">
          <g id="Grupo_1083535" data-name="Grupo 1083535">
            <g id="Grupo_1083534" data-name="Grupo 1083534" transform="translate(11.534 11.534)">
              <g id="Grupo_1083533" data-name="Grupo 1083533" transform="translate(5.837 5.856)">
                <path id="Trazado_124261" data-name="Trazado 124261" d="M30.541,0A30.541,30.541,0,1,1,0,30.541,30.541,30.541,0,0,1,30.541,0Z" fill="#ffb90b"/>
              </g>
            </g>
          </g>
        </g>
      </g>
      <g id="Grupo_1083553" data-name="Grupo 1083553" transform="translate(658.601 1411.212)">
        <g id="Grupo_1083552" data-name="Grupo 1083552" transform="translate(177.193 18.917)">
          <g id="Grupo_1083548" data-name="Grupo 1083548">
            <g id="Grupo_1083547" data-name="Grupo 1083547" transform="translate(11.534 11.27)">
              <g id="Grupo_1083546" data-name="Grupo 1083546" transform="translate(4.997 5.137)">
                <circle id="Elipse_4735" data-name="Elipse 4735" cx="30.541" cy="30.541" r="30.541" transform="matrix(0.026, -1, 1, 0.026, 0, 61.058)" fill="#fdb70a"/>
              </g>
            </g>
          </g>
        </g>
      </g>
      <g id="Grupo_1083566" data-name="Grupo 1083566" transform="translate(404 1599.25)">
        <g id="Grupo_1083565" data-name="Grupo 1083565" transform="translate(177.457 18.917)">
          <g id="Grupo_1083561" data-name="Grupo 1083561">
            <g id="Grupo_1083560" data-name="Grupo 1083560" transform="translate(11.27 11.27)">
              <g id="Grupo_1083559" data-name="Grupo 1083559" transform="translate(5.893 5.966)">
                <circle id="Elipse_4737" data-name="Elipse 4737" cx="30.541" cy="30.541" r="30.541" fill="#fdb70a"/>
              </g>
            </g>
          </g>
        </g>
      </g>
      <g id="Grupo_1083584" data-name="Grupo 1083584" transform="translate(438.76 1400.73)">
        <g id="Grupo_1083574" data-name="Grupo 1083574">
          <g id="Grupo_1083572" data-name="Grupo 1083572" transform="translate(0 240.011)">
            <g id="Grupo_1083571" data-name="Grupo 1083571" transform="translate(78.24 9)">
              <g id="Grupo_1083570" data-name="Grupo 1083570" transform="translate(467.238 -27.571)">
                <g id="Grupo_1083569" data-name="Grupo 1083569" transform="translate(-6 195.525)">
                  <rect id="Rectángulo_34623" data-name="Rectángulo 34623" width="142.389" height="49.181" transform="translate(0 4.952)" fill="none"/>
                  <g id="Grupo" transform="translate(9.696 2)">
                    <text id="_3._Las_exportaciones" data-name="3. Las exportaciones" transform="translate(0 16)" fill="#12263f" font-size="15" font-family="Roboto-BoldItalic, Roboto" font-weight="700" font-style="italic"><tspan x="0" y="0">3. Las exportaciones</tspan></text>
                  </g>
                </g>
                <rect id="Rectángulo_34624" data-name="Rectángulo 34624" width="142.389" height="49.181" transform="translate(70.98 4.958)" fill="none"/>
                <g id="Grupo-2" data-name="Grupo" transform="translate(88.876 2)">
                  <text id="_2._El_manejo_y_la_" data-name="2. El manejo y la " transform="translate(51.493 9)" fill="#12263f" font-size="15" font-family="Roboto-BoldItalic, Roboto" font-weight="700" font-style="italic"><tspan x="0" y="0">2. El manejo y la </tspan></text>
                  <text id="supervisión_de_las_plagas" data-name="supervisión de las plagas" transform="translate(0 24.01)" fill="#12263f" font-size="15" font-family="Roboto-BoldItalic, Roboto" font-weight="700" font-style="italic"><tspan x="0" y="0">supervisión de las plagas</tspan></text>
                  <text id="y_enfermedades_que_se_evidencian_en_las_importaciones" data-name="y enfermedades que se
evidencian en las importaciones" transform="translate(-2.114 44.01)" fill="#12263f" font-size="15" font-family="Roboto-BoldItalic, Roboto" font-weight="700" font-style="italic"><tspan x="0" y="0">y enfermedades que se</tspan><tspan x="0" y="20">evidencian en las importaciones</tspan></text>
                </g>
              </g>
              <rect id="Rectángulo_34625" data-name="Rectángulo 34625" width="142.389" height="49.181" transform="translate(0 197.497)" fill="none"/>
              <g id="Grupo-3" data-name="Grupo" transform="translate(24.351 192.54)">
                <text id="_4._La_manufactura" data-name="4. La manufactura" transform="translate(0 16)" fill="#12263f" font-size="15" font-family="Roboto-BoldItalic, Roboto" font-weight="700" font-style="italic"><tspan x="0" y="0">4. La manufactura</tspan></text>
              </g>
            </g>
            <rect id="Rectángulo_34626" data-name="Rectángulo 34626" width="142.389" height="49.181" transform="translate(0 15.01)" fill="none"/>
            <g id="Grupo-4" data-name="Grupo" transform="translate(24.961 10.053)">
              <text id="_5._La_comercialización_y_el_uso_de_semillas_e_insumos_agropecuarios" data-name="5. La comercialización
y el uso de semillas
e insumos agropecuarios" transform="translate(-51.72 -6)" fill="#12263f" font-size="15" font-family="Roboto-BoldItalic, Roboto" font-weight="700" font-style="italic"><tspan x="0" y="0">5. La comercialización</tspan><tspan x="0" y="20">y el uso de semillas</tspan><tspan x="0" y="40">e insumos agropecuarios</tspan></text>
            </g>
          </g>
          <g id="Grupo_1083573" data-name="Grupo 1083573" transform="translate(251.539 38.736)">
            <rect id="Rectángulo_34627" data-name="Rectángulo 34627" width="142.389" height="49.181" transform="translate(0 4.958)" fill="none"/>
            <g id="Grupo-5" data-name="Grupo" transform="translate(25.077)">
              <text id="_1._La_identificación" data-name="1. La identificación" transform="translate(4.624 12)" fill="#12263f" font-size="15" font-family="Roboto-BoldItalic, Roboto" font-weight="700" font-style="italic"><tspan x="0" y="0">1. La identificación</tspan></text>
            </g>
          </g>
        </g>
        <g id="Grupo_1083583" data-name="Grupo 1083583" transform="translate(204.228 370.308)">
          <g id="Grupo_1083579" data-name="Grupo 1083579">
            <g id="Grupo_1083578" data-name="Grupo 1083578" transform="translate(11.27 11.27)">
              <g id="Grupo_1083577" data-name="Grupo 1083577" transform="translate(5.067 5.107)">
                <circle id="Elipse_4739" data-name="Elipse 4739" cx="30.541" cy="30.541" r="30.541" transform="matrix(0.026, -1, 1, 0.026, 0, 61.058)" fill="#edab0a"/>
              </g>
            </g>
          </g>
          <g id="Grupo_1083582" data-name="Grupo 1083582" transform="translate(19.157 17.307)">
            <g id="Grupo_1083581" data-name="Grupo 1083581" transform="translate(9.434 8.374)">
              <g id="Grupo_1083580" data-name="Grupo 1083580">
                <path id="Trazado_124259" data-name="Trazado 124259" d="M461.124,79.052l-2.951-.5a16.7,16.7,0,0,0-1.189-2.863l1.74-2.433a2.593,2.593,0,0,0-.275-3.347L455.84,67.3a2.573,2.573,0,0,0-1.839-.76,2.532,2.532,0,0,0-1.5.484l-2.433,1.74a16.941,16.941,0,0,0-2.962-1.222l-.5-2.918a2.592,2.592,0,0,0-2.565-2.169H440.36a2.592,2.592,0,0,0-2.565,2.169l-.506,2.984a17.006,17.006,0,0,0-2.852,1.2l-2.411-1.74a2.565,2.565,0,0,0-1.508-.484,2.6,2.6,0,0,0-1.839.76l-2.62,2.609a2.6,2.6,0,0,0-.275,3.347l1.751,2.466a15.877,15.877,0,0,0-1.167,2.874l-2.918.5a2.592,2.592,0,0,0-2.169,2.565v3.688a2.592,2.592,0,0,0,2.169,2.565l2.984.506a17.007,17.007,0,0,0,1.2,2.852l-1.729,2.4a2.593,2.593,0,0,0,.275,3.347l2.609,2.609a2.573,2.573,0,0,0,1.839.76,2.532,2.532,0,0,0,1.5-.484l2.466-1.751a17.5,17.5,0,0,0,2.774,1.145l.5,2.951a2.592,2.592,0,0,0,2.565,2.169h3.7a2.592,2.592,0,0,0,2.565-2.169l.5-2.951a16.7,16.7,0,0,0,2.863-1.189l2.433,1.74a2.565,2.565,0,0,0,1.508.484,2.619,2.619,0,0,0,1.839-.76l2.609-2.609a2.6,2.6,0,0,0,.275-3.347l-1.74-2.444a17.069,17.069,0,0,0,1.189-2.863l2.951-.5a2.592,2.592,0,0,0,2.169-2.565V81.606a2.569,2.569,0,0,0-2.158-2.554Zm-.2,6.254a.236.236,0,0,1-.187.231l-3.688.617a1.168,1.168,0,0,0-.947.87,13.763,13.763,0,0,1-1.53,3.677,1.167,1.167,0,0,0,.055,1.288l2.169,3.05a.233.233,0,0,1-.022.3l-2.609,2.609a.2.2,0,0,1-.165.066.236.236,0,0,1-.132-.044L450.83,95.8a1.187,1.187,0,0,0-1.288-.055,14.358,14.358,0,0,1-3.677,1.53,1.167,1.167,0,0,0-.87.947l-.628,3.688a.236.236,0,0,1-.231.2h-3.688a.235.235,0,0,1-.231-.2L439.6,98.22a1.168,1.168,0,0,0-.87-.947,14.419,14.419,0,0,1-3.6-1.475,1.17,1.17,0,0,0-.595-.154,1.1,1.1,0,0,0-.683.22l-3.072,2.18a.313.313,0,0,1-.132.044.247.247,0,0,1-.165-.066l-2.609-2.609a.232.232,0,0,1-.022-.3l2.158-3.028a1.207,1.207,0,0,0,.055-1.3,13.937,13.937,0,0,1-1.541-3.666,1.2,1.2,0,0,0-.947-.87l-3.71-.628a.236.236,0,0,1-.2-.231V81.705a.235.235,0,0,1,.2-.231l3.655-.617a1.193,1.193,0,0,0,.958-.881,14.114,14.114,0,0,1,1.5-3.688,1.149,1.149,0,0,0-.066-1.277l-2.18-3.072a.233.233,0,0,1,.022-.3l2.609-2.609a.2.2,0,0,1,.165-.066.236.236,0,0,1,.132.044l3.028,2.158a1.207,1.207,0,0,0,1.3.055,13.937,13.937,0,0,1,3.666-1.541,1.2,1.2,0,0,0,.87-.947l.628-3.71a.236.236,0,0,1,.231-.2h3.688a.235.235,0,0,1,.231.2l.617,3.655a1.193,1.193,0,0,0,.881.958,14.2,14.2,0,0,1,3.765,1.541,1.167,1.167,0,0,0,1.288-.055l3.028-2.18a.313.313,0,0,1,.132-.044.247.247,0,0,1,.165.066l2.609,2.609a.232.232,0,0,1,.022.3l-2.169,3.039a1.187,1.187,0,0,0-.055,1.288,14.36,14.36,0,0,1,1.53,3.677,1.183,1.183,0,0,0,.947.87l3.688.628a.236.236,0,0,1,.2.231l-.022,3.7Zm0,0" transform="translate(-421.28 -62.46)" fill="#1f1f1f"/>
                <path id="Trazado_124260" data-name="Trazado 124260" d="M441.191,73.29a9.061,9.061,0,1,0,9.061,9.061,9.069,9.069,0,0,0-9.061-9.061Zm0,15.755a6.694,6.694,0,1,1,6.694-6.694,6.7,6.7,0,0,1-6.694,6.694Zm0,0" transform="translate(-420.184 -61.366)" fill="#1f1f1f"/>
              </g>
            </g>
          </g>
        </g>
      </g>
      <path id="Trazado_124263" data-name="Trazado 124263" d="M392.1,255.693c-.492-.054-7.226-.107-7.5-.166s-5.638-2.354-5.857-2.734-6.569-5.423-6.953-5.969a19.513,19.513,0,0,1-.935-1.821c2.237-.04,4.108.345,4.551.166.573-.233,1.477.233,1.888,0s.246-.644-.658-1.3-2.38-1.642-2.792-1.557-2.054-1.727-2.792-1.481-1.888-.738-3.2-.819-1.316-.823-3.284-1.4,12.314,1.562,13.629,0,1.642-2.237-1.069-2.38-15.191-.412-16.256,0-2.412.036-3.477.2-1.423-.774-2.573-.935a10.321,10.321,0,0,0-4.215.573,24.29,24.29,0,0,0-1.888,2.546,10.1,10.1,0,0,0-.622,1.423c-.492-.174-.971-.3-1.132-.166A20.618,20.618,0,0,0,345.35,243s-.4,1.79-.931,3.521c-.166.067-.318.13-.447.192a1.564,1.564,0,0,0-.219.121,46.476,46.476,0,0,1-5.526,2.407c-.658.166.107.331,1.092,0,.855-.282,3.879-1.835,4.962-2.286-.447,1.387-.958,2.644-1.4,2.819a23.348,23.348,0,0,0-3.132,1.284,4.861,4.861,0,0,1-.711-.362s.277.175.685.38a1.66,1.66,0,0,0-.55.479c-.447.725.3.354.756-.233a.679.679,0,0,1,.1-.1,3.76,3.76,0,0,0,2.3.447c1.235-.331,4.273-.412,5.669-3.45a2.04,2.04,0,0,1,1.087-.895c.747.21,1.656.631,1.32,1.405-.564,1.284-6.036,3.074-6.582,3.521a33.6,33.6,0,0,1-6.461,3.942c-2.738,1.15-3.83,1.588-3.5,1.79s.327.219,1.369-.327,2.027-.895,2.573-1.208,2.519-1.1,3.177-1.562,2.64-1.888,3.132-2.237,5.763-2.479,6.349-2.913,1.316-1.575-1.074-2.564c.2-.309-.094-1,.237-1.342.407-.412,0-1.477,0-1.477a30.1,30.1,0,0,0,3.132,2.3,6.17,6.17,0,0,1,.962.68c.148,1.468.425,4.246.345,4.389s-2.465,6.927-2.792,7.365-2.412,3.392-2.792,3.938-2.027,2.9-2.081,3.669.447,1.15.447.895a5.091,5.091,0,0,1,.273-1.642c.219-.492,2.3-3.4,2.461-3.723s2.081-2.738,2.134-2.9,2.792-6.734,2.9-7.285c.072-.367-.125-2.756-.246-4.421a1.441,1.441,0,0,1,1.177-.859,3.58,3.58,0,0,0,1.723-.331c.658-.246,1.562.331,1.316-.895s-.984-1.477-.658-2.134a.406.406,0,0,1,.107-.107,26.719,26.719,0,0,1,1.674,3.338,8.9,8.9,0,0,1,0,3.177c-.273.439-.591.895-.591.895s.613,0,.738-.219.345-3.615.345-3.888c0-.179-.846-2.072-1.432-3.36a4.866,4.866,0,0,1,1.047.447s.523.175,1.342.412c.846,2.873,3,9.311,3.548,9.665,0,0,4.922,9.714,5.531,10.81s3.83,7.665,4.654,8.537a34.449,34.449,0,0,1,2.461,2.738c1.043,1.315.765.054.273-.6a26.373,26.373,0,0,0-2.573-2.738c-.161-.054-4.922-9.307-4.922-9.307l-4.653-9.692s-2.237-5.638-2.461-6.291a26.855,26.855,0,0,0-.895-2.859c2.018.537,4.922,1.159,6.757.895.233-.036.447-.067.694-.089.506.72,1.034,1.481,1.168,1.745.273.546.765.331.931.546s6.13,4.922,6.4,5.477,3.45,2.081,3.835,2.3,2.3,1.038,2.3,1.038a68.985,68.985,0,0,1,7.557,0C392.847,256.543,392.592,255.747,392.1,255.693ZM346.129,242.86a9.594,9.594,0,0,1,1.208-2.157,3.555,3.555,0,0,1,.492.233,2.788,2.788,0,0,0,.228,2.237,2.017,2.017,0,0,0-1.477,1.557,1.682,1.682,0,0,0,.192.993c-.474.134-1.181.336-1.812.55C345.52,244.713,346.035,243.1,346.129,242.86Zm-1.687,7.808c-1.6.264-2.882.895-4.367.479a35.276,35.276,0,0,1,3.683-1.454c.076-.081.541-1.432,1.043-2.913.47-.089,1.566-.358,2.237-.55.327.47.68.846.591,1.154-.148.591-1.213,2.971-3.186,3.3Z" transform="translate(660.206 1396.429)" fill="#1f1f1f"/>
      <path id="Trazado_124271" data-name="Trazado 124271" d="M386.15,127.14c-.56.31-.75.62-.75.92C385.87,127.49,386.31,127.06,386.15,127.14Z" transform="translate(618.947 1503.828)" fill="#1f1f1f"/>
      <g id="exportar" transform="translate(644 1446)">
        <path id="Trazado_124303" data-name="Trazado 124303" d="M56.506,204.8a.546.546,0,0,0-.541.541V217.06H51.153a.753.753,0,0,0-.753.753v5.645a.753.753,0,0,0,.753.753h3.763a.753.753,0,0,0,.753-.753v-1.03H74.756v1.03a.753.753,0,0,0,.753.753h3.763a.753.753,0,0,0,.753-.753v-5.626a.748.748,0,0,0-.753-.753h-5.1V205.338a.541.541,0,0,0-.541-.541H68.119v-6.491a9.2,9.2,0,1,0-5.9-.024V204.8ZM73.091,217.06v.207H57.042V205.874h5.772v6.43l.908-.588.226-.146,1.232.734,1.265-.734.169.113.941.621v-6.43h5.536Zm5.423,1.505v2.328H75.509a.6.6,0,0,0-.132,0H51.905v-2.328ZM65.2,181.875a7.691,7.691,0,0,1,2.916,14.812,7.4,7.4,0,0,1-1.505.442,7.8,7.8,0,0,1-1.411.132,8.072,8.072,0,0,1-1.482-.141A7.7,7.7,0,0,1,65.2,181.875Zm-1.482,16.774a9.638,9.638,0,0,0,1.482.118,9.314,9.314,0,0,0,1.411-.1v6.115H63.721Z" transform="translate(-81.4 15.621)" fill="#050505"/>
        <path id="Trazado_124350" data-name="Trazado 124350" d="M504.658,348.825v-3.279a14.7,14.7,0,0,0-5.743-9.992,20.375,20.375,0,0,0-12.634-4.106,18.835,18.835,0,0,0-12.192,3.962,18.319,18.319,0,0,0-6.133,10.009.989.989,0,0,0,0,.224v3.2c-3.2.31-5.7,2.469-5.7,5.076v2.8c0,2.647,2.561,4.83,5.829,5.088a7.356,7.356,0,0,0,2.785,4.847v4.738a.925.925,0,0,0,1.843,0h0v-3.7a7.178,7.178,0,0,0,2.642.494h1.258a12.989,12.989,0,0,0,3.693,3.256,12.255,12.255,0,0,0,12.295.069,13.461,13.461,0,0,0,6.679-11.738v-7.379h0v-.149a.075.075,0,0,0,0-.034.109.109,0,0,0,0-.046s0-.029,0-.046v-.161h0a.32.32,0,0,0,0-.046h0v-.04l-.034-.034-.029-.034-.04-.034h0l-.046-.029h-.339a18.375,18.375,0,0,1-3.549-1.217c-3.618-1.556-7.873-3.98-7.931-4.02a.936.936,0,0,0-1.016.069,27.084,27.084,0,0,1-7.661,4.02,22.4,22.4,0,0,1-3.446.925.947.947,0,0,0-.465.218.919.919,0,0,0-.695.89v7.362a13.783,13.783,0,0,0,1.654,6.575h-.052a5.455,5.455,0,0,1-2.642-.678V350.2c0-6.891,6.179-12.5,13.782-12.5s13.782,5.6,13.782,12.5v21.564h0a.919.919,0,1,0,1.838,0V349.973c0-7.9-7.006-14.357-15.62-14.357s-15.62,6.432-15.62,14.357v14.035a5.5,5.5,0,0,1-1.011-3.17.9.9,0,0,0-.086-.39v-9.866a.878.878,0,0,0,0-.172h0v-4.669a16.43,16.43,0,0,1,5.473-8.913,17.049,17.049,0,0,1,11.037-3.555,18.537,18.537,0,0,1,11.485,3.715,12.881,12.881,0,0,1,5.036,8.689v4.554h0a.708.708,0,0,0,0,.115V360.89a.913.913,0,0,0,.907.919h.121c3.578,0,6.489-2.3,6.489-5.117v-2.8C510.349,351.288,507.862,349.141,504.658,348.825Zm-29.052,10.911v-6.725a25.654,25.654,0,0,0,3.032-.81,30.769,30.769,0,0,0,4.5-1.889,27.224,27.224,0,0,0,3.537-2.182c.769.431,2.3,1.263,4.02,2.142,1.453.729,3.061,1.487,4.531,2.073a21.852,21.852,0,0,0,2.2.752v6.633c0,6.351-4.9,11.52-10.911,11.52a10.584,10.584,0,0,1-7.465-3.107h1.436a2.3,2.3,0,0,0,2,1.2h2.59a2.3,2.3,0,1,0,0-4.548h-2.607a2.3,2.3,0,0,0-2.142,1.51h-2.774a11.881,11.881,0,0,1-1.952-6.552Zm32.905-3.055c0,1.614-1.665,2.957-3.842,3.227v-9.234c2.176.27,3.842,1.614,3.842,3.227Zm-44.4-2.8c0-1.614,1.665-2.957,3.842-3.227V359.9c-2.176-.27-3.842-1.614-3.842-3.227Z" transform="translate(-246.744 -324.938)" fill="#050505"/>
      </g>
    </g>
    <g id="Grupo_1084129" data-name="Grupo 1084129">
      <circle id="Elipse_4731" data-name="Elipse 4731" cx="30.541" cy="30.541" r="30.541" transform="translate(900.733 1826.32)" fill="#fdb70a"/>
      <path id="Trazado_124333" data-name="Trazado 124333" d="M355.634,200.174a24.287,24.287,0,0,0-2.964-.626h-4.588l-1.489-2.36h1.761a.722.722,0,0,0,.726-.726V194.3a.726.726,0,0,0-.726-.726h-2.16a.775.775,0,0,0-.268.05,4.993,4.993,0,0,0-1.18.631l-2.337-3.7h1.607a.726.726,0,0,0,.726-.731v-2.056a.726.726,0,0,0-.726-.726h-2.07a.777.777,0,0,0-.268.05,4.945,4.945,0,0,0-1.094.576l-1.992-3.154a.7.7,0,0,0-.34-.286l-3.957-1.588a.735.735,0,0,0-.762.136.722.722,0,0,0-.2.744l4.738,16.043H324.9a.8.8,0,0,0-.145,0c-.045,0-.84.172-1.815.454l-2.882-5.582a.731.731,0,0,0-.649-.395H316.69a.726.726,0,0,0-.572.277.744.744,0,0,0-.136.622l1.716,7.107h-.949a.726.726,0,0,0,0,1.452h.93l-1.7,7.035a.735.735,0,0,0,.136.617.726.726,0,0,0,.572.277h2.723a.731.731,0,0,0,.649-.395l2.809-5.482c1.03.25,1.874.377,1.92.386h13.257l-4.729,16.016a.726.726,0,0,0,.2.744.735.735,0,0,0,.49.186.821.821,0,0,0,.272-.05l3.957-1.588a.749.749,0,0,0,.34-.286l1.992-3.154a4.928,4.928,0,0,0,1.094.572.69.69,0,0,0,.268.054H344a.726.726,0,0,0,.726-.731v-2.065a.726.726,0,0,0-.726-.726H342.4l2.337-3.7a5.182,5.182,0,0,0,1.2.617.775.775,0,0,0,.268.05h2.16a.726.726,0,0,0,.726-.726v-2.165a.726.726,0,0,0-.726-.726H346.6l1.466-2.333h4.616a26.007,26.007,0,0,0,2.955-.654c2.31-.667,3.386-1.466,3.386-2.519C359.02,201.313,357.086,200.591,355.634,200.174Zm-.563,3.758a25.518,25.518,0,0,1-2.555.554H324.963c-.495-.077-.967-.163-1.4-.263l.372-.726h.84a.726.726,0,0,0,0-1.452h-.8l-.363-.713c.654-.177,1.189-.3,1.362-.336h27.535a22.527,22.527,0,0,1,2.723.576c1.893.545,2.315,1.057,2.333,1.185C357.535,202.811,357.227,203.328,355.071,203.932Zm-11.8,12.426v.617h-1.2a4.131,4.131,0,0,1-.549-.286,5.319,5.319,0,0,1,.572-.331Zm-5.555,3.236,7.965-13.674h.663Zm6.762-13.674L335.946,220.6l-.8.322,4.434-15Zm-23.023-.785-2.473,4.82H317.6l1.48-6.131.086-.345H322.3l-.177.345-.331.654Zm-2.473-9.653,2.551,4.992.336.649.331.654.141.272h-3.177l-.009-.213-1.539-6.354Zm18.508-10.025,8.877,14.069h-.708l-8.2-14.069Zm5.8,3v.617h-1.18a4.137,4.137,0,0,1-.572-.331,4.745,4.745,0,0,1,.549-.286Zm-7.4-3.631,8.564,14.718h-4.879l-4.439-15.018Zm11.736,10.2v.708h-1.275a4.929,4.929,0,0,1-.644-.381,6.12,6.12,0,0,1,.626-.327Zm-1.271,14.7h1.271v.708h-1.293a4.4,4.4,0,0,1-.622-.327,4.836,4.836,0,0,1,.644-.39Z" transform="translate(594.73 1652.454)" fill="#050505"/>
    </g>
  </g>
</svg>
