<svg xmlns="http://www.w3.org/2000/svg" width="651.234" height="670.839" viewBox="0 0 651.234 670.839">
  <g id="Grupo_1084127" data-name="Grupo 1084127" transform="translate(-496 -4653.536)">
    <circle id="Elipse_4877" data-name="Elipse 4877" cx="210" cy="210" r="210" transform="translate(593 4834.956)" fill="#e8e8e8"/>
    <g id="Grupo_84785" data-name="Grupo 84785" transform="matrix(0.891, 0.454, -0.454, 0.891, 753.398, 4653.536)">
      <g id="Grupo_84782" data-name="Grupo 84782" transform="translate(21.232 20.333)">
        <path id="Trazado_118723" data-name="Trazado 118723" d="M-668.514-465.652a77.58,77.58,0,0,1,77.49,77.493,77.578,77.578,0,0,1-77.49,77.491,77.579,77.579,0,0,1-77.492-77.491A77.58,77.58,0,0,1-668.514-465.652Zm0,152.55a75.142,75.142,0,0,0,75.057-75.057,75.143,75.143,0,0,0-75.057-75.06,75.144,75.144,0,0,0-75.059,75.06A75.143,75.143,0,0,0-668.514-313.1Z" transform="translate(746.006 465.652)" fill="#204623"/>
      </g>
      <g id="Grupo_84784" data-name="Grupo 84784" opacity="0.76">
        <g id="Grupo_84783" data-name="Grupo 84783">
          <path id="Trazado_118724" data-name="Trazado 118724" d="M-763.459-383.613h99.805l58.842-79.051a98.855,98.855,0,0,0-59.374-19.7A99.28,99.28,0,0,0-763.459-383.613Z" transform="translate(763.459 482.366)" fill="#ffa686"/>
        </g>
      </g>
      <g id="Grupo_84781" data-name="Grupo 84781" transform="translate(42.392 40.477)">
        <circle id="Elipse_4873" data-name="Elipse 4873" cx="56.992" cy="56.992" r="56.992" fill="#ffa686"/>
      </g>
    </g>
    <g id="Grupo_84790" data-name="Grupo 84790" transform="matrix(0.574, 0.819, -0.819, 0.574, 1046.161, 4868.971)">
      <g id="Grupo_84787" data-name="Grupo 84787" transform="translate(0 20.333)">
        <path id="Trazado_118725" data-name="Trazado 118725" d="M-413.411-388.159a77.579,77.579,0,0,1-77.49,77.491,77.579,77.579,0,0,1-77.492-77.491A77.58,77.58,0,0,1-490.9-465.652,77.58,77.58,0,0,1-413.411-388.159Zm-2.433,0a75.143,75.143,0,0,0-75.057-75.06,75.144,75.144,0,0,0-75.059,75.06A75.143,75.143,0,0,0-490.9-313.1,75.142,75.142,0,0,0-415.844-388.159Z" transform="translate(568.393 465.652)" fill="#204623"/>
      </g>
      <g id="Grupo_84789" data-name="Grupo 84789" transform="translate(17.568)">
        <g id="Grupo_84788" data-name="Grupo 84788" opacity="0.83">
          <path id="Trazado_118726" data-name="Trazado 118726" d="M-395.306-383.613h-99.8l-58.842-79.051a98.849,98.849,0,0,1,59.373-19.7A99.28,99.28,0,0,1-395.306-383.613Z" transform="translate(553.952 482.366)" fill="#ffa686"/>
        </g>
      </g>
      <g id="Grupo_84786" data-name="Grupo 84786" transform="translate(19.839 40.477)">
        <circle id="Elipse_4874" data-name="Elipse 4874" cx="56.992" cy="56.992" r="56.992" fill="#ffa686"/>
      </g>
    </g>
    <g id="Grupo_84795" data-name="Grupo 84795" transform="matrix(0.105, 0.995, -0.995, 0.105, 877.872, 5131.811)">
      <g id="Grupo_84792" data-name="Grupo 84792" transform="translate(0 7.538)">
        <path id="Trazado_118727" data-name="Trazado 118727" d="M-334.949-236.684a77.579,77.579,0,0,1-77.49,77.491,77.579,77.579,0,0,1-77.492-77.491,77.579,77.579,0,0,1,77.492-77.492A77.579,77.579,0,0,1-334.949-236.684Zm-2.433,0a75.143,75.143,0,0,0-75.057-75.059A75.144,75.144,0,0,0-487.5-236.684a75.143,75.143,0,0,0,75.059,75.057A75.142,75.142,0,0,0-337.382-236.684Z" transform="translate(489.931 314.176)" fill="#204623"/>
      </g>
      <g id="Grupo_84794" data-name="Grupo 84794" transform="translate(75.987)">
        <g id="Grupo_84793" data-name="Grupo 84793" opacity="0.82">
          <path id="Trazado_118728" data-name="Trazado 118728" d="M-387.676-143.362l-39.793-91.529,49.036-85.481a98.842,98.842,0,0,1,41.74,46.594A99.28,99.28,0,0,1-387.676-143.362Z" transform="translate(427.469 320.372)" fill="#ffa686"/>
        </g>
      </g>
      <g id="Grupo_84791" data-name="Grupo 84791" transform="translate(19.84 27.681)">
        <circle id="Elipse_4875" data-name="Elipse 4875" cx="56.992" cy="56.992" r="56.992" fill="#ffa686"/>
      </g>
    </g>
    <g id="Grupo_84800" data-name="Grupo 84800" transform="translate(496 4893.764)">
      <g id="Grupo_84797" data-name="Grupo 84797" transform="translate(20.037 14.489)">
        <path id="Trazado_118729" data-name="Trazado 118729" d="M-831.018-242.717a77.579,77.579,0,0,1,77.492-77.49,77.579,77.579,0,0,1,77.492,77.49,77.581,77.581,0,0,1-77.492,77.493A77.58,77.58,0,0,1-831.018-242.717Zm2.433,0a75.144,75.144,0,0,0,75.059,75.06,75.144,75.144,0,0,0,75.059-75.06,75.143,75.143,0,0,0-75.059-75.057A75.143,75.143,0,0,0-828.585-242.717Z" transform="translate(831.018 320.207)" fill="#0b481e"/>
      </g>
      <g id="Grupo_84799" data-name="Grupo 84799">
        <g id="Grupo_84798" data-name="Grupo 84798" opacity="0.82">
          <path id="Trazado_118730" data-name="Trazado 118730" d="M-788.248-332.117l39.792,91.529-49.035,85.481A98.851,98.851,0,0,1-839.233-201.7,99.281,99.281,0,0,1-788.248-332.117Z" transform="translate(847.489 332.117)" fill="#ffa686"/>
        </g>
      </g>
      <g id="Grupo_84796" data-name="Grupo 84796" transform="translate(41.197 35.346)">
        <circle id="Elipse_4876" data-name="Elipse 4876" cx="56.992" cy="56.992" r="56.992" fill="#ffa686"/>
      </g>
    </g>
    <g id="area_de_servicios" data-name="area de servicios" transform="translate(762 4749.981)">
      <path id="Trazado_716803" data-name="Trazado 716803" d="M319.74,419c4.52,13-3.31,18.33-13.23,24.52-10.26,6.4-17.6,5.8-27.88,0-10.63-6-14.48-12.51-14.36-24.8.11-11.87,3.39-18.29,13.92-24.38,10.85-6.28,18.41-6.24,29.08.16C317.49,400.64,323.65,406.63,319.74,419Zm-2.9,0c3.86-11.49-2.59-16.6-11.7-22.15s-15.84-5.33-25.09.05-12.66,10.84-12.66,21.65,3.18,16.82,12.78,22.32c9.37,5.37,16,5.5,25.07-.18C313.9,435.29,320.94,430.6,316.84,419Z" transform="translate(-257.5 -384.28)"/>
      <path id="Trazado_716804" data-name="Trazado 716804" d="M305.14,396.85Zm.24,16.15-11.49-8.29-11.35,3-4.14,7.74,1.45-.38q.78,9.18,1.56,18.32h22.84C304.61,427,305,420.85,305.38,413Z" transform="translate(-257.5 -384.28)" fill="#fff"/>
      <path id="Trazado_716805" data-name="Trazado 716805" d="M305.38,413c-.43,7.82-.77,13.93-1.13,20.39H281.41q-.78-9.14-1.56-18.32l-1.45.38,4.14-7.74,11.35-3Z" transform="translate(-257.5 -384.28)"/>
    </g>
    <text id="_03" data-name="03" transform="translate(803 5287.956)" fill="#12263f" font-size="18" font-family="Roboto-Bold, Roboto" font-weight="700"><tspan x="6" y="19">03</tspan></text>
    <text id="_04" data-name="04" transform="translate(510 4956.956)" fill="#12263f" font-size="18" font-family="Roboto-Bold, Roboto" font-weight="700"><tspan x="6" y="19">04</tspan></text>
    <text id="_02" data-name="02" transform="translate(1069 4956.956)" fill="#12263f" font-size="18" font-family="Roboto-Bold, Roboto" font-weight="700"><tspan x="6" y="19">02</tspan></text>
    <text id="_01" data-name="01" transform="translate(790 4695.956)" fill="#12263f" font-size="18" font-family="Roboto-Bold, Roboto" font-weight="700"><tspan x="6" y="19">01</tspan></text>
    <text id="Áreas_destinadas_para_logística_del_proceso" data-name="Áreas destinadas para logística del proceso" transform="translate(701 4977)" fill="#707070" font-size="16" font-family="Roboto-Bold, Roboto" font-weight="700"><tspan x="19.156" y="17">Áreas destinadas para </tspan><tspan x="24.824" y="38">logística del proceso</tspan></text>
    <g id="compostera" transform="translate(983.383 4969.223)">
      <path id="Trazado_716799" data-name="Trazado 716799" d="M271.17,393.55h40.32V437.9H271.17Z" transform="translate(-260.993 -382.696)"/>
      <path id="Trazado_716800" data-name="Trazado 716800" d="M291.737,384.89c5.76,0,11.462-.148,17.173.132,1.218.058,2.362,1.687,3.538,2.592-1.226.823-2.469,2.469-3.67,2.469q-17.453.288-34.9,0c-1.3,0-2.567-1.531-3.851-2.353,1.325-.938,2.617-2.633,3.991-2.7C279.88,384.717,285.829,384.89,291.737,384.89Z" transform="translate(-260.791 -381.154)"/>
      <path id="Trazado_716801" data-name="Trazado 716801" d="M291.405,454.835c-5.7,0-11.413.173-17.1-.115-1.456-.074-2.831-1.6-4.246-2.469,1.317-.93,2.617-2.65,3.942-2.674q17.379-.3,34.758,0c1.251,0,2.469,1.572,3.719,2.411-1.325.946-2.6,2.641-3.966,2.715C302.785,455.016,297.075,454.835,291.405,454.835Z" transform="translate(-260.796 -392.594)"/>
    </g>
    <g id="Bodega" transform="translate(763.692 5201.074)">
      <path id="Trazado_716791" data-name="Trazado 716791" d="M252.091,425.374a32.059,32.059,0,0,0,0-4.1c-.644-5,.2-8.945,5.971-10.352,2.268-.553,4.648-3.017,6.454-2.555a24.415,24.415,0,0,1,9.617,5.152c1.281,1.106,1.106,4.158,1.183,6.349.154,4.7,0,9.421.056,14.139.035,2.835-1.169,4.2-4.088,4.158-5.019-.07-10.037-.056-15.056,0-2.842,0-4.2-1.2-4.123-4.116S252.1,428.265,252.091,425.374Zm11.724-13.635c-5.992-.378-10.037,2.023-10.289,5.985h10.289Zm2.044-.7V417.7h8.588c-.952-4.907-4.977-4.7-8.588-6.678Z" transform="translate(-250.361 -394.205)"/>
      <path id="Trazado_716792" data-name="Trazado 716792" d="M296.913,407.69l-4.242-1.106c-.469-6-1.211-11.9,3.5-16.8,2.184-2.268,3.913-2.24,6.1,0,4.3,4.431,4.438,9.9,3.682,15.357-.168,1.218-3.038,2.065-4.2,2.8,0,6.433.14,12.886-.112,19.326-.049,1.3-1.589,2.555-2.436,3.829-.756-1.176-2.1-2.338-2.17-3.535C296.8,421.13,296.913,414.627,296.913,407.69Z" transform="translate(-262.487 -388.14)"/>
      <path id="Trazado_716793" data-name="Trazado 716793" d="M342.737,394.39c7.644,3.5,4.382,9.694,4.725,14.972.364,5.439-2.163,10.933,1.057,16.407,1.568,2.667.2,5.985-3.01,7.063s-4.3-1.8-4.823-4.123C338.069,417.125,339.391,405.771,342.737,394.39Z" transform="translate(-276.582 -390.029)"/>
      <path id="Trazado_716794" data-name="Trazado 716794" d="M320.963,407.883c-4.088-2.989-5.278-8.2-2.1-16.372l.987,13.1h1.771q.525-6.622,1.057-13.264l1.3.077.8,12.921,1.5.238c2.5-3.871-.182-9.008,1.862-13.3,3.066,6.783,1.61,13.509-2.415,16.568,0,7.9.07,14.937-.1,21.965a2.994,2.994,0,0,1-2.135,2.135c-.8.035-2.415-1.1-2.429-1.75C320.9,423.135,320.963,416.065,320.963,407.883Z" transform="translate(-269.906 -389.096)"/>
      <path id="Trazado_716795" data-name="Trazado 716795" d="M255.62,401.838c.168-3.262.21-5.971-4.2-5.7-.567,0-1.7-1.351-1.68-2.058a2.758,2.758,0,0,1,1.792-2.009,121.774,121.774,0,0,1,16.1-.952c1.323.049,2.541,2.968,3.577,4.263l-6.916,5.789h-3.969l-1.183-4.48Z" transform="translate(-249.71 -389.036)"/>
      <path id="Trazado_716796" data-name="Trazado 716796" d="M264.509,413.193v5.985H254.22C254.472,415.216,258.518,412.815,264.509,413.193Z" transform="translate(-251.054 -395.659)" fill="#fff"/>
      <path id="Trazado_716797" data-name="Trazado 716797" d="M271.84,412.18c3.6,1.988,7.637,1.771,8.588,6.657H271.84Z" transform="translate(-256.341 -395.367)" fill="#fff"/>
    </g>
    <path id="cuarentena" d="M250.285,337.722c5.095-3.527,5.749-4.66,4.891-8.881-2.022,1.45-3.943,3.919-5.792,3.856-2.03-.055-4-2.422-6.271-3.962-.282,5.487,2.159,8.23,7.29,8.877-5.518,1.27-11.06,3.606-16.3.5,1.92-3.112,3.461-5.612,5-8.117-.321-.823-.647-1.65-.968-2.477-4.362,7.223-8.591,4.9-12.8.941l-1.031,1.4c1.654,2.614,3.3,5.232,5.581,8.838l-9.237,1.066c-1.176-11.667-.533-22.167,7.54-30.961-10.444,8.708-10.335,20.274-9.465,32.631h53.3c12.827.039,12.827.039,12.134-12.757-1-18.9-19.2-33.7-37.812-30.213-6.271,1.176-12.377,2.449-18.757,1.693-.106,0-.266.423-.439.709,7.54,3.073,14.861.118,22.911-1.415l-3.417,4.581h8.74l-3.308-3.994c19.059-.753,34.915,20.532,29.248,39.665l-10.711-1.1,5.24-8.685c-6.114,1.34-7.862,1.348-14.473.078l5.326,8.23C261.357,339.513,255.843,339.858,250.285,337.722Zm23.307-10.813-.141-1.74c-2.265-.741-4.5-1.83-6.815-2.01-.717-.055-2.6,2.877-2.253,3.527.9,1.7,2.845,4.088,4.209,3.986C270.343,330.558,271.931,328.265,273.592,326.909ZM243.478,326c2.5,2.061,4.272,4.664,6,4.632s3.308-2.767,5.3-4.632Zm8.2-19.059-4.009-.392c.952,4.444,1.83,8.528,2.708,12.612l1.3-.2Zm-19.842,25.29,4.754-6.161h-9.939Zm15.676-21.273c-4.28,3.069-4.762,5.9-1.368,8.908.466-3.049.9-5.875,1.364-8.908Z" transform="translate(347.25 4669.562)" fill="#020202"/>
  </g>
</svg>
