<svg xmlns="http://www.w3.org/2000/svg" xmlns:xlink="http://www.w3.org/1999/xlink" width="678.234" height="691.464" viewBox="0 0 678.234 691.464">
  <defs>
    <filter id="Trazado_501624" x="297.27" y="8.652" width="57" height="57" filterUnits="userSpaceOnUse">
      <feOffset dy="3" input="SourceAlpha"/>
      <feGaussianBlur stdDeviation="3" result="blur"/>
      <feFlood flood-opacity="0.161"/>
      <feComposite operator="in" in2="blur"/>
      <feComposite in="SourceGraphic"/>
    </filter>
    <filter id="Trazado_501624-2" x="609.27" y="318.481" width="57" height="57" filterUnits="userSpaceOnUse">
      <feOffset dy="3" input="SourceAlpha"/>
      <feGaussianBlur stdDeviation="3" result="blur-2"/>
      <feFlood flood-opacity="0.161"/>
      <feComposite operator="in" in2="blur-2"/>
      <feComposite in="SourceGraphic"/>
    </filter>
    <filter id="Trazado_501624-3" x="305" y="634.464" width="57" height="57" filterUnits="userSpaceOnUse">
      <feOffset dy="3" input="SourceAlpha"/>
      <feGaussianBlur stdDeviation="3" result="blur-3"/>
      <feFlood flood-opacity="0.161"/>
      <feComposite operator="in" in2="blur-3"/>
      <feComposite in="SourceGraphic"/>
    </filter>
    <filter id="Trazado_501624-4" x="0" y="326.977" width="57" height="57" filterUnits="userSpaceOnUse">
      <feOffset dy="3" input="SourceAlpha"/>
      <feGaussianBlur stdDeviation="3" result="blur-4"/>
      <feFlood flood-opacity="0.161"/>
      <feComposite operator="in" in2="blur-4"/>
      <feComposite in="SourceGraphic"/>
    </filter>
  </defs>
  <g id="Grupo_1084157" data-name="Grupo 1084157" transform="translate(-469 -4672.536)">
    <g id="Grupo_1084156" data-name="Grupo 1084156">
      <path id="Trazado_716906" data-name="Trazado 716906" d="M210,0C325.98,0,420,94.02,420,210S325.98,420,210,420,0,325.98,0,210,94.02,0,210,0Z" transform="translate(593 4844.956)" fill="#e8e8e8"/>
      <g id="Grupo_84784" data-name="Grupo 84784" transform="matrix(0.891, 0.454, -0.454, 0.891, 753.398, 4672.536)" opacity="0.76">
        <g id="Grupo_84783" data-name="Grupo 84783">
          <path id="Trazado_118724" data-name="Trazado 118724" d="M-763.459-383.613h99.805l58.842-79.051a98.855,98.855,0,0,0-59.374-19.7A99.28,99.28,0,0,0-763.459-383.613Z" transform="translate(763.459 482.366)" fill="#ffa686"/>
        </g>
      </g>
      <g id="Grupo_84781" data-name="Grupo 84781" transform="matrix(0.891, 0.454, -0.454, 0.891, 772.794, 4729.847)">
        <circle id="Elipse_4873" data-name="Elipse 4873" cx="56.992" cy="56.992" r="56.992" fill="#ffd947"/>
      </g>
      <g id="Grupo_84794" data-name="Grupo 84794" transform="matrix(0.105, 0.995, -0.995, 0.105, 885.815, 5227.382)">
        <g id="Grupo_84793" data-name="Grupo 84793" opacity="0.82">
          <path id="Trazado_118728" data-name="Trazado 118728" d="M-387.676-143.362l-39.793-91.529,49.036-85.481a98.842,98.842,0,0,1,41.74,46.594A99.28,99.28,0,0,1-387.676-143.362Z" transform="translate(427.469 320.372)" fill="#ffa686"/>
        </g>
      </g>
      <g id="Grupo_84782" data-name="Grupo 84782" transform="matrix(0.891, 0.454, -0.454, 0.891, 763.085, 4700.292)">
        <path id="Trazado_118723" data-name="Trazado 118723" d="M-668.514-465.652a77.58,77.58,0,0,1,77.49,77.493,77.578,77.578,0,0,1-77.49,77.491,77.579,77.579,0,0,1-77.492-77.491A77.58,77.58,0,0,1-668.514-465.652Zm0,152.55a75.142,75.142,0,0,0,75.057-75.057,75.143,75.143,0,0,0-75.057-75.06,75.144,75.144,0,0,0-75.059,75.06A75.143,75.143,0,0,0-668.514-313.1Z" transform="translate(746.006 465.652)" fill="#204623"/>
      </g>
      <g id="Grupo_84791" data-name="Grupo 84791" transform="matrix(0.105, 0.995, -0.995, 0.105, 852.417, 5174.435)">
        <circle id="Elipse_4875" data-name="Elipse 4875" cx="56.992" cy="56.992" r="56.992" fill="#ffd947"/>
      </g>
      <g id="Grupo_84792" data-name="Grupo 84792" transform="matrix(0.105, 0.995, -0.995, 0.105, 870.376, 5152.599)">
        <path id="Trazado_118727" data-name="Trazado 118727" d="M-334.949-236.684a77.579,77.579,0,0,1-77.49,77.491,77.579,77.579,0,0,1-77.492-77.491,77.579,77.579,0,0,1,77.492-77.492A77.579,77.579,0,0,1-334.949-236.684Zm-2.433,0a75.143,75.143,0,0,0-75.057-75.059A75.144,75.144,0,0,0-487.5-236.684a75.143,75.143,0,0,0,75.059,75.057A75.142,75.142,0,0,0-337.382-236.684Z" transform="translate(489.931 314.176)" fill="#204623"/>
      </g>
      <g id="Grupo_84799" data-name="Grupo 84799" transform="translate(496 4933.764)">
        <g id="Grupo_84798" data-name="Grupo 84798" opacity="0.82">
          <path id="Trazado_118730" data-name="Trazado 118730" d="M-788.248-332.117l39.792,91.529-49.035,85.481A98.851,98.851,0,0,1-839.233-201.7,99.281,99.281,0,0,1-788.248-332.117Z" transform="translate(847.489 332.117)" fill="#ffa686"/>
        </g>
      </g>
      <g id="Grupo_84796" data-name="Grupo 84796" transform="translate(537.197 4969.11)">
        <circle id="Elipse_4876" data-name="Elipse 4876" cx="56.992" cy="56.992" r="56.992" fill="#ffd947"/>
      </g>
      <g id="Grupo_84797" data-name="Grupo 84797" transform="translate(516.037 4948.253)">
        <path id="Trazado_118729" data-name="Trazado 118729" d="M-831.018-242.717a77.579,77.579,0,0,1,77.492-77.49,77.579,77.579,0,0,1,77.492,77.49,77.581,77.581,0,0,1-77.492,77.493A77.58,77.58,0,0,1-831.018-242.717Zm2.433,0a75.144,75.144,0,0,0,75.059,75.06,75.144,75.144,0,0,0,75.059-75.06,75.143,75.143,0,0,0-75.059-75.057A75.143,75.143,0,0,0-828.585-242.717Z" transform="translate(831.018 320.207)" fill="#0b481e"/>
      </g>
      <path id="Trazado_716803" data-name="Trazado 716803" d="M319.74,419c4.52,13-3.31,18.33-13.23,24.52-10.26,6.4-17.6,5.8-27.88,0-10.63-6-14.48-12.51-14.36-24.8.11-11.87,3.39-18.29,13.92-24.38,10.85-6.28,18.41-6.24,29.08.16C317.49,400.64,323.65,406.63,319.74,419Zm-2.9,0c3.86-11.49-2.59-16.6-11.7-22.15s-15.84-5.33-25.09.05-12.66,10.84-12.66,21.65,3.18,16.82,12.78,22.32c9.37,5.37,16,5.5,25.07-.18C313.9,435.29,320.94,430.6,316.84,419Z" transform="translate(504.5 4387.702)"/>
      <path id="Trazado_716804" data-name="Trazado 716804" d="M305.14,396.85Zm.24,16.15-11.49-8.29-11.35,3-4.14,7.74,1.45-.38q.78,9.18,1.56,18.32h22.84C304.61,427,305,420.85,305.38,413Z" transform="translate(504.5 4387.702)" fill="#fff"/>
      <path id="Trazado_716805" data-name="Trazado 716805" d="M305.38,413c-.43,7.82-.77,13.93-1.13,20.39H281.41q-.78-9.14-1.56-18.32l-1.45.38,4.14-7.74,11.35-3Z" transform="translate(504.5 4387.702)"/>
      <g id="Grupo_84789" data-name="Grupo 84789" transform="matrix(0.574, 0.819, -0.819, 0.574, 1056.238, 4918.361)">
        <g id="Grupo_84788" data-name="Grupo 84788" opacity="0.83">
          <path id="Trazado_118726" data-name="Trazado 118726" d="M-395.306-383.613h-99.8l-58.842-79.051a98.849,98.849,0,0,1,59.373-19.7A99.28,99.28,0,0,1-395.306-383.613Z" transform="translate(553.952 482.366)" fill="#ffa686"/>
        </g>
      </g>
      <g id="Grupo_84786" data-name="Grupo 84786" transform="matrix(0.574, 0.819, -0.819, 0.574, 1024.384, 4943.438)">
        <circle id="Elipse_4874" data-name="Elipse 4874" cx="56.992" cy="56.992" r="56.992" fill="#ffd947"/>
      </g>
      <g id="Grupo_84787" data-name="Grupo 84787" transform="matrix(0.574, 0.819, -0.819, 0.574, 1029.505, 4915.633)">
        <path id="Trazado_118725" data-name="Trazado 118725" d="M-413.411-388.159a77.579,77.579,0,0,1-77.49,77.491,77.579,77.579,0,0,1-77.492-77.491A77.58,77.58,0,0,1-490.9-465.652,77.58,77.58,0,0,1-413.411-388.159Zm-2.433,0a75.143,75.143,0,0,0-75.057-75.06,75.144,75.144,0,0,0-75.059,75.06A75.143,75.143,0,0,0-490.9-313.1,75.142,75.142,0,0,0-415.844-388.159Z" transform="translate(568.393 465.652)" fill="#204623"/>
      </g>
      <path id="Trazado_716907" data-name="Trazado 716907" d="M17.156,13.709a6.483,6.483,0,0,1-1.1,4.061,3.835,3.835,0,0,1-3.217,1.406,3.862,3.862,0,0,1-3.2-1.38,6.293,6.293,0,0,1-1.134-3.955V11.485A6.4,6.4,0,0,1,9.62,7.416a3.864,3.864,0,0,1,3.2-1.389,3.867,3.867,0,0,1,3.2,1.375,6.273,6.273,0,0,1,1.134,3.951Zm-2.54-2.59A4.686,4.686,0,0,0,14.181,8.8a1.47,1.47,0,0,0-1.358-.726,1.444,1.444,0,0,0-1.323.691,4.385,4.385,0,0,0-.453,2.16V14.04a4.919,4.919,0,0,0,.426,2.327,1.451,1.451,0,0,0,1.367.761,1.426,1.426,0,0,0,1.345-.73,4.8,4.8,0,0,0,.431-2.235ZM25.04,19H22.5V9.209l-3.032.94V8.084l5.3-1.9h.272Z" transform="translate(785 4800.956)" fill="#12263f"/>
      <g transform="matrix(1, 0, 0, 1, 469, 4672.54)" filter="url(#Trazado_501624)">
        <path id="Trazado_501624-5" data-name="Trazado 501624" d="M19.5,0A19.5,19.5,0,1,1,0,19.5,19.5,19.5,0,0,1,19.5,0Z" transform="translate(345.27 53.65) rotate(180)" fill="#ffd947"/>
      </g>
      <path id="Trazado_716912" data-name="Trazado 716912" d="M10.205-5.52A6.45,6.45,0,0,1,8.976-1.3,4.248,4.248,0,0,1,5.511.186,4.271,4.271,0,0,1,2.022-1.308,6.44,6.44,0,0,1,.789-5.52V-7.988a6.45,6.45,0,0,1,1.229-4.221,4.258,4.258,0,0,1,3.474-1.484A4.26,4.26,0,0,1,8.971-12.2a6.456,6.456,0,0,1,1.234,4.221ZM7.079-8.387a4.818,4.818,0,0,0-.38-2.176,1.271,1.271,0,0,0-1.206-.719,1.241,1.241,0,0,0-1.174.668,4.538,4.538,0,0,0-.394,2.022V-5.14A4.854,4.854,0,0,0,4.3-2.927a1.276,1.276,0,0,0,1.206.7,1.259,1.259,0,0,0,1.178-.682,4.634,4.634,0,0,0,.39-2.138ZM18.759,0H15.623V-9.982l-3.08.9v-2.375l5.928-2.05h.288Z" transform="translate(784.77 4713.688)" fill="#12263f"/>
      <path id="Trazado_716909" data-name="Trazado 716909" d="M26.594,14.656H22.484L21.7,17H19.211L23.445,5.625h2.172L29.875,17H27.383Zm-3.477-1.9h2.844L24.531,8.5Zm1.9-10.18h2.461L25.313,5H23.477Zm10.523,8.086a6.134,6.134,0,0,0-.812-.062,1.654,1.654,0,0,0-1.68.867V17H30.789V8.547h2.133l.063,1.008a2.092,2.092,0,0,1,1.883-1.164,2.366,2.366,0,0,1,.7.1Zm4.977,6.492a4.15,4.15,0,0,1-3.027-1.141,4.054,4.054,0,0,1-1.168-3.039v-.219a5.106,5.106,0,0,1,.492-2.277,3.612,3.612,0,0,1,1.395-1.547,3.914,3.914,0,0,1,2.059-.543A3.508,3.508,0,0,1,43,9.484a4.444,4.444,0,0,1,1,3.1v.922H38.609a2.1,2.1,0,0,0,.66,1.328,2,2,0,0,0,1.395.5,2.437,2.437,0,0,0,2.039-.945l1.109,1.242a3.389,3.389,0,0,1-1.375,1.121A4.511,4.511,0,0,1,40.516,17.156Zm-.258-6.945a1.411,1.411,0,0,0-1.09.455,2.357,2.357,0,0,0-.535,1.3h3.141v-.181a1.681,1.681,0,0,0-.406-1.165A1.456,1.456,0,0,0,40.258,10.211ZM50.172,17a2.507,2.507,0,0,1-.227-.758,2.732,2.732,0,0,1-2.133.914,3,3,0,0,1-2.059-.719,2.312,2.312,0,0,1-.816-1.812,2.389,2.389,0,0,1,1-2.062,4.915,4.915,0,0,1,2.879-.727h1.039v-.484a1.393,1.393,0,0,0-.3-.937,1.183,1.183,0,0,0-.949-.352,1.345,1.345,0,0,0-.895.273.929.929,0,0,0-.324.75H45.125a2.268,2.268,0,0,1,.453-1.359,3,3,0,0,1,1.281-.98,4.669,4.669,0,0,1,1.859-.355,3.689,3.689,0,0,1,2.48.785,2.747,2.747,0,0,1,.918,2.207v3.664a4.041,4.041,0,0,0,.336,1.82V17ZM48.3,15.43a1.945,1.945,0,0,0,.922-.223,1.462,1.462,0,0,0,.625-.6V13.156h-.844q-1.7,0-1.8,1.172l-.008.133a.9.9,0,0,0,.3.7A1.153,1.153,0,0,0,48.3,15.43Zm10.125-.766a.727.727,0,0,0-.41-.652,4.659,4.659,0,0,0-1.316-.426q-3.016-.633-3.016-2.562a2.323,2.323,0,0,1,.934-1.879,3.766,3.766,0,0,1,2.441-.754,4.053,4.053,0,0,1,2.574.758,2.388,2.388,0,0,1,.965,1.969H58.344a1.092,1.092,0,0,0-.312-.8A1.322,1.322,0,0,0,57.055,10a1.351,1.351,0,0,0-.883.258.814.814,0,0,0-.312.656.7.7,0,0,0,.355.605,3.657,3.657,0,0,0,1.2.4,9.8,9.8,0,0,1,1.422.379,2.336,2.336,0,0,1,1.789,2.273,2.2,2.2,0,0,1-.992,1.871,4.28,4.28,0,0,1-2.562.715,4.47,4.47,0,0,1-1.887-.379,3.166,3.166,0,0,1-1.293-1.039,2.414,2.414,0,0,1-.469-1.426h2.141a1.179,1.179,0,0,0,.445.922,1.766,1.766,0,0,0,1.109.32,1.635,1.635,0,0,0,.98-.246A.766.766,0,0,0,58.43,14.664Zm7.281-1.953A5.094,5.094,0,0,1,66.6,9.563a2.877,2.877,0,0,1,2.426-1.172,2.589,2.589,0,0,1,2.039.922V5h2.266V17H71.289l-.109-.9a2.657,2.657,0,0,1-2.172,1.055,2.869,2.869,0,0,1-2.395-1.176A5.258,5.258,0,0,1,65.711,12.711Zm2.258.168a3.337,3.337,0,0,0,.414,1.823,1.349,1.349,0,0,0,1.2.634,1.511,1.511,0,0,0,1.477-.884V11.111a1.489,1.489,0,0,0-1.461-.884Q67.969,10.227,67.969,12.879Zm11,4.277a4.15,4.15,0,0,1-3.027-1.141,4.054,4.054,0,0,1-1.168-3.039v-.219a5.106,5.106,0,0,1,.492-2.277A3.612,3.612,0,0,1,76.66,8.934a3.914,3.914,0,0,1,2.059-.543,3.508,3.508,0,0,1,2.73,1.094,4.444,4.444,0,0,1,1,3.1v.922H77.063a2.1,2.1,0,0,0,.66,1.328,2,2,0,0,0,1.395.5,2.437,2.437,0,0,0,2.039-.945l1.109,1.242a3.389,3.389,0,0,1-1.375,1.121A4.511,4.511,0,0,1,78.969,17.156Zm-.258-6.945a1.411,1.411,0,0,0-1.09.455,2.357,2.357,0,0,0-.535,1.3h3.141v-.181a1.681,1.681,0,0,0-.406-1.165A1.456,1.456,0,0,0,78.711,10.211ZM88.3,14.664a.727.727,0,0,0-.41-.652,4.659,4.659,0,0,0-1.316-.426q-3.016-.633-3.016-2.562A2.323,2.323,0,0,1,84.5,9.145a3.766,3.766,0,0,1,2.441-.754,4.053,4.053,0,0,1,2.574.758,2.388,2.388,0,0,1,.965,1.969H88.219a1.092,1.092,0,0,0-.312-.8A1.322,1.322,0,0,0,86.93,10a1.351,1.351,0,0,0-.883.258.814.814,0,0,0-.312.656.7.7,0,0,0,.355.605,3.657,3.657,0,0,0,1.2.4,9.8,9.8,0,0,1,1.422.379A2.336,2.336,0,0,1,90.5,14.57a2.2,2.2,0,0,1-.992,1.871,4.28,4.28,0,0,1-2.562.715,4.47,4.47,0,0,1-1.887-.379,3.166,3.166,0,0,1-1.293-1.039,2.414,2.414,0,0,1-.469-1.426h2.141a1.179,1.179,0,0,0,.445.922,1.766,1.766,0,0,0,1.109.32,1.635,1.635,0,0,0,.98-.246A.766.766,0,0,0,88.3,14.664Zm6.352-8.2V8.547H96.1V10.2H94.656v4.219a1.007,1.007,0,0,0,.18.672.9.9,0,0,0,.688.2,3.6,3.6,0,0,0,.664-.055v1.711a4.648,4.648,0,0,1-1.367.2,2.156,2.156,0,0,1-2.422-2.4V10.2H91.164V8.547H92.4V6.469ZM99.742,17H97.477V8.547h2.266Zm-2.4-10.641a1.112,1.112,0,0,1,.34-.836,1.465,1.465,0,0,1,1.848,0,1.105,1.105,0,0,1,.344.836,1.108,1.108,0,0,1-.348.844,1.448,1.448,0,0,1-1.836,0A1.108,1.108,0,0,1,97.344,6.359Zm6.336,2.188.07.977a2.951,2.951,0,0,1,2.43-1.133,2.453,2.453,0,0,1,2,.789,3.682,3.682,0,0,1,.672,2.359V17h-2.258V11.594a1.465,1.465,0,0,0-.312-1.043,1.4,1.4,0,0,0-1.039-.324,1.553,1.553,0,0,0-1.43.813V17h-2.258V8.547ZM115.461,17a2.507,2.507,0,0,1-.227-.758,2.732,2.732,0,0,1-2.133.914,3,3,0,0,1-2.059-.719,2.312,2.312,0,0,1-.816-1.812,2.389,2.389,0,0,1,1-2.062,4.915,4.915,0,0,1,2.879-.727h1.039v-.484a1.393,1.393,0,0,0-.3-.937,1.183,1.183,0,0,0-.949-.352,1.345,1.345,0,0,0-.895.273.929.929,0,0,0-.324.75h-2.258a2.268,2.268,0,0,1,.453-1.359,3,3,0,0,1,1.281-.98,4.669,4.669,0,0,1,1.859-.355,3.689,3.689,0,0,1,2.48.785,2.747,2.747,0,0,1,.918,2.207v3.664a4.041,4.041,0,0,0,.336,1.82V17Zm-1.867-1.57a1.945,1.945,0,0,0,.922-.223,1.462,1.462,0,0,0,.625-.6V13.156H114.3q-1.7,0-1.8,1.172l-.008.133a.9.9,0,0,0,.3.7A1.153,1.153,0,0,0,113.594,15.43Zm5.2-2.719a5.094,5.094,0,0,1,.887-3.148A2.877,2.877,0,0,1,122.1,8.391a2.589,2.589,0,0,1,2.039.922V5h2.266V17h-2.039l-.109-.9a2.657,2.657,0,0,1-2.172,1.055,2.869,2.869,0,0,1-2.395-1.176A5.258,5.258,0,0,1,118.789,12.711Zm2.258.168a3.337,3.337,0,0,0,.414,1.823,1.349,1.349,0,0,0,1.2.634,1.511,1.511,0,0,0,1.477-.884V11.111a1.489,1.489,0,0,0-1.461-.884Q121.047,10.227,121.047,12.879ZM133.055,17a2.507,2.507,0,0,1-.227-.758,2.732,2.732,0,0,1-2.133.914,3,3,0,0,1-2.059-.719,2.312,2.312,0,0,1-.816-1.812,2.389,2.389,0,0,1,1-2.062,4.915,4.915,0,0,1,2.879-.727h1.039v-.484a1.393,1.393,0,0,0-.3-.937,1.183,1.183,0,0,0-.949-.352,1.345,1.345,0,0,0-.895.273.929.929,0,0,0-.324.75h-2.258a2.268,2.268,0,0,1,.453-1.359,3,3,0,0,1,1.281-.98,4.669,4.669,0,0,1,1.859-.355,3.689,3.689,0,0,1,2.48.785A2.747,2.747,0,0,1,135,11.383v3.664a4.041,4.041,0,0,0,.336,1.82V17Zm-1.867-1.57a1.945,1.945,0,0,0,.922-.223,1.462,1.462,0,0,0,.625-.6V13.156h-.844q-1.7,0-1.8,1.172l-.008.133a.9.9,0,0,0,.3.7A1.153,1.153,0,0,0,131.188,15.43Zm10.125-.766a.727.727,0,0,0-.41-.652,4.659,4.659,0,0,0-1.316-.426q-3.016-.633-3.016-2.562a2.323,2.323,0,0,1,.934-1.879,3.766,3.766,0,0,1,2.441-.754,4.053,4.053,0,0,1,2.574.758,2.388,2.388,0,0,1,.965,1.969h-2.258a1.092,1.092,0,0,0-.312-.8,1.322,1.322,0,0,0-.977-.316,1.351,1.351,0,0,0-.883.258.814.814,0,0,0-.312.656.7.7,0,0,0,.355.605,3.657,3.657,0,0,0,1.2.4,9.8,9.8,0,0,1,1.422.379,2.336,2.336,0,0,1,1.789,2.273,2.205,2.205,0,0,1-.992,1.871,4.28,4.28,0,0,1-2.562.715,4.47,4.47,0,0,1-1.887-.379,3.166,3.166,0,0,1-1.293-1.039,2.414,2.414,0,0,1-.469-1.426h2.141a1.179,1.179,0,0,0,.445.922,1.766,1.766,0,0,0,1.109.32,1.635,1.635,0,0,0,.98-.246A.766.766,0,0,0,141.313,14.664Zm15.242-1.812a5.07,5.07,0,0,1-.887,3.129,2.843,2.843,0,0,1-2.395,1.176,2.633,2.633,0,0,1-2.07-.891V20.25h-2.258V8.547h2.094l.078.828a2.654,2.654,0,0,1,2.141-.984,2.862,2.862,0,0,1,2.43,1.156,5.207,5.207,0,0,1,.867,3.188Zm-2.258-.164a3.327,3.327,0,0,0-.418-1.82,1.361,1.361,0,0,0-1.215-.641,1.479,1.479,0,0,0-1.461.813V14.5a1.5,1.5,0,0,0,1.477.836Q154.3,15.336,154.3,12.688ZM162.852,17a2.507,2.507,0,0,1-.227-.758,2.732,2.732,0,0,1-2.133.914,3,3,0,0,1-2.059-.719,2.312,2.312,0,0,1-.816-1.812,2.389,2.389,0,0,1,1-2.062,4.915,4.915,0,0,1,2.879-.727h1.039v-.484a1.393,1.393,0,0,0-.3-.937,1.183,1.183,0,0,0-.949-.352,1.345,1.345,0,0,0-.895.273.929.929,0,0,0-.324.75H157.8a2.268,2.268,0,0,1,.453-1.359,3,3,0,0,1,1.281-.98,4.669,4.669,0,0,1,1.859-.355,3.689,3.689,0,0,1,2.48.785,2.747,2.747,0,0,1,.918,2.207v3.664a4.041,4.041,0,0,0,.336,1.82V17Zm-1.867-1.57a1.945,1.945,0,0,0,.922-.223,1.462,1.462,0,0,0,.625-.6V13.156h-.844q-1.7,0-1.8,1.172l-.008.133a.9.9,0,0,0,.3.7A1.153,1.153,0,0,0,160.984,15.43Zm10.3-4.766a6.134,6.134,0,0,0-.812-.062,1.654,1.654,0,0,0-1.68.867V17h-2.258V8.547h2.133l.063,1.008a2.092,2.092,0,0,1,1.883-1.164,2.366,2.366,0,0,1,.7.1ZM177.031,17a2.507,2.507,0,0,1-.227-.758,2.732,2.732,0,0,1-2.133.914,3,3,0,0,1-2.059-.719,2.312,2.312,0,0,1-.816-1.812,2.389,2.389,0,0,1,1-2.062,4.915,4.915,0,0,1,2.879-.727h1.039v-.484a1.393,1.393,0,0,0-.3-.937,1.183,1.183,0,0,0-.949-.352,1.345,1.345,0,0,0-.895.273.929.929,0,0,0-.324.75h-2.258a2.268,2.268,0,0,1,.453-1.359,3,3,0,0,1,1.281-.98,4.669,4.669,0,0,1,1.859-.355,3.689,3.689,0,0,1,2.48.785,2.747,2.747,0,0,1,.918,2.207v3.664a4.041,4.041,0,0,0,.336,1.82V17Zm-1.867-1.57a1.945,1.945,0,0,0,.922-.223,1.462,1.462,0,0,0,.625-.6V13.156h-.844q-1.7,0-1.8,1.172l-.008.133a.9.9,0,0,0,.3.7A1.153,1.153,0,0,0,175.164,15.43ZM28.074,38H25.809V26h2.266Zm1.508-4.3a5.013,5.013,0,0,1,.484-2.242,3.546,3.546,0,0,1,1.395-1.523,4.069,4.069,0,0,1,2.113-.539,3.849,3.849,0,0,1,2.793,1.047,4.2,4.2,0,0,1,1.207,2.844l.016.578A4.418,4.418,0,0,1,36.5,36.98a3.775,3.775,0,0,1-2.914,1.176,3.793,3.793,0,0,1-2.918-1.172,4.5,4.5,0,0,1-1.09-3.187Zm2.258.16a3.16,3.16,0,0,0,.453,1.843,1.628,1.628,0,0,0,2.578.008,3.457,3.457,0,0,0,.461-2.015,3.128,3.128,0,0,0-.461-1.831,1.5,1.5,0,0,0-1.3-.649,1.474,1.474,0,0,0-1.281.646A3.516,3.516,0,0,0,31.84,33.856Zm6.813-.145a4.954,4.954,0,0,1,.926-3.133,3,3,0,0,1,2.5-1.187,2.631,2.631,0,0,1,2.164.953l.094-.8h2.047v8.172a3.613,3.613,0,0,1-.5,1.93,3.236,3.236,0,0,1-1.418,1.25,4.985,4.985,0,0,1-2.141.43,4.635,4.635,0,0,1-1.812-.371A3.217,3.217,0,0,1,39.168,40l1-1.375a2.645,2.645,0,0,0,2.047.945,1.936,1.936,0,0,0,1.4-.48,1.8,1.8,0,0,0,.5-1.363v-.453a2.612,2.612,0,0,1-2.055.883,2.992,2.992,0,0,1-2.465-1.191,4.953,4.953,0,0,1-.941-3.16Zm2.258.168a3.085,3.085,0,0,0,.461,1.8,1.466,1.466,0,0,0,1.266.653,1.568,1.568,0,0,0,1.477-.775V32a1.564,1.564,0,0,0-1.461-.775,1.476,1.476,0,0,0-1.277.665A3.477,3.477,0,0,0,40.91,33.879ZM50.551,38H48.293V29.547h2.258Zm-.664-11.883h2.461l-2.164,2.422H48.348Zm7.188,9.547a.727.727,0,0,0-.41-.652,4.659,4.659,0,0,0-1.316-.426q-3.016-.633-3.016-2.562a2.323,2.323,0,0,1,.934-1.879,3.766,3.766,0,0,1,2.441-.754,4.053,4.053,0,0,1,2.574.758,2.388,2.388,0,0,1,.965,1.969H56.988a1.092,1.092,0,0,0-.312-.8A1.322,1.322,0,0,0,55.7,31a1.351,1.351,0,0,0-.883.258.814.814,0,0,0-.312.656.7.7,0,0,0,.355.605,3.657,3.657,0,0,0,1.2.4,9.8,9.8,0,0,1,1.422.379A2.336,2.336,0,0,1,59.27,35.57a2.205,2.205,0,0,1-.992,1.871,4.28,4.28,0,0,1-2.562.715,4.47,4.47,0,0,1-1.887-.379,3.166,3.166,0,0,1-1.293-1.039,2.414,2.414,0,0,1-.469-1.426h2.141a1.179,1.179,0,0,0,.445.922,1.766,1.766,0,0,0,1.109.32,1.635,1.635,0,0,0,.98-.246A.766.766,0,0,0,57.074,35.664Zm6.352-8.2v2.078h1.445V31.2H63.426v4.219a1.007,1.007,0,0,0,.18.672.9.9,0,0,0,.688.2,3.6,3.6,0,0,0,.664-.055v1.711a4.648,4.648,0,0,1-1.367.2,2.156,2.156,0,0,1-2.422-2.4V31.2H59.934V29.547h1.234V27.469ZM68.512,38H66.246V29.547h2.266Zm-2.4-10.641a1.112,1.112,0,0,1,.34-.836,1.465,1.465,0,0,1,1.848,0,1.193,1.193,0,0,1,0,1.68,1.448,1.448,0,0,1-1.836,0A1.108,1.108,0,0,1,66.113,27.359Zm7.773,8.977a1.481,1.481,0,0,0,1.016-.344,1.2,1.2,0,0,0,.406-.914h2.117a2.9,2.9,0,0,1-.469,1.574A3.093,3.093,0,0,1,75.7,37.762a3.949,3.949,0,0,1-1.77.395A3.67,3.67,0,0,1,71.066,37,4.56,4.56,0,0,1,70.02,33.82v-.148a4.508,4.508,0,0,1,1.039-3.117,3.627,3.627,0,0,1,2.852-1.164,3.555,3.555,0,0,1,2.543.9,3.2,3.2,0,0,1,.973,2.4H75.309a1.551,1.551,0,0,0-.406-1.072,1.51,1.51,0,0,0-2.223.163,3.333,3.333,0,0,0-.4,1.866v.235a3.375,3.375,0,0,0,.4,1.878A1.377,1.377,0,0,0,73.887,36.336ZM83.613,38a2.507,2.507,0,0,1-.227-.758,2.732,2.732,0,0,1-2.133.914,3,3,0,0,1-2.059-.719,2.312,2.312,0,0,1-.816-1.812,2.389,2.389,0,0,1,1-2.062,4.915,4.915,0,0,1,2.879-.727h1.039v-.484a1.393,1.393,0,0,0-.3-.937,1.183,1.183,0,0,0-.949-.352,1.345,1.345,0,0,0-.895.273.929.929,0,0,0-.324.75H78.566a2.268,2.268,0,0,1,.453-1.359,3,3,0,0,1,1.281-.98,4.669,4.669,0,0,1,1.859-.355,3.689,3.689,0,0,1,2.48.785,2.747,2.747,0,0,1,.918,2.207v3.664a4.041,4.041,0,0,0,.336,1.82V38Zm-1.867-1.57a1.945,1.945,0,0,0,.922-.223,1.462,1.462,0,0,0,.625-.6V34.156h-.844q-1.7,0-1.8,1.172l-.008.133a.9.9,0,0,0,.3.7A1.153,1.153,0,0,0,81.746,36.43Zm9.18-2.719a5.094,5.094,0,0,1,.887-3.148,2.877,2.877,0,0,1,2.426-1.172,2.589,2.589,0,0,1,2.039.922V26h2.266V38H96.5l-.109-.9a2.657,2.657,0,0,1-2.172,1.055,2.869,2.869,0,0,1-2.395-1.176A5.258,5.258,0,0,1,90.926,33.711Zm2.258.168A3.337,3.337,0,0,0,93.6,35.7a1.349,1.349,0,0,0,1.2.634,1.511,1.511,0,0,0,1.477-.884V32.111a1.489,1.489,0,0,0-1.461-.884Q93.184,31.227,93.184,33.879Zm11,4.277a4.15,4.15,0,0,1-3.027-1.141,4.054,4.054,0,0,1-1.168-3.039v-.219a5.106,5.106,0,0,1,.492-2.277,3.612,3.612,0,0,1,1.395-1.547,3.914,3.914,0,0,1,2.059-.543,3.508,3.508,0,0,1,2.73,1.094,4.444,4.444,0,0,1,1,3.1v.922h-5.383a2.1,2.1,0,0,0,.66,1.328,2,2,0,0,0,1.395.5,2.437,2.437,0,0,0,2.039-.945l1.109,1.242a3.389,3.389,0,0,1-1.375,1.121A4.511,4.511,0,0,1,104.184,38.156Zm-.258-6.945a1.411,1.411,0,0,0-1.09.455,2.357,2.357,0,0,0-.535,1.3h3.141v-.181a1.681,1.681,0,0,0-.406-1.165A1.456,1.456,0,0,0,103.926,31.211Zm7.4,6.789h-2.266V26h2.266Zm13.453-4.148a5.07,5.07,0,0,1-.887,3.129,2.843,2.843,0,0,1-2.395,1.176,2.633,2.633,0,0,1-2.07-.891V41.25h-2.258v-11.7h2.094l.078.828a2.654,2.654,0,0,1,2.141-.984,2.862,2.862,0,0,1,2.43,1.156,5.207,5.207,0,0,1,.867,3.188Zm-2.258-.164a3.327,3.327,0,0,0-.418-1.82,1.361,1.361,0,0,0-1.215-.641,1.478,1.478,0,0,0-1.461.813V35.5a1.5,1.5,0,0,0,1.477.836Q122.52,36.336,122.52,33.688Zm8.406-2.023a6.134,6.134,0,0,0-.812-.062,1.654,1.654,0,0,0-1.68.867V38h-2.258V29.547h2.133l.063,1.008a2.092,2.092,0,0,1,1.883-1.164,2.366,2.366,0,0,1,.7.1Zm.453,2.031a5.013,5.013,0,0,1,.484-2.242,3.546,3.546,0,0,1,1.395-1.523,4.069,4.069,0,0,1,2.113-.539,3.849,3.849,0,0,1,2.793,1.047,4.2,4.2,0,0,1,1.207,2.844l.016.578A4.418,4.418,0,0,1,138.3,36.98a4.209,4.209,0,0,1-5.832,0,4.5,4.5,0,0,1-1.09-3.187Zm2.258.16a3.16,3.16,0,0,0,.453,1.843,1.628,1.628,0,0,0,2.578.008,3.457,3.457,0,0,0,.461-2.015,3.128,3.128,0,0,0-.461-1.831,1.5,1.5,0,0,0-1.3-.649,1.474,1.474,0,0,0-1.281.646A3.516,3.516,0,0,0,133.637,33.856Zm10.656,2.48a1.481,1.481,0,0,0,1.016-.344,1.2,1.2,0,0,0,.406-.914h2.117a2.9,2.9,0,0,1-.469,1.574,3.093,3.093,0,0,1-1.262,1.109,3.949,3.949,0,0,1-1.77.395A3.67,3.67,0,0,1,141.473,37a4.56,4.56,0,0,1-1.047-3.184v-.148a4.508,4.508,0,0,1,1.039-3.117,3.627,3.627,0,0,1,2.852-1.164,3.555,3.555,0,0,1,2.543.9,3.2,3.2,0,0,1,.973,2.4h-2.117a1.551,1.551,0,0,0-.406-1.072,1.51,1.51,0,0,0-2.223.163,3.333,3.333,0,0,0-.4,1.866v.235a3.375,3.375,0,0,0,.4,1.878A1.377,1.377,0,0,0,144.293,36.336Zm8.719,1.82a4.15,4.15,0,0,1-3.027-1.141,4.054,4.054,0,0,1-1.168-3.039v-.219a5.106,5.106,0,0,1,.492-2.277,3.612,3.612,0,0,1,1.395-1.547,3.914,3.914,0,0,1,2.059-.543,3.508,3.508,0,0,1,2.73,1.094,4.444,4.444,0,0,1,1,3.1v.922h-5.383a2.1,2.1,0,0,0,.66,1.328,2,2,0,0,0,1.395.5,2.437,2.437,0,0,0,2.039-.945l1.109,1.242a3.389,3.389,0,0,1-1.375,1.121A4.511,4.511,0,0,1,153.012,38.156Zm-.258-6.945a1.411,1.411,0,0,0-1.09.455,2.357,2.357,0,0,0-.535,1.3h3.141v-.181a1.681,1.681,0,0,0-.406-1.165A1.456,1.456,0,0,0,152.754,31.211Zm9.594,4.453a.727.727,0,0,0-.41-.652,4.659,4.659,0,0,0-1.316-.426q-3.016-.633-3.016-2.562a2.323,2.323,0,0,1,.934-1.879,3.766,3.766,0,0,1,2.441-.754,4.053,4.053,0,0,1,2.574.758,2.388,2.388,0,0,1,.965,1.969h-2.258a1.092,1.092,0,0,0-.312-.8,1.322,1.322,0,0,0-.977-.316,1.351,1.351,0,0,0-.883.258.814.814,0,0,0-.312.656.7.7,0,0,0,.355.605,3.657,3.657,0,0,0,1.2.4,9.8,9.8,0,0,1,1.422.379,2.336,2.336,0,0,1,1.789,2.273,2.205,2.205,0,0,1-.992,1.871,4.28,4.28,0,0,1-2.562.715,4.47,4.47,0,0,1-1.887-.379,3.166,3.166,0,0,1-1.293-1.039,2.414,2.414,0,0,1-.469-1.426h2.141a1.179,1.179,0,0,0,.445.922,1.766,1.766,0,0,0,1.109.32,1.635,1.635,0,0,0,.98-.246A.766.766,0,0,0,162.348,35.664Zm3.3-1.969a5.013,5.013,0,0,1,.484-2.242,3.546,3.546,0,0,1,1.395-1.523,4.069,4.069,0,0,1,2.113-.539,3.849,3.849,0,0,1,2.793,1.047,4.2,4.2,0,0,1,1.207,2.844l.016.578a4.418,4.418,0,0,1-1.086,3.121,4.209,4.209,0,0,1-5.832,0,4.5,4.5,0,0,1-1.09-3.187Zm2.258.16a3.16,3.16,0,0,0,.453,1.843,1.628,1.628,0,0,0,2.578.008,3.457,3.457,0,0,0,.461-2.015,3.128,3.128,0,0,0-.461-1.831,1.5,1.5,0,0,0-1.3-.649,1.474,1.474,0,0,0-1.281.646A3.516,3.516,0,0,0,167.9,33.856Z" transform="translate(701 5005)" fill="#12263f"/>
      <path id="Trazado_716799" data-name="Trazado 716799" d="M271.17,393.55h40.32V437.9H271.17Z" transform="translate(720.39 4602.527)"/>
      <path id="Trazado_716800" data-name="Trazado 716800" d="M291.737,384.89c5.76,0,11.462-.148,17.173.132,1.218.058,2.362,1.687,3.538,2.592-1.226.823-2.469,2.469-3.67,2.469q-17.453.288-34.9,0c-1.3,0-2.567-1.531-3.851-2.353,1.325-.938,2.617-2.633,3.991-2.7C279.88,384.717,285.829,384.89,291.737,384.89Z" transform="translate(720.592 4604.069)"/>
      <path id="Trazado_716801" data-name="Trazado 716801" d="M291.405,454.835c-5.7,0-11.413.173-17.1-.115-1.456-.074-2.831-1.6-4.246-2.469,1.317-.93,2.617-2.65,3.942-2.674q17.379-.3,34.758,0c1.251,0,2.469,1.572,3.719,2.411-1.325.946-2.6,2.641-3.966,2.715C302.785,455.016,297.075,454.835,291.405,454.835Z" transform="translate(720.587 4592.629)"/>
      <path id="Trazado_716791" data-name="Trazado 716791" d="M252.091,425.374a32.059,32.059,0,0,0,0-4.1c-.644-5,.2-8.945,5.971-10.352,2.268-.553,4.648-3.017,6.454-2.555a24.415,24.415,0,0,1,9.617,5.152c1.281,1.106,1.106,4.158,1.183,6.349.154,4.7,0,9.421.056,14.139.035,2.835-1.169,4.2-4.088,4.158-5.019-.07-10.037-.056-15.056,0-2.842,0-4.2-1.2-4.123-4.116S252.1,428.265,252.091,425.374Zm11.724-13.635c-5.992-.378-10.037,2.023-10.289,5.985h10.289Zm2.044-.7V417.7h8.588c-.952-4.907-4.977-4.7-8.588-6.678Z" transform="translate(513.331 4806.869)"/>
      <path id="Trazado_716792" data-name="Trazado 716792" d="M296.913,407.69l-4.242-1.106c-.469-6-1.211-11.9,3.5-16.8,2.184-2.268,3.913-2.24,6.1,0,4.3,4.431,4.438,9.9,3.682,15.357-.168,1.218-3.038,2.065-4.2,2.8,0,6.433.14,12.886-.112,19.326-.049,1.3-1.589,2.555-2.436,3.829-.756-1.176-2.1-2.338-2.17-3.535C296.8,421.13,296.913,414.627,296.913,407.69Z" transform="translate(501.205 4814.934)"/>
      <path id="Trazado_716793" data-name="Trazado 716793" d="M342.737,394.39c7.644,3.5,4.382,9.694,4.725,14.972.364,5.439-2.163,10.933,1.057,16.407,1.568,2.667.2,5.985-3.01,7.063s-4.3-1.8-4.823-4.123C338.069,417.125,339.391,405.771,342.737,394.39Z" transform="translate(487.109 4810.045)"/>
      <path id="Trazado_716794" data-name="Trazado 716794" d="M320.963,407.883c-4.088-2.989-5.278-8.2-2.1-16.372l.987,13.1h1.771q.525-6.622,1.057-13.264l1.3.077.8,12.921,1.5.238c2.5-3.871-.182-9.008,1.862-13.3,3.066,6.783,1.61,13.509-2.415,16.568,0,7.9.07,14.937-.1,21.965a2.994,2.994,0,0,1-2.135,2.135c-.8.035-2.415-1.1-2.429-1.75C320.9,423.135,320.963,416.065,320.963,407.883Z" transform="translate(493.786 4811.978)"/>
      <path id="Trazado_716795" data-name="Trazado 716795" d="M255.62,401.838c.168-3.262.21-5.971-4.2-5.7-.567,0-1.7-1.351-1.68-2.058a2.758,2.758,0,0,1,1.792-2.009,121.774,121.774,0,0,1,16.1-.952c1.323.049,2.541,2.968,3.577,4.263l-6.916,5.789h-3.969l-1.183-4.48Z" transform="translate(513.982 4812.038)"/>
      <path id="cuarentena" d="M250.285,337.722c5.095-3.527,5.749-4.66,4.891-8.881-2.022,1.45-3.943,3.919-5.792,3.856-2.03-.055-4-2.422-6.271-3.962-.282,5.487,2.159,8.23,7.29,8.877-5.518,1.27-11.06,3.606-16.3.5,1.92-3.112,3.461-5.612,5-8.117-.321-.823-.647-1.65-.968-2.477-4.362,7.223-8.591,4.9-12.8.941l-1.031,1.4c1.654,2.614,3.3,5.232,5.581,8.838l-9.237,1.066c-1.176-11.667-.533-22.167,7.54-30.961-10.444,8.708-10.335,20.274-9.465,32.631h53.3c12.827.039,12.827.039,12.134-12.757-1-18.9-19.2-33.7-37.812-30.213-6.271,1.176-12.377,2.449-18.757,1.693-.106,0-.266.423-.439.709,7.54,3.073,14.861.118,22.911-1.415l-3.417,4.581h8.74l-3.308-3.994c19.059-.753,34.915,20.532,29.248,39.665l-10.711-1.1,5.24-8.685c-6.114,1.34-7.862,1.348-14.473.078l5.326,8.23C261.357,339.513,255.843,339.858,250.285,337.722Zm23.307-10.813-.141-1.74c-2.265-.741-4.5-1.83-6.815-2.01-.717-.055-2.6,2.877-2.253,3.527.9,1.7,2.845,4.088,4.209,3.986C270.343,330.558,271.931,328.265,273.592,326.909ZM243.478,326c2.5,2.061,4.272,4.664,6,4.632s3.308-2.767,5.3-4.632Zm8.2-19.059-4.009-.392c.952,4.444,1.83,8.528,2.708,12.612l1.3-.2Zm-19.842,25.29,4.754-6.161h-9.939Zm15.676-21.273c-4.28,3.069-4.762,5.9-1.368,8.908.466-3.049.9-5.875,1.364-8.908Z" transform="translate(346.25 4700.562)" fill="#020202"/>
      <g transform="matrix(1, 0, 0, 1, 469, 4672.54)" filter="url(#Trazado_501624-2)">
        <path id="Trazado_501624-6" data-name="Trazado 501624" d="M19.5,0A19.5,19.5,0,1,1,0,19.5,19.5,19.5,0,0,1,19.5,0Z" transform="translate(657.27 363.48) rotate(180)" fill="#ffd947"/>
      </g>
      <path id="Trazado_716910" data-name="Trazado 716910" d="M10.205-5.52A6.45,6.45,0,0,1,8.976-1.3,4.248,4.248,0,0,1,5.511.186,4.271,4.271,0,0,1,2.022-1.308,6.44,6.44,0,0,1,.789-5.52V-7.988a6.45,6.45,0,0,1,1.229-4.221,4.258,4.258,0,0,1,3.474-1.484A4.26,4.26,0,0,1,8.971-12.2a6.456,6.456,0,0,1,1.234,4.221ZM7.079-8.387a4.818,4.818,0,0,0-.38-2.176,1.271,1.271,0,0,0-1.206-.719,1.241,1.241,0,0,0-1.174.668,4.538,4.538,0,0,0-.394,2.022V-5.14A4.854,4.854,0,0,0,4.3-2.927a1.276,1.276,0,0,0,1.206.7,1.259,1.259,0,0,0,1.178-.682,4.634,4.634,0,0,0,.39-2.138ZM21.254,0H11.829V-2.041L16.17-6.605a5.182,5.182,0,0,0,1.6-2.9,2.02,2.02,0,0,0-.38-1.327,1.358,1.358,0,0,0-1.1-.455,1.375,1.375,0,0,0-1.16.608,2.5,2.5,0,0,0-.445,1.517H11.55a4.436,4.436,0,0,1,.622-2.3A4.359,4.359,0,0,1,13.9-13.109a5.126,5.126,0,0,1,2.468-.594,5.042,5.042,0,0,1,3.372,1.011,3.61,3.61,0,0,1,1.183,2.9,4.217,4.217,0,0,1-.3,1.554A6.815,6.815,0,0,1,19.7-6.647a23.253,23.253,0,0,1-2.018,2.222L15.938-2.412h5.316Z" transform="translate(1096.77 5023.517)" fill="#12263f"/>
      <g transform="matrix(1, 0, 0, 1, 469, 4672.54)" filter="url(#Trazado_501624-3)">
        <path id="Trazado_501624-7" data-name="Trazado 501624" d="M19.5,0A19.5,19.5,0,1,1,0,19.5,19.5,19.5,0,0,1,19.5,0Z" transform="translate(353 679.46) rotate(180)" fill="#ffd947"/>
      </g>
      <g transform="matrix(1, 0, 0, 1, 469, 4672.54)" filter="url(#Trazado_501624-4)">
        <path id="Trazado_501624-8" data-name="Trazado 501624" d="M19.5,0A19.5,19.5,0,1,1,0,19.5,19.5,19.5,0,0,1,19.5,0Z" transform="translate(48 371.98) rotate(180)" fill="#ffd947"/>
      </g>
      <path id="Trazado_716911" data-name="Trazado 716911" d="M10.205-5.52A6.45,6.45,0,0,1,8.976-1.3,4.248,4.248,0,0,1,5.511.186,4.271,4.271,0,0,1,2.022-1.308,6.44,6.44,0,0,1,.789-5.52V-7.988a6.45,6.45,0,0,1,1.229-4.221,4.258,4.258,0,0,1,3.474-1.484A4.26,4.26,0,0,1,8.971-12.2a6.456,6.456,0,0,1,1.234,4.221ZM7.079-8.387a4.818,4.818,0,0,0-.38-2.176,1.271,1.271,0,0,0-1.206-.719,1.241,1.241,0,0,0-1.174.668,4.538,4.538,0,0,0-.394,2.022V-5.14A4.854,4.854,0,0,0,4.3-2.927a1.276,1.276,0,0,0,1.206.7,1.259,1.259,0,0,0,1.178-.682,4.634,4.634,0,0,0,.39-2.138ZM20.085-5.279h1.373v2.412H20.085V0H16.959V-2.867H11.736L11.55-4.778l5.409-8.7v-.028h3.126Zm-5.557,0h2.431V-9.435l-.195.315Z" transform="translate(486.5 5032.013)" fill="#12263f"/>
    </g>
    <path id="Trazado_716908" data-name="Trazado 716908" d="M10.205-5.52A6.45,6.45,0,0,1,8.976-1.3,4.248,4.248,0,0,1,5.511.186,4.271,4.271,0,0,1,2.022-1.308,6.44,6.44,0,0,1,.789-5.52V-7.988a6.45,6.45,0,0,1,1.229-4.221,4.258,4.258,0,0,1,3.474-1.484A4.26,4.26,0,0,1,8.971-12.2a6.456,6.456,0,0,1,1.234,4.221ZM7.079-8.387a4.818,4.818,0,0,0-.38-2.176,1.271,1.271,0,0,0-1.206-.719,1.241,1.241,0,0,0-1.174.668,4.538,4.538,0,0,0-.394,2.022V-5.14A4.854,4.854,0,0,0,4.3-2.927a1.276,1.276,0,0,0,1.206.7,1.259,1.259,0,0,0,1.178-.682,4.634,4.634,0,0,0,.39-2.138Zm7.607.325h1.475a1.534,1.534,0,0,0,1.753-1.716,1.484,1.484,0,0,0-.417-1.09,1.583,1.583,0,0,0-1.178-.422,1.7,1.7,0,0,0-1.081.362,1.1,1.1,0,0,0-.459.9H11.652a3.2,3.2,0,0,1,.594-1.9,3.921,3.921,0,0,1,1.647-1.3,5.63,5.63,0,0,1,2.315-.469,5.532,5.532,0,0,1,3.544,1.03,3.423,3.423,0,0,1,1.29,2.83A2.853,2.853,0,0,1,20.508-8.2a3.8,3.8,0,0,1-1.554,1.257,3.632,3.632,0,0,1,1.688,1.183,3.115,3.115,0,0,1,.612,1.962A3.486,3.486,0,0,1,19.863-.9,5.776,5.776,0,0,1,16.208.186,5.99,5.99,0,0,1,13.744-.32a3.859,3.859,0,0,1-1.721-1.4,3.642,3.642,0,0,1-.584-2.036h3.145a1.408,1.408,0,0,0,.5,1.076,1.769,1.769,0,0,0,1.234.455,1.853,1.853,0,0,0,1.317-.459,1.535,1.535,0,0,0,.492-1.174,1.794,1.794,0,0,0-.51-1.447,2.133,2.133,0,0,0-1.41-.427H14.686Z" transform="translate(792.5 5339.5)" fill="#12263f"/>
  </g>
</svg>
