<svg xmlns="http://www.w3.org/2000/svg" width="85.77" height="86" viewBox="0 0 85.77 86">
  <g id="mano_hoja" data-name="mano hoja" transform="translate(0.009 -0.008)">
    <path id="Trazado_716874" data-name="Trazado 716874" d="M239.339,418.27c3.62,1.3,6.762,2.563,9.977,3.54,4.865,1.448,10.361,1.824,14.574,4.344,7.848,4.692,14.379.181,21.517-1.122,2.208-.405,6.306.912,6.929,2.476.9,2.259.4,6.929-1.224,8.022-9.289,6.277-18.954,12.033-28.808,17.376-2.027,1.108-5.423.116-8.073-.456a19.672,19.672,0,0,1-6.024-2.708c-7.689-4.786-14.9-5.285-22.8.239-6.009,4.2-8.051,2.9-10.187-4.12-1.339-4.424-3.026-8.782-3.8-13.307-.311-1.846.883-5.35,2.237-5.864C222.078,423.555,230.737,421.021,239.339,418.27Zm-24.855,11.9c1.933,6.516,3.62,12.2,5.705,19.251,11.316-10.9,22.241-8.051,33.174-1.586,4.054,2.4,8.029,1.984,11.939-.442,7.16-4.445,14.408-8.768,21.481-13.358,1.361-.883,2.071-2.758,3.084-4.17l-1.043-1.318c-6.6,1.528-13.6,2.063-18.991,6.987-7.522,6.871-18.824,6.74-24.059-1.774,3.07.659,5.155,1.412,7.24,1.506a72.6,72.6,0,0,0,11.012-.311c.927-.109,1.672-1.861,2.5-2.86a14.791,14.791,0,0,0-3.171-2.172c-5.445-1.73-10.9-3.446-16.435-4.822-3.417-.847-7.182-2.056-10.433-1.383C229.3,425.235,222.31,427.805,214.484,430.165Z" transform="translate(-211.38 -367.399)"/>
    <path id="Trazado_716875" data-name="Trazado 716875" d="M258.885,397.563c4.344-8.536,12.192-8.594,19.968-9.658v-18.5h-11.41c-11.085-.058-15.067-8.478-13.445-18.882.152-.956,2.172-2.172,3.461-2.31a76.568,76.568,0,0,1,9.028-.123c10.86,0,13.908,2.223,16.775,11.3,7.341-.34,14.408-.869,21.467-.8,1.347,0,3.656,2.273,3.852,3.714,1.448,11.07-4,17.079-15.2,17.188h-9.535c-1.318,5.792-1.557,10.035,5.068,11.758,2.4.623,4.344,2.968,6.053,5.973C282.683,390.606,270.889,389.7,258.885,397.563Zm24.848-22.7c16.1,2.9,22.039-.572,20.547-11.888-14.357-2.223-22.915-.282-20.547,11.888Zm-4.959-10.136c2.252-11.866-6.176-14.48-20.873-11.823-.927,11.157,3.881,13.93,20.873,11.758Z" transform="translate(-223.049 -348.01)"/>
    <path id="Trazado_716876" data-name="Trazado 716876" d="M215.67,432.177c7.827-2.36,14.813-4.93,22.032-6.422,3.251-.673,7.016.536,10.433,1.383,5.531,1.376,10.99,3.091,16.435,4.822,1.166.369,2.121,1.448,3.171,2.172-.825,1-1.571,2.751-2.5,2.86a72.6,72.6,0,0,1-11.012.311c-2.114-.094-4.2-.847-7.24-1.506,5.264,8.514,16.536,8.645,24.059,1.774,5.394-4.923,12.395-5.459,18.991-6.987l1.043,1.318c-1.014,1.448-1.723,3.287-3.084,4.17-7.074,4.59-14.321,8.913-21.481,13.358-3.91,2.425-7.884,2.838-11.939.442-10.932-6.465-21.858-9.318-33.174,1.586C219.283,444.377,217.6,438.715,215.67,432.177Z" transform="translate(-212.566 -369.411)" fill="#fff"/>
  </g>
</svg>
