<svg xmlns="http://www.w3.org/2000/svg" width="1599.03" height="601.164" viewBox="0 0 1599.03 601.164">
  <g id="Grupo_1084154" data-name="Grupo 1084154" transform="translate(-178 -625.771)">
    <rect id="Rectángulo_361666" data-name="Rectángulo 361666" width="752.814" height="62.735" rx="31.367" transform="translate(468.146 625.771)" fill="#0b481e"/>
    <text id="Monitoreo_de_la_propagación_vegetal" data-name="Monitoreo de la propagación vegetal" transform="translate(822.039 661.103)" fill="#fff" font-size="16" font-family="Roboto-Black, Roboto" font-weight="800"><tspan x="-131.965" y="0">Monitoreo de la propagación vegetal</tspan></text>
    <rect id="Rectángulo_361667" data-name="Rectángulo 361667" width="170" height="62" rx="30" transform="translate(178 741.655)" fill="#cee284"/>
    <text id="Normatividad_ambiental" data-name="Normatividad
ambiental" transform="translate(258.694 769.397)" fill="#12263f" font-size="12" font-family="Roboto-Regular, Roboto"><tspan x="-36.062" y="0">Normatividad</tspan><tspan x="-26.514" y="15">ambiental</tspan></text>
    <g id="Grupo_1084036" data-name="Grupo 1084036" transform="translate(252.933 807)">
      <line id="Línea_154" data-name="Línea 154" y2="43.774" transform="translate(8.567 0)" fill="none" stroke="#0b481e" stroke-width="3"/>
      <path id="Trazado_118034" data-name="Trazado 118034" d="M-11969.333-9290.667l8.713,5.228,8.714-5.228" transform="translate(11969.333 9329.503)" fill="none" stroke="#0b481e" stroke-linecap="round" stroke-width="3"/>
    </g>
    <g id="Grupo_1084037" data-name="Grupo 1084037" transform="translate(252.933 920.471)">
      <line id="Línea_154-2" data-name="Línea 154" y2="31.633" transform="translate(8.567 0)" fill="none" stroke="#0b481e" stroke-width="3"/>
      <path id="Trazado_118034-2" data-name="Trazado 118034" d="M-11969.333-9290.667l8.713,5.228,8.714-5.228" transform="translate(11969.333 9317.362)" fill="none" stroke="#0b481e" stroke-linecap="round" stroke-width="3"/>
    </g>
    <g id="Grupo_1084047" data-name="Grupo 1084047" transform="translate(252.933 711.683)">
      <line id="Línea_154-3" data-name="Línea 154" y2="23.694" transform="translate(8.567 0)" fill="none" stroke="#0b481e" stroke-width="3"/>
      <path id="Trazado_118034-3" data-name="Trazado 118034" d="M-11969.333-9290.667l8.713,5.228,8.714-5.228" transform="translate(11969.333 9309.424)" fill="none" stroke="#0b481e" stroke-linecap="round" stroke-width="3"/>
    </g>
    <line id="Línea_3864" data-name="Línea 3864" y1="36.595" x2="317.158" transform="translate(262.953 675.871)" fill="none" stroke="#0b481e" stroke-linecap="round" stroke-width="3"/>
    <line id="Línea_3865" data-name="Línea 3865" x1="284.483" y1="45.308" transform="translate(653.736 669.498)" fill="none" stroke="#0b481e" stroke-linecap="round" stroke-width="3"/>
    <rect id="Rectángulo_361670" data-name="Rectángulo 361670" width="170" height="62" rx="30" transform="translate(178 854.856)" fill="#cee284"/>
    <rect id="Rectángulo_361671" data-name="Rectángulo 361671" width="170" height="79.76" rx="30" transform="translate(178 956.671)" fill="#cee284"/>
    <text id="Instituto_Colombiano_Agropecuario_ICA" data-name="Instituto Colombiano
Agropecuario ICA" transform="translate(260.812 881.054)" fill="#12263f" font-size="12" font-family="Roboto-Regular, Roboto"><tspan x="-55.811" y="0">Instituto Colombiano</tspan><tspan x="-46.775" y="15">Agropecuario ICA</tspan></text>
    <text id="Resolución_No_078006_del_2020" data-name="Resolución No
078006
del 2020" transform="translate(258.981 986.869)" fill="#12263f" font-size="12" font-family="Roboto-Regular, Roboto"><tspan x="-38.666" y="0">Resolución No</tspan><tspan x="-20.215" y="15">078006</tspan><tspan x="-22.98" y="30">del 2020</tspan></text>
    <rect id="Rectángulo_361706" data-name="Rectángulo 361706" width="170" height="62" rx="30" transform="translate(447.721 744.705)" fill="#cee284"/>
    <text id="Lugar_y_procesos_de_propagación" data-name="Lugar y procesos 
de propagación" transform="translate(532.346 771.447)" fill="#12263f" font-size="12" font-family="Roboto-Regular, Roboto"><tspan x="-47.051" y="0">Lugar y procesos </tspan><tspan x="-41.396" y="15">de propagación</tspan></text>
    <g id="Grupo_1084087" data-name="Grupo 1084087" transform="translate(525.653 812.887)">
      <line id="Línea_154-4" data-name="Línea 154" y2="26.937" transform="translate(8.568 0)" fill="none" stroke="#0b481e" stroke-width="3"/>
      <path id="Trazado_118034-4" data-name="Trazado 118034" d="M-11969.333-9290.667l8.713,5.228,8.714-5.228" transform="translate(11969.333 9312.666)" fill="none" stroke="#0b481e" stroke-linecap="round" stroke-width="3"/>
    </g>
    <g id="Grupo_1084088" data-name="Grupo 1084088" transform="translate(525.327 911.979)">
      <line id="Línea_154-5" data-name="Línea 154" y2="28.175" transform="translate(8.568 0)" fill="none" stroke="#0b481e" stroke-width="3"/>
      <path id="Trazado_118034-5" data-name="Trazado 118034" d="M-11969.333-9290.667l8.713,5.228,8.714-5.228" transform="translate(11969.333 9313.903)" fill="none" stroke="#0b481e" stroke-linecap="round" stroke-width="3"/>
    </g>
    <g id="Grupo_1084089" data-name="Grupo 1084089" transform="translate(534.222 1013.068)">
      <line id="Línea_154-6" data-name="Línea 154" y2="183.681" transform="translate(0 0)" fill="none" stroke="#0b481e" stroke-width="3"/>
    </g>
    <g id="Grupo_1084090" data-name="Grupo 1084090" transform="translate(525.653 714.732)">
      <line id="Línea_154-7" data-name="Línea 154" y2="24.645" transform="translate(8.568 0)" fill="none" stroke="#0b481e" stroke-width="3"/>
      <path id="Trazado_118034-6" data-name="Trazado 118034" d="M-11969.333-9290.667l8.713,5.228,8.714-5.228" transform="translate(11969.333 9310.374)" fill="none" stroke="#0b481e" stroke-linecap="round" stroke-width="3"/>
    </g>
    <line id="Línea_3872" data-name="Línea 3872" y1="26.575" x2="115.303" transform="translate(535.674 688.94)" fill="none" stroke="#0b481e" stroke-linecap="round" stroke-width="3"/>
    <rect id="Rectángulo_361707" data-name="Rectángulo 361707" width="170" height="62" rx="30" transform="translate(448 844.905)" fill="#cee284"/>
    <rect id="Rectángulo_361708" data-name="Rectángulo 361708" width="170" height="62" rx="30" transform="translate(448 944.721)" fill="#cee284"/>
    <rect id="Rectángulo_361709" data-name="Rectángulo 361709" width="156" height="50" rx="25" transform="translate(561.764 1013.069)" fill="#ffe9e1"/>
    <rect id="Rectángulo_361710" data-name="Rectángulo 361710" width="156" height="50" rx="25" transform="translate(561.764 1123.171)" fill="#ffe9e1"/>
    <rect id="Rectángulo_361711" data-name="Rectángulo 361711" width="156" height="50" rx="25" transform="translate(561.764 1068.536)" fill="#ffe9e1"/>
    <text id="Implementación_de_viveros_o_áreas_de_propagación" data-name="Implementación de
viveros o áreas
de propagación" transform="translate(531.761 865.262)" fill="#12263f" font-size="12" font-family="Roboto-Regular, Roboto"><tspan x="-51.24" y="0">Implementación de</tspan><tspan x="-40.157" y="15">viveros o áreas</tspan><tspan x="-41.396" y="30">de propagación</tspan></text>
    <text id="Buenas_prácticas_agrícolas" data-name="Buenas prácticas
agrícolas" transform="translate(532.86 974.077)" fill="#12263f" font-size="12" font-family="Roboto-Regular, Roboto"><tspan x="-46.09" y="0">Buenas prácticas</tspan><tspan x="-24.519" y="15">agrícolas</tspan></text>
    <text id="Inocuidad_alimentaria" data-name="Inocuidad alimentaria" transform="translate(640.477 1038.56)" fill="#12263f" font-size="12" font-family="Roboto-Regular, Roboto"><tspan x="-57.683" y="0">Inocuidad alimentaria</tspan></text>
    <text id="El_medio_ambiente" data-name="El medio ambiente" transform="translate(638.22 1147.369)" fill="#12263f" font-size="12" font-family="Roboto-Regular, Roboto"><tspan x="-49.509" y="0">El medio ambiente</tspan></text>
    <text id="Bienestar_animal" data-name="Bienestar animal" transform="translate(637.446 1092.318)" fill="#12263f" font-size="12" font-family="Roboto-Regular, Roboto"><tspan x="-44.701" y="0">Bienestar animal</tspan></text>
    <g id="Grupo_1084091" data-name="Grupo 1084091" transform="translate(533.205 1095.615) rotate(-90)">
      <line id="Línea_154-8" data-name="Línea 154" y2="18.808" transform="translate(8.568)" fill="none" stroke="#0b481e" stroke-width="3"/>
      <path id="Trazado_118034-7" data-name="Trazado 118034" d="M0,0,8.713,5.227,17.426,0" transform="translate(0 13.87)" fill="none" stroke="#0b481e" stroke-linecap="round" stroke-width="3"/>
    </g>
    <g id="Grupo_1084092" data-name="Grupo 1084092" transform="translate(533.205 1151.796) rotate(-90)">
      <line id="Línea_154-9" data-name="Línea 154" y2="18.808" transform="translate(8.568)" fill="none" stroke="#0b481e" stroke-width="3"/>
      <path id="Trazado_118034-8" data-name="Trazado 118034" d="M0,0,8.713,5.227,17.426,0" transform="translate(0 13.87)" fill="none" stroke="#0b481e" stroke-linecap="round" stroke-width="3"/>
    </g>
    <g id="Grupo_1084093" data-name="Grupo 1084093" transform="translate(533.205 1041.857) rotate(-90)">
      <line id="Línea_154-10" data-name="Línea 154" y2="18.808" transform="translate(8.568)" fill="none" stroke="#0b481e" stroke-width="3"/>
      <path id="Trazado_118034-9" data-name="Trazado 118034" d="M0,0,8.713,5.227,17.426,0" transform="translate(0 13.87)" fill="none" stroke="#0b481e" stroke-linecap="round" stroke-width="3"/>
    </g>
    <text id="Se_rige_por" data-name="Se rige por" transform="translate(294.131 698.108)" fill="#12263f" font-size="12" font-family="Roboto-Regular, Roboto"><tspan x="-28.559" y="0">Se rige por</tspan></text>
    <text id="Supervisa" transform="translate(530.346 703.96)" fill="#12263f" font-size="12" font-family="Roboto-Regular, Roboto"><tspan x="-26.215" y="0">Supervisa</tspan></text>
    <text id="Expedida_por" data-name="Expedida por" transform="translate(303.171 827.171)" fill="#12263f" font-size="12" font-family="Roboto-Regular, Roboto"><tspan x="-34.72" y="0">Expedida por</tspan></text>
    <text id="como" transform="translate(283.171 935.471)" fill="#12263f" font-size="12" font-family="Roboto-Regular, Roboto"><tspan x="-15.243" y="0">como</tspan></text>
    <rect id="Rectángulo_361712" data-name="Rectángulo 361712" width="156" height="50" rx="25" transform="translate(561.635 1176.935)" fill="#ffe9e1"/>
    <text id="Las_personas" data-name="Las personas" transform="translate(639 1198.525)" fill="#12263f" font-size="12" font-family="Roboto-Regular, Roboto"><tspan x="-35.83" y="0">Las personas</tspan></text>
    <g id="Grupo_1084096" data-name="Grupo 1084096" transform="translate(-535.333 1705.899) rotate(-90)">
      <line id="Línea_154-11" data-name="Línea 154" y2="21.586" transform="translate(510.166 1069)" fill="none" stroke="#0b481e" stroke-width="3"/>
      <path id="Trazado_118034-10" data-name="Trazado 118034" d="M-11969.333-9290.667l10,6,10-6" transform="translate(12469.666 10375.586)" fill="none" stroke="#0b481e" stroke-linecap="round" stroke-width="3"/>
    </g>
    <rect id="Rectángulo_361713" data-name="Rectángulo 361713" width="170" height="50" rx="25" transform="translate(656.696 772.171)" fill="#ffe9e1"/>
    <rect id="Rectángulo_361714" data-name="Rectángulo 361714" width="170" height="50" rx="25" transform="translate(656.696 880.272)" fill="#ffe9e1"/>
    <rect id="Rectángulo_361715" data-name="Rectángulo 361715" width="170" height="50" rx="25" transform="translate(656.696 826.222)" fill="#ffe9e1"/>
    <text id="Espacio" transform="translate(741.104 801.662)" fill="#12263f" font-size="12" font-family="Roboto-Regular, Roboto"><tspan x="-21.152" y="0">Espacio</tspan></text>
    <text id="Tiempo" transform="translate(736.134 910.471)" fill="#12263f" font-size="12" font-family="Roboto-Regular, Roboto"><tspan x="-20.262" y="0">Tiempo</tspan></text>
    <text id="Ubicación" transform="translate(741.162 854.421)" fill="#12263f" font-size="12" font-family="Roboto-Regular, Roboto"><tspan x="-26.446" y="0">Ubicación</tspan></text>
    <rect id="Rectángulo_361716" data-name="Rectángulo 361716" width="170" height="50" rx="25" transform="translate(657.567 935.037)" fill="#ffe9e1"/>
    <text id="Tipo_de_evento" data-name="Tipo de evento" transform="translate(743.222 966.235)" fill="#12263f" font-size="12" font-family="Roboto-Regular, Roboto"><tspan x="-39.217" y="0">Tipo de evento</tspan></text>
    <g id="Grupo_1084097" data-name="Grupo 1084097" transform="translate(638.884 796.399)">
      <line id="Línea_154-12" data-name="Línea 154" y2="168.961" transform="translate(0 0)" fill="none" stroke="#0b481e" stroke-width="3"/>
    </g>
    <g id="Grupo_1084098" data-name="Grupo 1084098" transform="translate(619.833 880.629) rotate(-90)">
      <line id="Línea_154-13" data-name="Línea 154" y2="13.71" transform="translate(8.568)" fill="none" stroke="#0b481e" stroke-width="3"/>
      <path id="Trazado_118034-11" data-name="Trazado 118034" d="M0,0,8.713,5.227,17.426,0" transform="translate(0 8.773)" fill="none" stroke="#0b481e" stroke-linecap="round" stroke-width="3"/>
    </g>
    <g id="Grupo_1084099" data-name="Grupo 1084099" transform="translate(637.142 803.954) rotate(-90)">
      <line id="Línea_154-14" data-name="Línea 154" y2="13.402" transform="translate(8.568)" fill="none" stroke="#0b481e" stroke-width="3"/>
      <path id="Trazado_118034-12" data-name="Trazado 118034" d="M0,0,8.713,5.227,17.426,0" transform="translate(0 8.464)" fill="none" stroke="#0b481e" stroke-linecap="round" stroke-width="3"/>
    </g>
    <g id="Grupo_1084100" data-name="Grupo 1084100" transform="translate(638.884 862.332) rotate(-90)">
      <line id="Línea_154-15" data-name="Línea 154" y2="11.66" transform="translate(8.568)" fill="none" stroke="#0b481e" stroke-width="3"/>
      <path id="Trazado_118034-13" data-name="Trazado 118034" d="M0,0,8.713,5.227,17.426,0" transform="translate(0 6.722)" fill="none" stroke="#0b481e" stroke-linecap="round" stroke-width="3"/>
    </g>
    <g id="Grupo_1084101" data-name="Grupo 1084101" transform="translate(637.142 911.996) rotate(-90)">
      <line id="Línea_154-16" data-name="Línea 154" y2="13.402" transform="translate(8.568)" fill="none" stroke="#0b481e" stroke-width="3"/>
      <path id="Trazado_118034-14" data-name="Trazado 118034" d="M0,0,8.713,5.227,17.426,0" transform="translate(0 8.464)" fill="none" stroke="#0b481e" stroke-linecap="round" stroke-width="3"/>
    </g>
    <g id="Grupo_1084102" data-name="Grupo 1084102" transform="translate(637.142 972.988) rotate(-90)">
      <line id="Línea_154-17" data-name="Línea 154" y2="13.402" transform="translate(8.568)" fill="none" stroke="#0b481e" stroke-width="3"/>
      <path id="Trazado_118034-15" data-name="Trazado 118034" d="M0,0,8.713,5.227,17.426,0" transform="translate(0 8.464)" fill="none" stroke="#0b481e" stroke-linecap="round" stroke-width="3"/>
    </g>
    <text id="Desde" transform="translate(505.632 825.886)" fill="#12263f" font-size="12" font-family="Roboto-Regular, Roboto"><tspan x="-16.77" y="0">Desde</tspan></text>
    <text id="Además" transform="translate(500.048 928.027)" fill="#12263f" font-size="12" font-family="Roboto-Regular, Roboto"><tspan x="-22.093" y="0">Además</tspan></text>
    <text id="Permiten_proteger" data-name="Permiten
proteger" transform="translate(500.632 1046.431)" fill="#12263f" font-size="12" font-family="Roboto-Regular, Roboto"><tspan x="-24.158" y="0">Permiten</tspan><tspan x="-22.474" y="15">proteger</tspan></text>
    <rect id="Rectángulo_361717" data-name="Rectángulo 361717" width="170" height="62" rx="30" transform="translate(852.752 744.705)" fill="#cee284"/>
    <text id="Calidad_material_vegetal" data-name="Calidad material
vegetal" transform="translate(934.733 773.447)" fill="#12263f" font-size="12" font-family="Roboto-Regular, Roboto"><tspan x="-43.465" y="0">Calidad material</tspan><tspan x="-19.31" y="15">vegetal</tspan></text>
    <g id="Grupo_1084103" data-name="Grupo 1084103" transform="translate(931.685 813.283)">
      <line id="Línea_154-18" data-name="Línea 154" y2="50.54" transform="translate(8.568 0)" fill="none" stroke="#0b481e" stroke-width="3"/>
      <path id="Trazado_118034-16" data-name="Trazado 118034" d="M-11969.333-9290.667l8.713,5.228,8.714-5.228" transform="translate(11969.333 9336.269)" fill="none" stroke="#0b481e" stroke-linecap="round" stroke-width="3"/>
    </g>
    <rect id="Rectángulo_361718" data-name="Rectángulo 361718" width="170" height="60.992" rx="30" transform="translate(852.752 868.905)" fill="#cee284"/>
    <text id="Factores" transform="translate(934.002 899.124)" fill="#12263f" font-size="12" font-family="Roboto-Regular, Roboto"><tspan x="-23.247" y="0">Factores</tspan></text>
    <rect id="Rectángulo_361719" data-name="Rectángulo 361719" width="170" height="50" rx="25" transform="translate(1051.728 768.171)" fill="#ffe9e1"/>
    <rect id="Rectángulo_361720" data-name="Rectángulo 361720" width="170" height="50" rx="25" transform="translate(1052.728 884.758)" fill="#ffe9e1"/>
    <rect id="Rectángulo_361721" data-name="Rectángulo 361721" width="170" height="50" rx="25" transform="translate(1052.728 831.222)" fill="#ffe9e1"/>
    <text id="Genético" transform="translate(1127.065 795.662)" fill="#12263f" font-size="12" font-family="Roboto-Regular, Roboto"><tspan x="-23.733" y="0">Genético</tspan></text>
    <text id="Físico" transform="translate(1127 914.283)" fill="#12263f" font-size="12" font-family="Roboto-Regular, Roboto"><tspan x="-15.911" y="0">Físico</tspan></text>
    <text id="Fisiológico" transform="translate(1131.71 857.421)" fill="#12263f" font-size="12" font-family="Roboto-Regular, Roboto"><tspan x="-29.007" y="0">Fisiológico</tspan></text>
    <rect id="Rectángulo_361722" data-name="Rectángulo 361722" width="170" height="50" rx="25" transform="translate(1052.599 942.037)" fill="#ffe9e1"/>
    <text id="Fitosanitario" transform="translate(1133.224 971.235)" fill="#12263f" font-size="12" font-family="Roboto-Regular, Roboto"><tspan x="-33.352" y="0">Fitosanitario</tspan></text>
    <g id="Grupo_1084105" data-name="Grupo 1084105" transform="translate(1034.915 794.399)">
      <line id="Línea_154-19" data-name="Línea 154" y2="168.961" transform="translate(0 0)" fill="none" stroke="#0b481e" stroke-width="3"/>
    </g>
    <g id="Grupo_1084106" data-name="Grupo 1084106" transform="translate(1022.004 903.629) rotate(-90)">
      <line id="Línea_154-20" data-name="Línea 154" y2="8.789" transform="translate(8.568)" fill="none" stroke="#0b481e" stroke-width="3"/>
      <path id="Trazado_118034-17" data-name="Trazado 118034" d="M0,0,8.713,5.227,17.426,0" transform="translate(0 3.852)" fill="none" stroke="#0b481e" stroke-linecap="round" stroke-width="3"/>
    </g>
    <g id="Grupo_1084107" data-name="Grupo 1084107" transform="translate(1034.044 801.954) rotate(-90)">
      <line id="Línea_154-21" data-name="Línea 154" y2="11.999" transform="translate(8.568)" fill="none" stroke="#0b481e" stroke-width="3"/>
      <path id="Trazado_118034-18" data-name="Trazado 118034" d="M0,0,8.713,5.227,17.426,0" transform="translate(0 7.062)" fill="none" stroke="#0b481e" stroke-linecap="round" stroke-width="3"/>
    </g>
    <g id="Grupo_1084108" data-name="Grupo 1084108" transform="translate(1034.044 861.203) rotate(-90)">
      <line id="Línea_154-22" data-name="Línea 154" y2="12.999" transform="translate(8.568)" fill="none" stroke="#0b481e" stroke-width="3"/>
      <path id="Trazado_118034-19" data-name="Trazado 118034" d="M0,0,8.713,5.227,17.426,0" transform="translate(0 8.062)" fill="none" stroke="#0b481e" stroke-linecap="round" stroke-width="3"/>
    </g>
    <g id="Grupo_1084109" data-name="Grupo 1084109" transform="translate(1034.044 909.996) rotate(-90)">
      <line id="Línea_154-23" data-name="Línea 154" y2="12.999" transform="translate(8.568)" fill="none" stroke="#0b481e" stroke-width="3"/>
      <path id="Trazado_118034-20" data-name="Trazado 118034" d="M0,0,8.713,5.227,17.426,0" transform="translate(0 8.062)" fill="none" stroke="#0b481e" stroke-linecap="round" stroke-width="3"/>
    </g>
    <g id="Grupo_1084110" data-name="Grupo 1084110" transform="translate(1034.044 970.988) rotate(-90)">
      <line id="Línea_154-24" data-name="Línea 154" y2="12.999" transform="translate(8.568)" fill="none" stroke="#0b481e" stroke-width="3"/>
      <path id="Trazado_118034-21" data-name="Trazado 118034" d="M0,0,8.713,5.227,17.426,0" transform="translate(0 8.062)" fill="none" stroke="#0b481e" stroke-linecap="round" stroke-width="3"/>
    </g>
    <text id="Se_define_por" data-name="Se define por" transform="translate(898.614 833.171)" fill="#12263f" font-size="12" font-family="Roboto-Regular, Roboto"><tspan x="-34.901" y="0">Se define por</tspan></text>
    <g id="Grupo_1084048" data-name="Grupo 1084048" transform="translate(931.685 714.023)">
      <line id="Línea_154-25" data-name="Línea 154" y2="18.98" transform="translate(8.567 0)" fill="none" stroke="#0b481e" stroke-width="3"/>
      <path id="Trazado_118034-22" data-name="Trazado 118034" d="M-11969.333-9290.667l8.713,5.228,8.714-5.228" transform="translate(11969.333 9304.71)" fill="none" stroke="#0b481e" stroke-linecap="round" stroke-width="3"/>
    </g>
    <text id="Analiza" transform="translate(800.947 711.96)" fill="#12263f" font-size="12" font-family="Roboto-Regular, Roboto"><tspan x="-19.638" y="0">Analiza</tspan></text>
    <rect id="Rectángulo_361723" data-name="Rectángulo 361723" width="170" height="43.566" rx="21.783" transform="translate(1223.96 744.705)" fill="#cee284"/>
    <text id="Técnica" transform="translate(1302.813 770.338)" fill="#12263f" font-size="12" font-family="Roboto-Regular, Roboto"><tspan x="-21.07" y="0">Técnica</tspan></text>
    <g id="Grupo_1084111" data-name="Grupo 1084111" transform="translate(1295.894 789.283)">
      <line id="Línea_154-26" data-name="Línea 154" y2="72.759" transform="translate(8.568 0)" fill="none" stroke="#0b481e" stroke-width="3"/>
      <path id="Trazado_118034-23" data-name="Trazado 118034" d="M-11969.333-9290.667l8.713,5.228,8.714-5.228" transform="translate(11969.333 9358.488)" fill="none" stroke="#0b481e" stroke-linecap="round" stroke-width="3"/>
    </g>
    <rect id="Rectángulo_361724" data-name="Rectángulo 361724" width="170" height="50" rx="25" transform="translate(1406.937 768.923)" fill="#ffe9e1"/>
    <rect id="Rectángulo_361725" data-name="Rectángulo 361725" width="170" height="50" rx="25" transform="translate(1406.937 887.025)" fill="#ffe9e1"/>
    <rect id="Rectángulo_361726" data-name="Rectángulo 361726" width="170" height="50" rx="25" transform="translate(1406.937 827.975)" fill="#ffe9e1"/>
    <text id="Altura_de_la_planta" data-name="Altura de la planta" transform="translate(1487.875 799.37)" fill="#12263f" font-size="12" font-family="Roboto-Regular, Roboto"><tspan x="-48.173" y="0">Altura de la planta</tspan></text>
    <text id="Biomasa_seca_y_verde" data-name="Biomasa seca y verde" transform="translate(1488.521 916.041)" fill="#12263f" font-size="12" font-family="Roboto-Regular, Roboto"><tspan x="-58.143" y="0">Biomasa seca y verde</tspan></text>
    <text id="Área_foliar" data-name="Área foliar" transform="translate(1489 859.004)" fill="#12263f" font-size="12" font-family="Roboto-Regular, Roboto"><tspan x="-27.583" y="0">Área foliar</tspan></text>
    <rect id="Rectángulo_361727" data-name="Rectángulo 361727" width="170" height="50" rx="25" transform="translate(1406.937 944.789)" fill="#ffe9e1"/>
    <text id="_de_enraizamiento" data-name="% de enraizamiento" transform="translate(1487.004 974.82)" fill="#12263f" font-size="12" font-family="Roboto-Regular, Roboto"><tspan x="-51.814" y="0">% de enraizamiento</tspan></text>
    <g id="Grupo_1084112" data-name="Grupo 1084112" transform="translate(1389.125 796.399)">
      <line id="Línea_154-27" data-name="Línea 154" y2="241.4" transform="translate(0 0)" fill="none" stroke="#0b481e" stroke-width="3"/>
    </g>
    <g id="Grupo_1084113" data-name="Grupo 1084113" transform="translate(1305.042 872.629) rotate(-90)">
      <line id="Línea_154-28" data-name="Línea 154" y2="77.334" transform="translate(8.568)" fill="none" stroke="#0b481e" stroke-width="3"/>
      <path id="Trazado_118034-24" data-name="Trazado 118034" d="M0,0,8.713,5.227,17.426,0" transform="translate(0 72.397)" fill="none" stroke="#0b481e" stroke-linecap="round" stroke-width="3"/>
    </g>
    <g id="Grupo_1084114" data-name="Grupo 1084114" transform="translate(1387.646 803.954) rotate(-90)">
      <line id="Línea_154-29" data-name="Línea 154" y2="12.198" transform="translate(8.568)" fill="none" stroke="#0b481e" stroke-width="3"/>
      <path id="Trazado_118034-25" data-name="Trazado 118034" d="M0,0,8.713,5.227,17.426,0" transform="translate(0 7.26)" fill="none" stroke="#0b481e" stroke-linecap="round" stroke-width="3"/>
    </g>
    <g id="Grupo_1084115" data-name="Grupo 1084115" transform="translate(1388.253 862.332) rotate(-90)">
      <line id="Línea_154-30" data-name="Línea 154" y2="11.59" transform="translate(8.568)" fill="none" stroke="#0b481e" stroke-width="3"/>
      <path id="Trazado_118034-26" data-name="Trazado 118034" d="M0,0,8.713,5.227,17.426,0" transform="translate(0 6.652)" fill="none" stroke="#0b481e" stroke-linecap="round" stroke-width="3"/>
    </g>
    <g id="Grupo_1084116" data-name="Grupo 1084116" transform="translate(1388.253 911.996) rotate(-90)">
      <line id="Línea_154-31" data-name="Línea 154" y2="12.79" transform="translate(8.568)" fill="none" stroke="#0b481e" stroke-width="3"/>
      <path id="Trazado_118034-27" data-name="Trazado 118034" d="M0,0,8.713,5.227,17.426,0" transform="translate(0 7.853)" fill="none" stroke="#0b481e" stroke-linecap="round" stroke-width="3"/>
    </g>
    <g id="Grupo_1084117" data-name="Grupo 1084117" transform="translate(1388.253 980.988) rotate(-90)">
      <line id="Línea_154-32" data-name="Línea 154" y2="12.79" transform="translate(8.568)" fill="none" stroke="#0b481e" stroke-width="3"/>
      <path id="Trazado_118034-28" data-name="Trazado 118034" d="M0,0,8.713,5.227,17.426,0" transform="translate(0 7.853)" fill="none" stroke="#0b481e" stroke-linecap="round" stroke-width="3"/>
    </g>
    <text id="Evalúa" transform="translate(1271.289 814.811)" fill="#12263f" font-size="12" font-family="Roboto-Regular, Roboto"><tspan x="-17.487" y="0">Evalúa</tspan></text>
    <rect id="Rectángulo_361728" data-name="Rectángulo 361728" width="170" height="67.962" rx="30" transform="translate(1408.679 1001.196)" fill="#ffe9e1"/>
    <text id="Incidencia_y_severidad_de_problemas_fitosanitarios" data-name="Incidencia y severidad
de problemas 
fitosanitarios" transform="translate(1490.875 1026.9)" fill="#12263f" font-size="12" font-family="Roboto-Regular, Roboto"><tspan x="-58.919" y="0">Incidencia y severidad</tspan><tspan x="-37.91" y="15">de problemas </tspan><tspan x="-34.995" y="30">fitosanitarios</tspan></text>
    <g id="Grupo_1084118" data-name="Grupo 1084118" transform="translate(1388.036 1045.396) rotate(-90)">
      <line id="Línea_154-33" data-name="Línea 154" y2="12.007" transform="translate(8.568)" fill="none" stroke="#0b481e" stroke-width="3"/>
      <path id="Trazado_118034-29" data-name="Trazado 118034" d="M0,0,8.713,5.227,17.426,0" transform="translate(0 7.069)" fill="none" stroke="#0b481e" stroke-linecap="round" stroke-width="3"/>
    </g>
    <line id="Línea_3873" data-name="Línea 3873" x1="284.483" y1="45.308" transform="translate(1017.774 671.514)" fill="none" stroke="#0b481e" stroke-linecap="round" stroke-width="3"/>
    <g id="Grupo_1084119" data-name="Grupo 1084119" transform="translate(1295.723 716.04)">
      <line id="Línea_154-34" data-name="Línea 154" y2="22.003" transform="translate(8.567 0)" fill="none" stroke="#0b481e" stroke-width="3"/>
      <path id="Trazado_118034-30" data-name="Trazado 118034" d="M-11969.333-9290.667l8.713,5.228,8.714-5.228" transform="translate(11969.333 9307.732)" fill="none" stroke="#0b481e" stroke-linecap="round" stroke-width="3"/>
    </g>
    <text id="De_carácter" data-name="De carácter" transform="translate(1162.216 715.445)" fill="#12263f" font-size="12" font-family="Roboto-Regular, Roboto"><tspan x="-30.606" y="0">De carácter</tspan></text>
    <rect id="Rectángulo_361729" data-name="Rectángulo 361729" width="168.163" height="50" rx="25" transform="translate(1608.866 742.357)" fill="#cee284"/>
    <text id="Acciones_de_mejora" data-name="Acciones de mejora" transform="translate(1693.124 772.14)" fill="#12263f" font-size="12" font-family="Roboto-Regular, Roboto"><tspan x="-52.658" y="0">Acciones de mejora</tspan></text>
    <g id="Grupo_1084120" data-name="Grupo 1084120" transform="translate(1683.799 794.37)">
      <line id="Línea_154-35" data-name="Línea 154" y2="68.34" transform="translate(8.567 0)" fill="none" stroke="#0b481e" stroke-width="3"/>
      <path id="Trazado_118034-31" data-name="Trazado 118034" d="M-11969.333-9290.667l8.713,5.228,8.714-5.228" transform="translate(11969.333 9354.069)" fill="none" stroke="#0b481e" stroke-linecap="round" stroke-width="3"/>
    </g>
    <text id="A_través" data-name="A través" transform="translate(1661.639 819.464)" fill="#12263f" font-size="12" font-family="Roboto-Regular, Roboto"><tspan x="-21.671" y="0">A través</tspan></text>
    <line id="Línea_3874" data-name="Línea 3874" x1="495.196" y1="45.22" transform="translate(1195.257 669.859)" fill="none" stroke="#0b481e" stroke-linecap="round" stroke-width="3"/>
    <text id="Permite" transform="translate(1599.676 723.445)" fill="#12263f" font-size="12" font-family="Roboto-Regular, Roboto"><tspan x="-20.848" y="0">Permite</tspan></text>
    <g id="Grupo_1084121" data-name="Grupo 1084121" transform="translate(1683.628 715.124)">
      <line id="Línea_154-36" data-name="Línea 154" y2="23.253" transform="translate(8.568 0)" fill="none" stroke="#0b481e" stroke-width="3"/>
      <path id="Trazado_118034-32" data-name="Trazado 118034" d="M-11969.333-9290.667l8.713,5.228,8.714-5.228" transform="translate(11969.333 9308.982)" fill="none" stroke="#0b481e" stroke-linecap="round" stroke-width="3"/>
    </g>
    <rect id="Rectángulo_361730" data-name="Rectángulo 361730" width="168.163" height="62" rx="30" transform="translate(1608.866 870.462)" fill="#cee284"/>
    <text id="Marco_de_evaluación_de_sustentabilidad" data-name="Marco de evaluación
de sustentabilidad" transform="translate(1695.452 898.75)" fill="#12263f" font-size="12" font-family="Roboto-Regular, Roboto"><tspan x="-55.195" y="0">Marco de evaluación</tspan><tspan x="-48.981" y="15">de sustentabilidad</tspan></text>
  </g>
</svg>
