<svg xmlns="http://www.w3.org/2000/svg" width="1240" height="500" viewBox="0 0 1240 500">
  <g id="Grupo_80164" data-name="Grupo 80164" transform="translate(-180 -492)">
    <rect id="Rectángulo_33768" data-name="Rectángulo 33768" width="1240" height="500" transform="translate(180 492)" fill="#adce32"/>
    <path id="Icon_metro-video-camera" data-name="Icon metro-video-camera" d="M61.8,30.461A24.677,24.677,0,1,1,86.473,55.138,24.677,24.677,0,0,1,61.8,30.461Zm-59.225,0A24.677,24.677,0,1,1,27.248,55.138,24.677,24.677,0,0,1,2.571,30.461ZM121.02,79.815V65.009a9.9,9.9,0,0,0-9.871-9.871H12.442a9.9,9.9,0,0,0-9.871,9.871v49.354a9.9,9.9,0,0,0,9.871,9.871H111.15a9.9,9.9,0,0,0,9.871-9.871V99.557L160.5,124.234v-69.1L121.02,79.815Zm-19.742,24.677H22.312V74.88h78.966Z" transform="translate(718.43 677.216)" fill="#0b481e"/>
  </g>
</svg>
