<svg xmlns="http://www.w3.org/2000/svg" width="105.194" height="105.194" viewBox="0 0 105.194 105.194">
  <g id="Grupo_1084164" data-name="Grupo 1084164" transform="translate(-284.806 -1973.221)">
    <g id="Grupo_1084148" data-name="Grupo 1084148" transform="translate(284.806 1973.221)">
      <g id="Grupo_1083552" data-name="Grupo 1083552" transform="translate(0 0)">
        <g id="Grupo_1083548" data-name="Grupo 1083548" transform="translate(0 0)">
          <g id="Grupo_1083547" data-name="Grupo 1083547" transform="translate(0 0)">
            <g id="Grupo_1083546" data-name="Grupo 1083546">
              <circle id="Elipse_4735" data-name="Elipse 4735" cx="51.259" cy="51.259" r="51.259" transform="matrix(0.026, -1, 1, 0.026, 0, 102.478)" fill="#fdb70a"/>
            </g>
          </g>
        </g>
      </g>
    </g>
    <g id="abono" transform="translate(315.5 1995.113)">
      <path id="Trazado_716865" data-name="Trazado 716865" d="M251.212,390.207a123.042,123.042,0,0,1-14.238-.715,38.57,38.57,0,0,1-7.179-1.43c-.266-.086-.525-.183-.788-.283a2.155,2.155,0,0,1-1.38-2.623,15.2,15.2,0,0,1,2.876-5.729,2.294,2.294,0,0,0,.449-2.055,59.989,59.989,0,0,1-1.357-9.7,111.376,111.376,0,0,1-.173-12.555,66.281,66.281,0,0,1,1.646-13.35,2.052,2.052,0,0,0-.356-1.549c-.981-1.716-1.972-3.431-2.9-5.177a1.872,1.872,0,0,1,.748-2.467,18.486,18.486,0,0,1,5.21-2.035,52.243,52.243,0,0,1,8.572-1.367c3.352-.3,6.713-.4,10.078-.362a78.872,78.872,0,0,1,13.536,1.091,25.753,25.753,0,0,1,6.294,1.845,10.249,10.249,0,0,1,1.42.8,2,2,0,0,1,.562,2.6q-.941,1.553-1.919,3.079c-.309.479-.645.941-1,1.393a1.776,1.776,0,0,0-.333,1.663,50.387,50.387,0,0,1,1.453,8.675,105.307,105.307,0,0,1,.392,12.708,74.364,74.364,0,0,1-1.579,14.683c-.037.156-.073.313-.113.465a2.214,2.214,0,0,0,.333,1.9,26.515,26.515,0,0,1,2.846,5.357,2.011,2.011,0,0,1-1.383,2.963,33.22,33.22,0,0,1-6.228,1.33A124.556,124.556,0,0,1,251.212,390.207Zm21.5-4.017c-.136-.333-.216-.572-.309-.788a28.552,28.552,0,0,0-2.584-4.712,4.093,4.093,0,0,1-.589-3.388c.183-.735.352-1.473.489-2.218a83.269,83.269,0,0,0,1.174-13.453,102.978,102.978,0,0,0-.462-12.11,46.03,46.03,0,0,0-1.33-7.807,3.791,3.791,0,0,1,.692-3.375c1-1.367,1.875-2.8,2.833-4.243l-.2-.123c-.269-.143-.532-.3-.808-.429a28.2,28.2,0,0,0-7.837-2.052,84.869,84.869,0,0,0-12.01-.758,98.313,98.313,0,0,0-10.254.459,48.544,48.544,0,0,0-7.807,1.33,17.624,17.624,0,0,0-3.867,1.463c-.17.09-.333.163-.193.419a42.853,42.853,0,0,0,2.66,4.765,3.7,3.7,0,0,1,.579,3.152c-.186.775-.369,1.553-.512,2.327a74.764,74.764,0,0,0-1.15,13.337c0,3.385.12,6.776.3,10.161a48.182,48.182,0,0,0,1.26,8.791,4.09,4.09,0,0,1-.821,3.7,13.154,13.154,0,0,0-2.51,4.851c-.08.3-.023.475.3.562.549.153,1.087.349,1.639.489a58.543,58.543,0,0,0,10.687,1.5c4.4.289,8.795.332,13.2.213a87.243,87.243,0,0,0,13.416-1.16C270.018,386.862,271.328,386.51,272.715,386.191Z" transform="translate(-227.546 -328.801)"/>
      <path id="Trazado_716867" data-name="Trazado 716867" d="M252,390.475a15.362,15.362,0,1,1,15.365,15.362A15.362,15.362,0,0,1,252,390.475Zm16.356,7.727a1.328,1.328,0,0,0,.057-.273c-.057-1.593-.12-3.185-.173-4.778a.638.638,0,0,0-.452-.605,6.513,6.513,0,0,1-3.817-8.133c.4-1.377.914-2.717,1.377-4.076.07-.206.136-.412.236-.721a5.833,5.833,0,0,0,1.45,2.83c.462.515.938,1,1.41,1.52a6.6,6.6,0,0,1,.362,8.575.542.542,0,0,0-.073.422,29.263,29.263,0,0,1,.8,5.473c.043.618.066,1.237.1,1.932.569-.785,1.081-1.52,1.626-2.231a1.077,1.077,0,0,0,.19-1.084,5.5,5.5,0,0,1,2.308-5.772,5,5,0,0,0,2.351-2.424,30.918,30.918,0,0,1,.332,3.85,4.961,4.961,0,0,1-3.358,4.761,2.381,2.381,0,0,0-1.556,1.367c-.555,1.217-1.23,2.384-1.8,3.6a5.153,5.153,0,0,0-.239,1.273A13.124,13.124,0,0,0,280.505,389a13.425,13.425,0,1,0-12.728,14.813c.156-1.3.332-2.617.462-3.934a.462.462,0,0,0-.1-.332c-.914-1.031-1.835-2.062-2.77-3.079a.665.665,0,0,0-.416-.153c-.529-.027-1.064.017-1.589-.05a5.194,5.194,0,0,1-3.914-2.178c-.9-1.33-1.047-2.906-1.483-4.389a13.708,13.708,0,0,0,1.3.589,7.9,7.9,0,0,0,1.357.333,5.064,5.064,0,0,1,4.519,3.874,3.914,3.914,0,0,0,1.722,2.461,14.143,14.143,0,0,1,1.483,1.25Z" transform="translate(-243.869 -359.742)"/>
    </g>
  </g>
</svg>
