<svg xmlns="http://www.w3.org/2000/svg" width="83.385" height="83.395" viewBox="0 0 83.385 83.395">
  <g id="vivero_2" data-name="vivero 2" transform="translate(0.014 0.005)">
    <path id="Trazado_716869" data-name="Trazado 716869" d="M294.59,430.29c-5.42-4.84-6-10.41-2.82-16.78,2-4,3.69-8.25,5.51-12.38l2,.5c0,1.62.42,3.4-.08,4.85-1.33,3.86-3.19,7.53-4.6,11.37-1.86,5.07-.14,7.65,5.06,7.48,6-.2,12.07-.55,18.07-1.18,1.34-.13,2.53-1.67,3.78-2.57-1.19-.68-2.38-2-3.56-1.95-5.47.07-10.95.51-17.17.85a8.559,8.559,0,0,1,.48-3.11,36.219,36.219,0,0,1,3-4.31c3.49-5.23,8.52-9.6,7.22-17.11-2.74-15.88-6.58-23.81-15.73-30.34-3.41,4-7.37,7.09-13,4-4.28-2.35-6.68-8.44-5.33-13.79,1.22-4.87,3.81-8.75,9.39-8.91s8,3.73,9.9,8.37c1.33,3.24,2.87,6.72,5.28,9.13,9.77,9.77,12.94,22.15,13.4,35.13.17,4.76-3.24,9.65-5.25,15.1,2.36,0,5.31.08,8.24,0,4.58-.15,7.06,2.23,7.32,6.54.26,4.49-1.9,7.37-6.73,7.83-3.44.32-6.87.85-10.3,1.29Zm1.16-71.84c-4.16-3.08-6.7-6.39-9.05-6.26-2,.1-4.81,4-5.32,6.61-.71,3.59,1.51,7.53,5.7,6.84C289.68,365.21,291.8,361.88,295.75,358.45Z" transform="translate(-242.35 -346.91)"/>
    <path id="Trazado_716870" data-name="Trazado 716870" d="M253.79,388.1c4.45-3.36,7.74-6.64,11.69-8.56,3.37-1.64,5.88.13,5.88,4.49,0,6.41-3.15,12.3-9,14.37-3.09,1.1-3.89,2.64-3.66,5.5a27.089,27.089,0,0,1,0,5.25c-.49,4.44,0,8.17,5.38,9.12a3.21,3.21,0,0,1,1.89,1.29c1.06,1.62,1.91,3.36,2.84,5.05-1.75-.4-3.74-.39-5.2-1.27-5.14-3.1-9.85-2.86-14.63.74-1,.73-2.55.63-3.86.92.37-1.44.44-3.07,1.18-4.27a5.57,5.57,0,0,1,3.19-2.41c5.41-1.08,6.06-4.84,5.16-9.15-.35-1.66-1.68-3.81-3.12-4.42-5.69-2.42-8.41-6.85-9.12-12.56-.26-2.07.15-5.26,1.49-6.21s4.41-.35,6.56.18a9.74,9.74,0,0,1,3.33,1.94Zm14.39-2-2.07-1.82c-4.6,1.25-6.89,4.32-6.83,9.25l1.59,1.32q3.65-4.37,7.31-8.74Zm-19.86,3.37-1.56,1.42c.63,6.52,2.51,8.54,9.38,8.2Z" transform="translate(-242.35 -346.91)"/>
    <path id="Trazado_716871" data-name="Trazado 716871" d="M298.69,383.82c-.19,1.6,0,3.38-.64,4.78-5.34,11.77-13.2,20.95-25.88,25.35-3.22,1.12-6.65,2.4-8-1.32-.92-2.56.51-6,1-9,.08-.43.83-.81,1.34-1.07,9.6-4.94,16.06-12.64,20.17-22.52.53-1.26,1.76-2.24,2.86-3.6,1.82,4.12.25,10.25-7,19.35-4.15,5.2-10.49,8.65-15.29,13.86,6.68-2.09,13.75-3.88,18.37-9.2,4.45-5.15,7.53-11.49,11.21-17.3Z" transform="translate(-242.35 -346.91)"/>
    <path id="Trazado_716872" data-name="Trazado 716872" d="M284.63,411.27c-.84,2.27-1.54,4.6-2.56,6.79-1.65,3.52-1.7,5.91,3.11,6.35,1.14.11,2.15,1.55,3.22,2.37-1.15.76-2.24,2-3.46,2.17-4.67.6-8.55-2.84-7.79-7.67.61-3.86,2.85-7.46,4.37-11.17Z" transform="translate(-242.35 -346.91)"/>
    <path id="Trazado_716873" data-name="Trazado 716873" d="M282.19,371.53c1.53,7-2.4,11.81-4.18,17.56C274.52,385.67,276.75,376.72,282.19,371.53Z" transform="translate(-242.35 -346.91)"/>
  </g>
</svg>
