<svg xmlns="http://www.w3.org/2000/svg" xmlns:xlink="http://www.w3.org/1999/xlink" width="350" height="61" viewBox="0 0 350 61">
  <defs>
    <filter id="Trazado_501624" x="293" y="3.5" width="57" height="57" filterUnits="userSpaceOnUse">
      <feOffset dy="3" input="SourceAlpha"/>
      <feGaussianBlur stdDeviation="3" result="blur"/>
      <feFlood flood-opacity="0.161"/>
      <feComposite operator="in" in2="blur"/>
      <feComposite in="SourceGraphic"/>
    </filter>
  </defs>
  <g id="Grupo_1084132" data-name="Grupo 1084132" transform="translate(1882 9427)">
    <rect id="Rectángulo_361731" data-name="Rectángulo 361731" width="326" height="61" rx="20" transform="translate(-1882 -9427)" fill="#0b481e"/>
    <text id="Incidencia_I_" data-name="Incidencia (I)  = " transform="translate(-1857.5 -9405)" fill="#fff" font-size="12" font-family="Roboto-Italic, Roboto" font-style="italic"><tspan x="0" y="13" xml:space="preserve">Incidencia (I)  = </tspan></text>
    <text id="Número_de_plantas_enfermas_100" data-name="Número de plantas enfermas*100" transform="translate(-1681.956 -9403.533)" fill="#fff" font-size="10" font-family="Roboto-Italic, Roboto" font-style="italic"><tspan x="-73.674" y="0">Número de plantas enfermas*100</tspan></text>
    <text id="Total_sanas_enfermas_observadas" data-name="Total (sanas + enfermas)observadas" transform="translate(-1684.956 -9381.5)" fill="#fff" font-size="10" font-family="Roboto-Italic, Roboto" font-style="italic"><tspan x="-79.893" y="0">Total (sanas + enfermas)observadas</tspan></text>
    <g id="Grupo_1084122" data-name="Grupo 1084122" transform="translate(-1580 -9417.026)">
      <g transform="matrix(1, 0, 0, 1, -302, -9.97)" filter="url(#Trazado_501624)">
        <path id="Trazado_501624-2" data-name="Trazado 501624" d="M19.5,0A19.5,19.5,0,1,1,0,19.5,19.5,19.5,0,0,1,19.5,0Z" transform="translate(341 48.5) rotate(180)" fill="#adce32"/>
      </g>
      <text id="_" data-name="+" transform="translate(14.5 26.026)" fill="#12263f" font-size="19" font-family="Roboto-Black, Roboto" font-weight="800"><tspan x="0" y="0">+</tspan></text>
    </g>
    <path id="Trazado_716878" data-name="Trazado 716878" d="M-4318.812-1622.677h164.3" transform="translate(2553.857 -7773.823)" fill="none" stroke="#fff" stroke-width="2"/>
  </g>
</svg>
