<svg xmlns="http://www.w3.org/2000/svg" width="72.923" height="86.904" viewBox="0 0 72.923 86.904">
  <g id="monitoreo" transform="translate(0.02 -0.05)">
    <path id="Trazado_716828" data-name="Trazado 716828" d="M280.256,388.756h-7.908a5.793,5.793,0,0,0-3.8,1.359A4.3,4.3,0,0,0,267,393.4v67.39c.007,2.533,2.388,4.583,5.324,4.583H334.6c2.936,0,5.317-2.05,5.324-4.583V393.4c0-2.537-2.383-4.593-5.324-4.593h-7.908c-.068-2.466-2.359-4.456-5.216-4.532h-5.121c-.686-3.352-4.058-5.8-8-5.806H299.74c-3.943.009-7.31,2.455-7.991,5.806H285.46c-2.831.08-5.106,2.038-5.2,4.48Zm46.293,7.039H330.4V455.3H276.528V395.8h3.954a5.216,5.216,0,0,0,4.99,3.329h36.015a5.228,5.228,0,0,0,5.062-3.329Zm9.647-2.446v67.39a1.422,1.422,0,0,1-1.513,1.295H272.348a1.409,1.409,0,0,1-1.5-1.295V393.4a1.2,1.2,0,0,1,.436-.919,1.619,1.619,0,0,1,1.065-.376h7.9v.442h-5.609a1.789,1.789,0,0,0-1.906,1.644V457a1.528,1.528,0,0,0,.555,1.166,2.058,2.058,0,0,0,1.351.479h57.619A1.789,1.789,0,0,0,334.159,457V394.141a1.789,1.789,0,0,0-1.906-1.644h-5.514v-.442h7.884a1.628,1.628,0,0,1,1.091.393,1.2,1.2,0,0,1,.422.953Zm-52.081-4.336a1.469,1.469,0,0,1,1.429-1.5h8.063a1.8,1.8,0,0,0,1.917-1.644v-.432a4.047,4.047,0,0,1,4.3-3.72h8.611a4.06,4.06,0,0,1,4.311,3.72v.432h0a1.789,1.789,0,0,0,1.906,1.644h6.908a1.456,1.456,0,0,1,1.417,1.5V390.4h0v3.925a1.456,1.456,0,0,1-1.417,1.5H285.484a1.469,1.469,0,0,1-1.429-1.5V389Z" transform="translate(-267.02 -378.42)" fill="#09070a"/>
    <path id="Trazado_716829" data-name="Trazado 716829" d="M296.644,389.938a4,4,0,1,0-4-4A4,4,0,0,0,296.644,389.938Zm0-5.262a1.266,1.266,0,1,1-1.258,1.266,1.266,1.266,0,0,1,1.258-1.266Z" transform="translate(-260.572 -378.92)" fill="#09070a"/>
    <path id="Trazado_716830" data-name="Trazado 716830" d="M277.6,407.129c0,.757.986,1.373,2.207,1.377H329.64c1.155-.057,2.046-.655,2.046-1.373s-.891-1.317-2.046-1.373H279.807C278.588,405.76,277.6,406.373,277.6,407.129Z" transform="translate(-268.551 -377.482)" fill="#09070a"/>
    <path id="Trazado_716831" data-name="Trazado 716831" d="M297.5,416.87H278.969a1.369,1.369,0,1,0,0,2.738H297.5a1.369,1.369,0,1,0,0-2.738Z" transform="translate(-262.566 -377.101)" fill="#09070a"/>
    <path id="Trazado_716832" data-name="Trazado 716832" d="M297.5,429.05H278.969a1.369,1.369,0,1,0,0,2.738H297.5a1.369,1.369,0,1,0,0-2.738Z" transform="translate(-262.566 -376.682)" fill="#09070a"/>
    <path id="Trazado_716833" data-name="Trazado 716833" d="M297.5,441.23H278.969a1.369,1.369,0,1,0,0,2.738H297.5a1.369,1.369,0,1,0,0-2.738Z" transform="translate(-262.566 -376.264)" fill="#09070a"/>
    <path id="Trazado_716834" data-name="Trazado 716834" d="M311.661,413.237l-3.482,3.628-.958-1.318a1.369,1.369,0,0,0-2.2,1.626l1.917,2.652a1.386,1.386,0,0,0,1.018.548h.086a1.36,1.36,0,0,0,.992-.428l4.6-4.808a1.369,1.369,0,0,0-1.976-1.891Z" transform="translate(-257.109 -376.786)" fill="#09070a"/>
    <path id="Trazado_716835" data-name="Trazado 716835" d="M311.647,425.929l-3.482,3.636-.958-1.3a1.369,1.369,0,1,0-2.2,1.626l1.917,2.61a1.4,1.4,0,0,0,1.018.556h.086a1.386,1.386,0,0,0,.992-.419l4.6-4.808a1.371,1.371,0,0,0-1.976-1.9Z" transform="translate(-257.089 -376.18)" fill="#09070a"/>
    <path id="Trazado_716836" data-name="Trazado 716836" d="M311.647,438.646l-3.482,3.662-.958-1.3a1.369,1.369,0,1,0-2.2,1.626l1.917,2.567a1.394,1.394,0,0,0,1.018.556h.086a1.352,1.352,0,0,0,.993-.419l4.6-4.809a1.371,1.371,0,0,0-1.976-1.9Z" transform="translate(-257.089 -375.575)" fill="#09070a"/>
  </g>
</svg>
