<svg xmlns="http://www.w3.org/2000/svg" width="89.333" height="116.721" viewBox="0 0 89.333 116.721">
  <g id="abono" transform="translate(0 0)">
    <path id="Trazado_716865" data-name="Trazado 716865" d="M272.527,445.516a233.877,233.877,0,0,1-27.062-1.359,73.311,73.311,0,0,1-13.645-2.718c-.506-.164-1-.348-1.5-.537a4.1,4.1,0,0,1-2.623-4.986,28.888,28.888,0,0,1,5.467-10.889,4.361,4.361,0,0,0,.853-3.906,114.021,114.021,0,0,1-2.579-18.441,211.7,211.7,0,0,1-.329-23.864c.36-8.538,1.049-17.064,3.128-25.374a3.9,3.9,0,0,0-.676-2.945c-1.864-3.261-3.748-6.522-5.511-9.84a3.558,3.558,0,0,1,1.422-4.689,35.134,35.134,0,0,1,9.9-3.868,99.291,99.291,0,0,1,16.293-2.6c6.37-.562,12.76-.752,19.156-.689a149.908,149.908,0,0,1,25.728,2.073,48.949,48.949,0,0,1,11.964,3.507,19.478,19.478,0,0,1,2.7,1.523,3.792,3.792,0,0,1,1.068,4.936q-1.789,2.951-3.647,5.852c-.588.91-1.226,1.789-1.9,2.648a3.375,3.375,0,0,0-.632,3.16A95.776,95.776,0,0,1,312.873,369a200.168,200.168,0,0,1,.746,24.154c-.246,9.385-.9,18.726-3,27.908-.069.3-.139.594-.215.885a4.209,4.209,0,0,0,.632,3.6,50.4,50.4,0,0,1,5.41,10.181c1.068,2.736.164,4.689-2.629,5.631a63.147,63.147,0,0,1-11.837,2.528A236.747,236.747,0,0,1,272.527,445.516Zm40.871-7.634c-.259-.632-.411-1.087-.588-1.5a54.272,54.272,0,0,0-4.911-8.955,7.78,7.78,0,0,1-1.119-6.44c.348-1.4.67-2.8.929-4.215a158.273,158.273,0,0,0,2.231-25.57,195.746,195.746,0,0,0-.878-23.017,87.491,87.491,0,0,0-2.528-14.839,7.2,7.2,0,0,1,1.315-6.415c1.9-2.6,3.564-5.321,5.385-8.064l-.379-.234c-.512-.272-1.011-.569-1.536-.815a53.6,53.6,0,0,0-14.9-3.9,161.3,161.3,0,0,0-22.827-1.441,186.858,186.858,0,0,0-19.49.872,92.274,92.274,0,0,0-14.839,2.528,33.5,33.5,0,0,0-7.35,2.781c-.322.171-.632.31-.367.8,1.656,3.034,3.008,6.225,5.056,9.056a7.034,7.034,0,0,1,1.1,5.991c-.354,1.473-.7,2.951-.973,4.424a142.108,142.108,0,0,0-2.187,25.349c0,6.434.228,12.88.575,19.314a91.576,91.576,0,0,0,2.4,16.71,7.774,7.774,0,0,1-1.561,7.04,25,25,0,0,0-4.772,9.221c-.152.575-.044.9.562,1.068,1.043.291,2.067.664,3.116.929a111.274,111.274,0,0,0,20.312,2.844c8.355.55,16.716.632,25.084.4a165.826,165.826,0,0,0,25.5-2.206C308.272,439.158,310.762,438.488,313.4,437.881Z" transform="translate(-227.546 -328.801)"/>
    <path id="Trazado_716866" data-name="Trazado 716866" d="M315.473,440.037c-2.635.632-5.125,1.264-7.647,1.738a165.689,165.689,0,0,1-25.5,2.206c-8.368.215-16.729.145-25.084-.4a111.265,111.265,0,0,1-20.312-2.844c-1.049-.265-2.073-.632-3.116-.929-.632-.164-.714-.493-.562-1.068a25,25,0,0,1,4.772-9.221,7.773,7.773,0,0,0,1.561-7.04,91.576,91.576,0,0,1-2.4-16.71c-.348-6.434-.594-12.88-.575-19.314A142.109,142.109,0,0,1,238.8,361.1c.272-1.485.632-2.964.973-4.424a7.034,7.034,0,0,0-1.1-5.991c-2.041-2.831-3.394-6.023-5.056-9.056-.265-.487.044-.632.367-.8a33.5,33.5,0,0,1,7.35-2.781,92.273,92.273,0,0,1,14.845-2.547,186.861,186.861,0,0,1,19.459-.841,161.3,161.3,0,0,1,22.827,1.441,53.815,53.815,0,0,1,14.9,3.9c.525.246,1.024.543,1.536.815l.379.234c-1.82,2.743-3.514,5.467-5.385,8.064a7.13,7.13,0,0,0-1.315,6.415,87.488,87.488,0,0,1,2.528,14.839,195.732,195.732,0,0,1,.878,23.017,158.27,158.27,0,0,1-2.231,25.57c-.259,1.416-.581,2.819-.929,4.215a7.78,7.78,0,0,0,1.119,6.44,54.274,54.274,0,0,1,4.942,8.9C315.063,438.95,315.227,439.379,315.473,440.037Zm-70.4-50.666a29.2,29.2,0,1,0,29.277-29.119A29.324,29.324,0,0,0,245.076,389.37Z" transform="translate(-229.622 -330.957)" fill="#fff"/>
    <path id="Trazado_716867" data-name="Trazado 716867" d="M252,404.274a29.2,29.2,0,1,1,29.2,29.2,29.2,29.2,0,0,1-29.2-29.2Zm31.087,14.687a2.527,2.527,0,0,0,.107-.518c-.107-3.027-.228-6.054-.329-9.082a1.213,1.213,0,0,0-.859-1.15c-6.453-3.027-9.151-8.785-7.255-15.458.752-2.616,1.738-5.163,2.616-7.748.133-.392.259-.784.449-1.371a11.085,11.085,0,0,0,2.755,5.378c.878.98,1.782,1.9,2.68,2.888a11.692,11.692,0,0,1,3.217,6.636c.442,3.558-.076,6.851-2.528,9.663a1.03,1.03,0,0,0-.139.8,55.615,55.615,0,0,1,1.517,10.4c.082,1.175.126,2.351.19,3.672,1.081-1.491,2.054-2.888,3.09-4.241a2.048,2.048,0,0,0,.36-2.06c-.98-3.16.373-8.374,4.386-10.971,1.814-1.182,3.672-2.338,4.468-4.607a58.77,58.77,0,0,1,.632,7.318,9.429,9.429,0,0,1-6.383,9.05,4.525,4.525,0,0,0-2.958,2.6c-1.055,2.313-2.338,4.531-3.419,6.838a9.8,9.8,0,0,0-.455,2.42,24.945,24.945,0,0,0,20.95-27.953,25.518,25.518,0,1,0-24.193,28.155c.3-2.471.632-4.974.878-7.476a.878.878,0,0,0-.2-.632c-1.738-1.959-3.489-3.918-5.264-5.852a1.264,1.264,0,0,0-.79-.291c-1-.051-2.022.032-3.021-.095-3.021-.379-5.688-1.523-7.439-4.14-1.706-2.528-1.991-5.524-2.819-8.342a26.064,26.064,0,0,0,2.465,1.119,15.011,15.011,0,0,0,2.578.632c4.424.676,7.438,3.04,8.589,7.363a7.438,7.438,0,0,0,3.274,4.677,26.885,26.885,0,0,1,2.819,2.376Z" transform="translate(-236.546 -345.86)"/>
    <path id="Trazado_716868" data-name="Trazado 716868" d="M284.955,420.815a26.879,26.879,0,0,0-2.812-2.408,7.439,7.439,0,0,1-3.274-4.677c-1.15-4.323-4.19-6.686-8.589-7.363a15.013,15.013,0,0,1-2.578-.632,26.057,26.057,0,0,1-2.465-1.119c.828,2.819,1.112,5.827,2.819,8.342a9.914,9.914,0,0,0,7.438,4.14c1,.126,2.016.044,3.021.095a1.264,1.264,0,0,1,.79.291c1.776,1.934,3.526,3.893,5.264,5.852a.878.878,0,0,1,.2.632c-.278,2.528-.581,5.005-.878,7.476a25.666,25.666,0,1,1,24.193-28.155,24.946,24.946,0,0,1-20.95,27.953,9.8,9.8,0,0,1,.455-2.421c1.081-2.307,2.364-4.525,3.419-6.838a4.525,4.525,0,0,1,2.958-2.6,9.429,9.429,0,0,0,6.383-9.05,58.776,58.776,0,0,0-.632-7.318c-.8,2.269-2.654,3.425-4.468,4.607a10.552,10.552,0,0,0-4.373,11,2.048,2.048,0,0,1-.36,2.06c-1.036,1.352-2.01,2.749-3.09,4.241-.063-1.321-.107-2.5-.19-3.672a55.614,55.614,0,0,0-1.517-10.4,1.03,1.03,0,0,1,.139-.8c2.433-2.812,2.951-6.1,2.528-9.663a11.692,11.692,0,0,0-3.217-6.636c-.9-.961-1.8-1.9-2.68-2.888a11.085,11.085,0,0,1-2.755-5.378c-.19.588-.316.98-.449,1.371-.878,2.585-1.864,5.132-2.616,7.748-1.9,6.7.8,12.456,7.23,15.484a1.214,1.214,0,0,1,.859,1.15c.1,3.027.221,6.054.329,9.082A2.528,2.528,0,0,1,284.955,420.815Z" transform="translate(-238.438 -347.714)" fill="#fff"/>
  </g>
</svg>
