<svg xmlns="http://www.w3.org/2000/svg" width="326" height="61" viewBox="0 0 326 61">
  <g id="Grupo_1084160" data-name="Grupo 1084160" transform="translate(1892 8889)">
    <path id="Trazado_716922" data-name="Trazado 716922" d="M20,0H306a20,20,0,0,1,20,20V41a20,20,0,0,1-20,20H20A20,20,0,0,1,0,41V20A20,20,0,0,1,20,0Z" transform="translate(-1892 -8889)" fill="#0b481e"/>
    <path id="Trazado_716923" data-name="Trazado 716923" d="M5.139,10.8q.129-.937-.973-1.371L3.152,9.063l-.34-.146Q1.1,8.137,1.213,6.725A2.292,2.292,0,0,1,1.7,5.471,2.767,2.767,0,0,1,2.833,4.63a3.637,3.637,0,0,1,1.5-.278,3,3,0,0,1,1.38.346,2.222,2.222,0,0,1,.923.917A2.5,2.5,0,0,1,6.92,6.941L5.813,6.936a1.528,1.528,0,0,0-.352-1.22,1.574,1.574,0,0,0-1.172-.444,2.183,2.183,0,0,0-1.342.376A1.466,1.466,0,0,0,2.326,6.7Q2.209,7.579,3.4,8.031l.873.311.439.188A2.206,2.206,0,0,1,6.24,10.791a2.259,2.259,0,0,1-.486,1.245,2.719,2.719,0,0,1-1.146.812,3.949,3.949,0,0,1-1.556.27,3.255,3.255,0,0,1-1.468-.343,2.4,2.4,0,0,1-1.011-.923,2.308,2.308,0,0,1-.3-1.33l1.1.006a1.451,1.451,0,0,0,.413,1.21A1.859,1.859,0,0,0,3.1,12.2a2.349,2.349,0,0,0,1.4-.369A1.437,1.437,0,0,0,5.139,10.8Zm4.752,2.314a2.286,2.286,0,0,1-1.852-.873,3,3,0,0,1-.562-2.174l.029-.252A4.218,4.218,0,0,1,8.065,8.1,3.254,3.254,0,0,1,9.188,6.921a2.618,2.618,0,0,1,1.43-.378,2.016,2.016,0,0,1,1.535.65,2.675,2.675,0,0,1,.609,1.7,4.966,4.966,0,0,1-.023.762l-.064.486H8.531a2.142,2.142,0,0,0,.284,1.465,1.346,1.346,0,0,0,1.163.627,2.255,2.255,0,0,0,1.734-.844l.609.516a2.789,2.789,0,0,1-1.028.9A2.914,2.914,0,0,1,9.891,13.117Zm.674-5.689a1.549,1.549,0,0,0-1.146.445A3.165,3.165,0,0,0,8.643,9.25l3.082.006.023-.094a1.734,1.734,0,0,0-.237-1.228A1.116,1.116,0,0,0,10.564,7.428Zm5.033,4.09L17.883,6.66H19L15.809,13H15L13.758,6.66H14.8Zm6.135,1.6a2.286,2.286,0,0,1-1.852-.873,3,3,0,0,1-.562-2.174l.029-.252a4.218,4.218,0,0,1,.56-1.723,3.254,3.254,0,0,1,1.122-1.175,2.618,2.618,0,0,1,1.43-.378,2.016,2.016,0,0,1,1.535.65,2.675,2.675,0,0,1,.609,1.7,4.966,4.966,0,0,1-.023.762l-.064.486H20.373a2.142,2.142,0,0,0,.284,1.465,1.346,1.346,0,0,0,1.163.627,2.255,2.255,0,0,0,1.734-.844l.609.516a2.789,2.789,0,0,1-1.028.9A2.914,2.914,0,0,1,21.732,13.117Zm.674-5.689a1.549,1.549,0,0,0-1.146.445,3.165,3.165,0,0,0-.776,1.377l3.082.006.023-.094a1.734,1.734,0,0,0-.237-1.228A1.116,1.116,0,0,0,22.406,7.428Zm6.75.2-.5-.053a1.815,1.815,0,0,0-1.605.92L26.273,13H25.213l1.1-6.34,1.025-.006-.158.738a1.9,1.9,0,0,1,1.588-.861,1.945,1.945,0,0,1,.5.088ZM30.357,13H29.3l1.1-6.34h1.055Zm.873-8.654a.58.58,0,0,1,.448.161.6.6,0,0,1,.179.454.625.625,0,0,1-.627.639.584.584,0,0,1-.451-.158A.573.573,0,0,1,30.609,5a.665.665,0,0,1,.176-.457A.62.62,0,0,1,31.23,4.346ZM32.4,9.818a4.933,4.933,0,0,1,.533-1.746,3.023,3.023,0,0,1,1.025-1.166A2.345,2.345,0,0,1,35.3,6.537a1.98,1.98,0,0,1,1.629.773L37.535,4H38.6l-1.559,9H36.07l.111-.68a2.337,2.337,0,0,1-1.852.8,1.751,1.751,0,0,1-1.4-.688,3,3,0,0,1-.562-1.784A5.7,5.7,0,0,1,32.4,9.818Zm1.02.606a2.2,2.2,0,0,0,.3,1.3,1.078,1.078,0,0,0,.926.474,1.916,1.916,0,0,0,1.635-.925l.5-2.926a1.316,1.316,0,0,0-1.277-.89,1.607,1.607,0,0,0-1.1.377,2.442,2.442,0,0,0-.727,1.106A4.561,4.561,0,0,0,33.416,10.424ZM42.592,13a1.42,1.42,0,0,1-.041-.334l.018-.334a2.6,2.6,0,0,1-1.852.785,1.894,1.894,0,0,1-1.362-.53,1.6,1.6,0,0,1-.478-1.3,1.952,1.952,0,0,1,.882-1.573,3.754,3.754,0,0,1,2.165-.565l1.107.006.07-.5a1.158,1.158,0,0,0-.22-.9,1.06,1.06,0,0,0-.835-.343,1.635,1.635,0,0,0-.964.267,1.135,1.135,0,0,0-.513.735L39.5,8.418a1.7,1.7,0,0,1,.434-.987,2.523,2.523,0,0,1,.979-.668,3.161,3.161,0,0,1,1.236-.226,2.1,2.1,0,0,1,1.541.6,1.863,1.863,0,0,1,.463,1.532l-.516,3.141-.029.451a2.212,2.212,0,0,0,.07.639l-.012.1Zm-1.664-.82a1.85,1.85,0,0,0,.964-.243,2.441,2.441,0,0,0,.782-.706L42.9,9.924l-.8-.006a3.041,3.041,0,0,0-1.535.316,1.165,1.165,0,0,0-.6.9.908.908,0,0,0,.208.741A.991.991,0,0,0,40.928,12.18ZM45.41,9.818a4.933,4.933,0,0,1,.533-1.746,3.023,3.023,0,0,1,1.025-1.166,2.345,2.345,0,0,1,1.342-.369,1.98,1.98,0,0,1,1.629.773L50.549,4h1.061l-1.559,9h-.967l.111-.68a2.337,2.337,0,0,1-1.852.8,1.751,1.751,0,0,1-1.4-.688,3,3,0,0,1-.562-1.784A5.7,5.7,0,0,1,45.41,9.818Zm1.02.606a2.2,2.2,0,0,0,.3,1.3,1.078,1.078,0,0,0,.926.474,1.916,1.916,0,0,0,1.635-.925l.5-2.926a1.316,1.316,0,0,0-1.277-.89,1.607,1.607,0,0,0-1.1.377,2.442,2.442,0,0,0-.727,1.106A4.561,4.561,0,0,0,46.43,10.424Zm8.836-.864a11.092,11.092,0,0,1,.718-2.637A8.171,8.171,0,0,1,57.27,4.735a5.284,5.284,0,0,1,1.7-1.368l.158.727a6.081,6.081,0,0,0-1.579,1.79,9.211,9.211,0,0,0-1.017,2.625,12.626,12.626,0,0,0-.346,3,6.637,6.637,0,0,0,.313,2.136A3.371,3.371,0,0,0,57.4,15.1l-.264.656a4.231,4.231,0,0,1-1.5-2.01,7.752,7.752,0,0,1-.472-3.047,9.263,9.263,0,0,1,.082-1.072Zm8.4,1.242q.129-.937-.973-1.371l-1.014-.369-.34-.146q-1.711-.779-1.6-2.191a2.292,2.292,0,0,1,.486-1.254,2.767,2.767,0,0,1,1.134-.841,3.637,3.637,0,0,1,1.5-.278,3,3,0,0,1,1.38.346,2.222,2.222,0,0,1,.923.917,2.5,2.5,0,0,1,.281,1.327l-1.107-.006a1.528,1.528,0,0,0-.352-1.22,1.574,1.574,0,0,0-1.172-.444,2.183,2.183,0,0,0-1.342.376A1.466,1.466,0,0,0,60.85,6.7q-.117.875,1.072,1.327l.873.311.439.188a2.206,2.206,0,0,1,1.529,2.262,2.259,2.259,0,0,1-.486,1.245,2.719,2.719,0,0,1-1.146.812,3.949,3.949,0,0,1-1.556.27,3.255,3.255,0,0,1-1.468-.343,2.4,2.4,0,0,1-1.011-.923,2.308,2.308,0,0,1-.3-1.33l1.1.006a1.451,1.451,0,0,0,.413,1.21,1.859,1.859,0,0,0,1.315.46,2.349,2.349,0,0,0,1.4-.369A1.437,1.437,0,0,0,63.662,10.8ZM68.7,9.572a10.872,10.872,0,0,1-.744,2.7,8.131,8.131,0,0,1-1.292,2.15,5.372,5.372,0,0,1-1.667,1.333l-.164-.674a7.693,7.693,0,0,0,2.684-4.857,12.625,12.625,0,0,0,.258-2.6,4.776,4.776,0,0,0-1.219-3.6l.275-.656a3.884,3.884,0,0,1,1.11,1.216A5.734,5.734,0,0,1,68.6,6.353a9.032,9.032,0,0,1,.19,2.083,10.008,10.008,0,0,1-.088,1.072ZM81.3,8.23H76.559l.164-.943h4.752Zm-.422,2.432H76.137l.164-.937h4.752Z" transform="translate(-1867.5 -8867)" fill="#fff"/>
    <path id="Trazado_716924" data-name="Trazado 716924" d="M-82.644-1.831q.107-.781-.811-1.143l-.845-.308-.283-.122q-1.426-.649-1.333-1.826a1.91,1.91,0,0,1,.405-1.045,2.306,2.306,0,0,1,.945-.7,3.031,3.031,0,0,1,1.252-.232,2.5,2.5,0,0,1,1.15.288,1.852,1.852,0,0,1,.769.764,2.083,2.083,0,0,1,.234,1.106l-.923,0a1.273,1.273,0,0,0-.293-1.017,1.312,1.312,0,0,0-.977-.37,1.819,1.819,0,0,0-1.118.313,1.222,1.222,0,0,0-.518.881q-.1.729.894,1.106l.728.259.366.156a1.838,1.838,0,0,1,1.274,1.885A1.883,1.883,0,0,1-82.131-.8a2.266,2.266,0,0,1-.955.676,3.291,3.291,0,0,1-1.3.225,2.712,2.712,0,0,1-1.223-.286,2,2,0,0,1-.842-.769A1.924,1.924,0,0,1-86.7-2.065l.918,0a1.209,1.209,0,0,0,.344,1.008,1.549,1.549,0,0,0,1.1.383,1.957,1.957,0,0,0,1.167-.308A1.2,1.2,0,0,0-82.644-1.831Zm5.029,1.309A2.04,2.04,0,0,1-79.192.1a1.317,1.317,0,0,1-1.121-.542,2.073,2.073,0,0,1-.271-1.426l.566-3.413h.884L-79.7-1.855a2.277,2.277,0,0,0-.01.42.874.874,0,0,0,.21.552.716.716,0,0,0,.518.215,1.585,1.585,0,0,0,1.465-.767l.664-3.848h.884L-76.892,0h-.835Zm6.826-2.095a4.192,4.192,0,0,1-.435,1.45,2.468,2.468,0,0,1-.835.964,1.911,1.911,0,0,1-1.1.305,1.759,1.759,0,0,1-1.406-.62l-.474,2.549h-.884l1.27-7.314.8,0-.1.591a2,2,0,0,1,1.567-.684,1.474,1.474,0,0,1,1.187.562,2.471,2.471,0,0,1,.449,1.494,5.257,5.257,0,0,1-.024.605Zm-.869-.1.024-.41a1.855,1.855,0,0,0-.271-1.09.953.953,0,0,0-.784-.4,1.567,1.567,0,0,0-1.323.727l-.444,2.531a1.105,1.105,0,0,0,1.069.722,1.39,1.39,0,0,0,1.121-.514A2.986,2.986,0,0,0-71.658-2.717ZM-67.8.1A1.9,1.9,0,0,1-69.338-.63a2.5,2.5,0,0,1-.469-1.812l.024-.21a3.515,3.515,0,0,1,.466-1.436,2.712,2.712,0,0,1,.935-.979,2.182,2.182,0,0,1,1.191-.315,1.68,1.68,0,0,1,1.279.542A2.229,2.229,0,0,1-65.4-3.423a4.138,4.138,0,0,1-.02.635l-.054.405h-3.452a1.785,1.785,0,0,0,.237,1.221,1.122,1.122,0,0,0,.969.522,1.88,1.88,0,0,0,1.445-.7l.508.43a2.324,2.324,0,0,1-.857.75A2.429,2.429,0,0,1-67.8.1Zm.562-4.741a1.291,1.291,0,0,0-.955.371,2.638,2.638,0,0,0-.647,1.147l2.568,0,.02-.078a1.445,1.445,0,0,0-.2-1.023A.93.93,0,0,0-67.234-4.644Zm5.625.166-.415-.044a1.512,1.512,0,0,0-1.338.767L-64.011,0H-64.9l.918-5.283.854,0-.132.615a1.58,1.58,0,0,1,1.323-.718,1.621,1.621,0,0,1,.42.073ZM-61.272,0l.8-4.585h-.811l.122-.7.811,0,.068-.488a2.125,2.125,0,0,1,.718-1.382,2.109,2.109,0,0,1,1.416-.454,2.957,2.957,0,0,1,.671.1q.325.085.667.2l-.215.771A2.766,2.766,0,0,0-58.123-6.8a1.146,1.146,0,0,0-1.284,1.094l-.063.425h1.05l-.122.7h-1.045L-60.383,0Zm3.662,0H-58.5l.918-5.283h.889Zm3.7-.635a1.341,1.341,0,0,0,.854-.276,1.312,1.312,0,0,0,.5-.75l.835,0a1.884,1.884,0,0,1-.4.908,2.221,2.221,0,0,1-.818.64A2.219,2.219,0,0,1-53.953.1a1.885,1.885,0,0,1-1.116-.344,1.927,1.927,0,0,1-.671-.933,3.107,3.107,0,0,1-.146-1.345l.024-.244a3.5,3.5,0,0,1,.444-1.362,2.569,2.569,0,0,1,.918-.935,2.28,2.28,0,0,1,1.25-.315,1.785,1.785,0,0,1,1.328.557,1.925,1.925,0,0,1,.5,1.362l-.825,0a1.268,1.268,0,0,0-.288-.837,1,1,0,0,0-.752-.339,1.409,1.409,0,0,0-1.145.513A2.685,2.685,0,0,0-55-2.656l-.015.127a4.235,4.235,0,0,0-.01.645,1.472,1.472,0,0,0,.322.9A1.035,1.035,0,0,0-53.914-.635ZM-50.061,0h-.879l.918-5.283h.879Zm.728-7.212a.484.484,0,0,1,.374.134.5.5,0,0,1,.149.378.531.531,0,0,1-.149.376.535.535,0,0,1-.374.156.487.487,0,0,1-.376-.132.478.478,0,0,1-.142-.371.554.554,0,0,1,.146-.381A.517.517,0,0,1-49.333-7.212Zm3,7.31A1.9,1.9,0,0,1-47.874-.63a2.5,2.5,0,0,1-.469-1.812l.024-.21a3.515,3.515,0,0,1,.466-1.436,2.712,2.712,0,0,1,.935-.979,2.182,2.182,0,0,1,1.191-.315,1.68,1.68,0,0,1,1.279.542,2.229,2.229,0,0,1,.508,1.416,4.138,4.138,0,0,1-.02.635l-.054.405h-3.452a1.785,1.785,0,0,0,.237,1.221,1.122,1.122,0,0,0,.969.522,1.88,1.88,0,0,0,1.445-.7l.508.43a2.324,2.324,0,0,1-.857.75A2.429,2.429,0,0,1-46.331.1Zm.562-4.741a1.291,1.291,0,0,0-.955.371,2.638,2.638,0,0,0-.647,1.147l2.568,0,.02-.078a1.445,1.445,0,0,0-.2-1.023A.93.93,0,0,0-45.769-4.644Zm5.288,1.777a9.243,9.243,0,0,1,.6-2.2,6.809,6.809,0,0,1,1.072-1.824A4.4,4.4,0,0,1-37.4-8.027l.132.605A5.067,5.067,0,0,0-38.579-5.93a7.676,7.676,0,0,0-.847,2.188,10.521,10.521,0,0,0-.288,2.5,5.531,5.531,0,0,0,.261,1.78A2.809,2.809,0,0,0-38.7,1.748l-.22.547A3.526,3.526,0,0,1-40.166.62a6.46,6.46,0,0,1-.393-2.539,7.72,7.72,0,0,1,.068-.894ZM-34.382,0a1.184,1.184,0,0,1-.034-.278l.015-.278A2.166,2.166,0,0,1-35.945.1,1.579,1.579,0,0,1-37.08-.344a1.337,1.337,0,0,1-.4-1.082,1.626,1.626,0,0,1,.735-1.311,3.128,3.128,0,0,1,1.8-.471l.923,0,.059-.42a.965.965,0,0,0-.183-.75.884.884,0,0,0-.7-.286,1.363,1.363,0,0,0-.8.222.946.946,0,0,0-.427.613l-.889,0a1.416,1.416,0,0,1,.361-.823,2.1,2.1,0,0,1,.815-.557,2.634,2.634,0,0,1,1.03-.188,1.752,1.752,0,0,1,1.284.5,1.552,1.552,0,0,1,.386,1.277l-.43,2.617-.024.376a1.843,1.843,0,0,0,.059.532l-.01.083Zm-1.387-.684a1.541,1.541,0,0,0,.8-.2,2.034,2.034,0,0,0,.652-.588l.19-1.089-.669,0a2.534,2.534,0,0,0-1.279.264.971.971,0,0,0-.5.747A.756.756,0,0,0-36.4-.94.826.826,0,0,0-35.769-.684ZM-33.84-7.5h1.128l-1.494,1.436-.776,0ZM-29-4.478l-.415-.044a1.512,1.512,0,0,0-1.338.767L-31.4,0h-.884l.918-5.283.854,0-.132.615a1.58,1.58,0,0,1,1.323-.718,1.621,1.621,0,0,1,.42.073ZM-26.672.1A1.9,1.9,0,0,1-28.215-.63a2.5,2.5,0,0,1-.469-1.812l.024-.21a3.515,3.515,0,0,1,.466-1.436,2.712,2.712,0,0,1,.935-.979,2.182,2.182,0,0,1,1.191-.315,1.68,1.68,0,0,1,1.279.542,2.229,2.229,0,0,1,.508,1.416,4.138,4.138,0,0,1-.02.635l-.054.405h-3.452a1.785,1.785,0,0,0,.237,1.221A1.122,1.122,0,0,0-26.6-.64a1.88,1.88,0,0,0,1.445-.7l.508.43a2.324,2.324,0,0,1-.857.75A2.429,2.429,0,0,1-26.672.1Zm.562-4.741a1.291,1.291,0,0,0-.955.371,2.638,2.638,0,0,0-.647,1.147l2.568,0,.02-.078a1.445,1.445,0,0,0-.2-1.023A.93.93,0,0,0-26.111-4.644ZM-20.54,0a1.183,1.183,0,0,1-.034-.278l.015-.278A2.166,2.166,0,0,1-22.1.1a1.579,1.579,0,0,1-1.135-.442,1.337,1.337,0,0,1-.4-1.082A1.626,1.626,0,0,1-22.9-2.737a3.128,3.128,0,0,1,1.8-.471l.923,0,.059-.42a.965.965,0,0,0-.183-.75.884.884,0,0,0-.7-.286,1.363,1.363,0,0,0-.8.222.946.946,0,0,0-.427.613l-.889,0a1.416,1.416,0,0,1,.361-.823,2.1,2.1,0,0,1,.815-.557,2.634,2.634,0,0,1,1.03-.188,1.752,1.752,0,0,1,1.284.5,1.552,1.552,0,0,1,.386,1.277l-.43,2.617-.024.376a1.843,1.843,0,0,0,.059.532l-.01.083Zm-1.387-.684a1.541,1.541,0,0,0,.8-.2,2.034,2.034,0,0,0,.652-.588l.19-1.089-.669,0a2.534,2.534,0,0,0-1.279.264.971.971,0,0,0-.5.747.756.756,0,0,0,.173.618A.826.826,0,0,0-21.926-.684Zm6-2.173A9.06,9.06,0,0,1-16.545-.6a6.776,6.776,0,0,1-1.077,1.792A4.477,4.477,0,0,1-19.011,2.3l-.137-.562A6.411,6.411,0,0,0-16.912-2.31,10.521,10.521,0,0,0-16.7-4.473a3.98,3.98,0,0,0-1.016-3l.229-.547a3.237,3.237,0,0,1,.925,1.013A4.778,4.778,0,0,1-16-5.54,7.527,7.527,0,0,1-15.842-3.8a8.34,8.34,0,0,1-.073.894Zm3.608.205a4.111,4.111,0,0,1,.444-1.455,2.519,2.519,0,0,1,.854-.972A1.954,1.954,0,0,1-9.9-5.386a1.65,1.65,0,0,1,1.357.645L-8.035-7.5h.884L-8.45,0h-.806l.093-.566A1.948,1.948,0,0,1-10.706.1a1.46,1.46,0,0,1-1.167-.574,2.5,2.5,0,0,1-.469-1.487A4.748,4.748,0,0,1-12.317-2.651Zm.85.5a1.831,1.831,0,0,0,.249,1.083.9.9,0,0,0,.771.4A1.6,1.6,0,0,0-9.084-1.44l.42-2.438a1.1,1.1,0,0,0-1.064-.741,1.339,1.339,0,0,0-.92.315,2.035,2.035,0,0,0-.605.922A3.8,3.8,0,0,0-11.467-2.147ZM-4.768.1A1.9,1.9,0,0,1-6.311-.63,2.5,2.5,0,0,1-6.78-2.441l.024-.21a3.515,3.515,0,0,1,.466-1.436,2.712,2.712,0,0,1,.935-.979,2.182,2.182,0,0,1,1.191-.315,1.68,1.68,0,0,1,1.279.542,2.229,2.229,0,0,1,.508,1.416,4.138,4.138,0,0,1-.02.635l-.054.405H-5.9a1.785,1.785,0,0,0,.237,1.221,1.122,1.122,0,0,0,.969.522,1.88,1.88,0,0,0,1.445-.7l.508.43a2.324,2.324,0,0,1-.857.75A2.429,2.429,0,0,1-4.768.1Zm.562-4.741a1.291,1.291,0,0,0-.955.371,2.638,2.638,0,0,0-.647,1.147l2.568,0,.02-.078a1.445,1.445,0,0,0-.2-1.023A.93.93,0,0,0-4.207-4.644ZM-.911,0H-1.79l1.3-7.5H.393ZM5.32-6.562,5.1-5.283h.962l-.122.7H4.978L4.426-1.3a1.146,1.146,0,0,0,0,.234.372.372,0,0,0,.415.381,2.531,2.531,0,0,0,.43-.049L5.2,0a2.4,2.4,0,0,1-.645.088A.923.923,0,0,1,3.762-.3a1.5,1.5,0,0,1-.205-1.018l.537-3.271H3.162l.122-.7h.933l.225-1.279ZM8.489.1A1.9,1.9,0,0,1,6.946-.63a2.5,2.5,0,0,1-.469-1.812l.024-.21a3.515,3.515,0,0,1,.466-1.436A2.712,2.712,0,0,1,7.9-5.066a2.182,2.182,0,0,1,1.191-.315,1.68,1.68,0,0,1,1.279.542,2.229,2.229,0,0,1,.508,1.416,4.138,4.138,0,0,1-.02.635l-.054.405H7.356a1.785,1.785,0,0,0,.237,1.221,1.122,1.122,0,0,0,.969.522,1.88,1.88,0,0,0,1.445-.7l.508.43a2.324,2.324,0,0,1-.857.75A2.429,2.429,0,0,1,8.489.1ZM9.05-4.644a1.291,1.291,0,0,0-.955.371,2.638,2.638,0,0,0-.647,1.147l2.568,0,.02-.078a1.445,1.445,0,0,0-.2-1.023A.93.93,0,0,0,9.05-4.644Zm4.17-.64-1,5.913a1.868,1.868,0,0,1-.5,1.138,1.415,1.415,0,0,1-1.052.381,2.607,2.607,0,0,1-.581-.1l.078-.723a2.107,2.107,0,0,0,.405.054q.63,0,.757-.752l1.011-5.913ZM12.488-6.67a.56.56,0,0,1,.144-.381.514.514,0,0,1,.374-.161.475.475,0,0,1,.374.139.507.507,0,0,1,.149.374.526.526,0,0,1-.151.376A.544.544,0,0,1,13-6.167a.466.466,0,0,1-.366-.137A.5.5,0,0,1,12.488-6.67ZM14.709,0h-.879l.918-5.283h.879Zm.728-7.212a.484.484,0,0,1,.374.134.5.5,0,0,1,.149.378.531.531,0,0,1-.149.376.535.535,0,0,1-.374.156.487.487,0,0,1-.376-.132.478.478,0,0,1-.142-.371.554.554,0,0,1,.146-.381A.517.517,0,0,1,15.437-7.212Zm.972,4.561a4.111,4.111,0,0,1,.444-1.455,2.519,2.519,0,0,1,.854-.972,1.954,1.954,0,0,1,1.118-.308,1.65,1.65,0,0,1,1.357.645L20.691-7.5h.884L20.276,0H19.47l.093-.566A1.948,1.948,0,0,1,18.02.1a1.46,1.46,0,0,1-1.167-.574,2.5,2.5,0,0,1-.469-1.487A4.748,4.748,0,0,1,16.409-2.651Zm.85.5a1.831,1.831,0,0,0,.249,1.083.9.9,0,0,0,.771.4,1.6,1.6,0,0,0,1.362-.771l.42-2.438A1.1,1.1,0,0,0,19-4.619a1.339,1.339,0,0,0-.92.315,2.035,2.035,0,0,0-.605.922A3.8,3.8,0,0,0,17.258-2.147Zm7.349-3.234a1.9,1.9,0,0,1,1.138.361,2.053,2.053,0,0,1,.7.969A3,3,0,0,1,26.6-2.7l-.01.107A3.553,3.553,0,0,1,26.13-1.2a2.693,2.693,0,0,1-.947.969A2.31,2.31,0,0,1,23.909.1a1.908,1.908,0,0,1-1.135-.361,2.006,2.006,0,0,1-.7-.957,3.082,3.082,0,0,1-.156-1.333,3.6,3.6,0,0,1,.444-1.475,2.756,2.756,0,0,1,.955-1.013A2.283,2.283,0,0,1,24.607-5.381Zm-1.8,2.832a3,3,0,0,0,0,.64,1.567,1.567,0,0,0,.344.918,1.033,1.033,0,0,0,.789.356,1.408,1.408,0,0,0,.811-.217,1.824,1.824,0,0,0,.625-.7,2.951,2.951,0,0,0,.327-1.04,4.684,4.684,0,0,0,.015-.757,1.626,1.626,0,0,0-.356-.933,1.056,1.056,0,0,0-.791-.361,1.44,1.44,0,0,0-1.162.537,2.653,2.653,0,0,0-.591,1.445ZM31.99.1A1.9,1.9,0,0,1,30.447-.63a2.5,2.5,0,0,1-.469-1.812L30-2.651a3.515,3.515,0,0,1,.466-1.436,2.712,2.712,0,0,1,.935-.979A2.182,2.182,0,0,1,32.6-5.381a1.68,1.68,0,0,1,1.279.542,2.229,2.229,0,0,1,.508,1.416,4.138,4.138,0,0,1-.02.635l-.054.405H30.857a1.785,1.785,0,0,0,.237,1.221,1.122,1.122,0,0,0,.969.522,1.88,1.88,0,0,0,1.445-.7l.508.43a2.324,2.324,0,0,1-.857.75A2.429,2.429,0,0,1,31.99.1Zm.562-4.741a1.291,1.291,0,0,0-.955.371,2.638,2.638,0,0,0-.647,1.147l2.568,0,.02-.078a1.445,1.445,0,0,0-.2-1.023A.93.93,0,0,0,32.551-4.644Zm4.092-.645-.127.669a2.083,2.083,0,0,1,1.621-.762,1.311,1.311,0,0,1,1.1.518,2.011,2.011,0,0,1,.264,1.4L38.928,0h-.884l.581-3.473a1.851,1.851,0,0,0,0-.444.73.73,0,0,0-.806-.7,1.663,1.663,0,0,0-1.4.849L35.774,0H34.89l.918-5.283ZM40.72,0l.8-4.585h-.815l.122-.7h.811l.088-.625a2.074,2.074,0,0,1,.615-1.245,1.829,1.829,0,0,1,1.309-.459,3.053,3.053,0,0,1,.63.084l-.107.742a2.9,2.9,0,0,0-.474-.059,1.009,1.009,0,0,0-.745.285A1.3,1.3,0,0,0,42.6-5.8l-.078.521h1.094l-.122.7H42.4L41.6,0Zm5.273.1A1.9,1.9,0,0,1,44.451-.63a2.5,2.5,0,0,1-.469-1.812l.024-.21a3.515,3.515,0,0,1,.466-1.436,2.712,2.712,0,0,1,.935-.979A2.182,2.182,0,0,1,46.6-5.381a1.68,1.68,0,0,1,1.279.542,2.229,2.229,0,0,1,.508,1.416,4.138,4.138,0,0,1-.02.635l-.054.405H44.861A1.785,1.785,0,0,0,45.1-1.162a1.122,1.122,0,0,0,.969.522,1.88,1.88,0,0,0,1.445-.7l.508.43a2.324,2.324,0,0,1-.857.75A2.429,2.429,0,0,1,45.994.1Zm.562-4.741a1.291,1.291,0,0,0-.955.371,2.638,2.638,0,0,0-.647,1.147l2.568,0,.02-.078a1.445,1.445,0,0,0-.2-1.023A.93.93,0,0,0,46.555-4.644Zm5.625.166-.415-.044a1.512,1.512,0,0,0-1.338.767L49.778,0h-.884l.918-5.283.854,0-.132.615a1.58,1.58,0,0,1,1.323-.718,1.621,1.621,0,0,1,.42.073Zm1.787-.811-.112.591a2.066,2.066,0,0,1,1.606-.684,1.63,1.63,0,0,1,.852.229,1.126,1.126,0,0,1,.481.62,2.181,2.181,0,0,1,1.753-.85,1.4,1.4,0,0,1,1.167.532,1.9,1.9,0,0,1,.278,1.377L59.412,0h-.879l.576-3.481a1.839,1.839,0,0,0,0-.464q-.093-.664-.869-.679a1.335,1.335,0,0,0-.876.3,1.389,1.389,0,0,0-.505.813L56.257,0h-.889l.586-3.477a1.116,1.116,0,0,0-.164-.835.861.861,0,0,0-.706-.3,1.447,1.447,0,0,0-1.313.752L53.1,0h-.884l.918-5.283Zm9.741-.093a1.9,1.9,0,0,1,1.138.361,2.053,2.053,0,0,1,.7.969A3,3,0,0,1,65.7-2.7l-.01.107A3.553,3.553,0,0,1,65.232-1.2a2.693,2.693,0,0,1-.947.969A2.31,2.31,0,0,1,63.01.1a1.908,1.908,0,0,1-1.135-.361,2.006,2.006,0,0,1-.7-.957,3.082,3.082,0,0,1-.156-1.333,3.6,3.6,0,0,1,.444-1.475,2.756,2.756,0,0,1,.955-1.013A2.283,2.283,0,0,1,63.708-5.381Zm-1.8,2.832a3,3,0,0,0,0,.64,1.567,1.567,0,0,0,.344.918,1.033,1.033,0,0,0,.789.356,1.408,1.408,0,0,0,.811-.217,1.824,1.824,0,0,0,.625-.7,2.95,2.95,0,0,0,.327-1.04,4.684,4.684,0,0,0,.015-.757,1.626,1.626,0,0,0-.356-.933,1.056,1.056,0,0,0-.791-.361,1.44,1.44,0,0,0-1.162.537,2.653,2.653,0,0,0-.591,1.445Zm6.167-2.273-1.353-.439.332-.7,1.357.551.249-1.7H69.4l-.342,1.678,1.479-.527.093.776-1.538.444L69.807-3.4l-.625.43-.64-1.416L67.458-3.015,66.9-3.494ZM73.381,0h-.889l1.045-6-1.89.664.151-.859,2.637-.952h.156Zm4.854.1A1.6,1.6,0,0,1,76.887-.54a2.829,2.829,0,0,1-.41-1.78q.01-.361.054-.713l.176-1.187A4.4,4.4,0,0,1,77.6-6.484a2.136,2.136,0,0,1,1.738-.723,1.624,1.624,0,0,1,1.355.623,2.766,2.766,0,0,1,.413,1.75q-.015.366-.059.718l-.171,1.147A4.664,4.664,0,0,1,79.963-.62,2.123,2.123,0,0,1,78.235.1Zm1.958-4.375a7.558,7.558,0,0,0,.063-.918q-.024-1.24-.962-1.274a1.283,1.283,0,0,0-1.106.505A3.5,3.5,0,0,0,77.6-4.3l-.21,1.416a7.2,7.2,0,0,0-.063.923q.024,1.294.957,1.328a1.254,1.254,0,0,0,1.072-.479,3.393,3.393,0,0,0,.6-1.611ZM83.733.1A1.6,1.6,0,0,1,82.385-.54a2.829,2.829,0,0,1-.41-1.78q.01-.361.054-.713L82.2-4.219A4.4,4.4,0,0,1,83.1-6.484a2.136,2.136,0,0,1,1.738-.723,1.624,1.624,0,0,1,1.355.623,2.766,2.766,0,0,1,.413,1.75q-.015.366-.059.718l-.171,1.147A4.664,4.664,0,0,1,85.461-.62,2.123,2.123,0,0,1,83.733.1Zm1.958-4.375a7.558,7.558,0,0,0,.063-.918q-.024-1.24-.962-1.274a1.283,1.283,0,0,0-1.106.505A3.5,3.5,0,0,0,83.1-4.3l-.21,1.416a7.2,7.2,0,0,0-.063.923q.024,1.294.957,1.328a1.254,1.254,0,0,0,1.072-.479,3.393,3.393,0,0,0,.6-1.611Z" transform="translate(-1691.956 -8865.533)" fill="#fff"/>
    <path id="Trazado_716925" data-name="Trazado 716925" d="M-16.721-1.86H-19.6L-20.574,0h-.981l3.862-7.109h.806L-15.481,0h-.9ZM-19.2-2.627h2.339l-.591-3.315Zm2.656-6.387h1.128l-1.494,1.436-.776,0Zm5.2,4.536-.415-.044a1.512,1.512,0,0,0-1.338.767L-13.748,0h-.884l.918-5.283.854,0-.132.615a1.58,1.58,0,0,1,1.323-.718,1.621,1.621,0,0,1,.42.073ZM-9.016.1A1.9,1.9,0,0,1-10.559-.63a2.5,2.5,0,0,1-.469-1.812l.024-.21a3.515,3.515,0,0,1,.466-1.436A2.712,2.712,0,0,1-9.6-5.066a2.182,2.182,0,0,1,1.191-.315,1.68,1.68,0,0,1,1.279.542,2.229,2.229,0,0,1,.508,1.416,4.138,4.138,0,0,1-.02.635l-.054.405h-3.452a1.785,1.785,0,0,0,.237,1.221,1.122,1.122,0,0,0,.969.522,1.88,1.88,0,0,0,1.445-.7l.508.43a2.324,2.324,0,0,1-.857.75A2.429,2.429,0,0,1-9.016.1Zm.562-4.741a1.291,1.291,0,0,0-.955.371,2.638,2.638,0,0,0-.647,1.147l2.568,0,.02-.078a1.445,1.445,0,0,0-.2-1.023A.93.93,0,0,0-8.455-4.644ZM-2.883,0a1.183,1.183,0,0,1-.034-.278L-2.9-.557A2.166,2.166,0,0,1-4.446.1,1.579,1.579,0,0,1-5.581-.344a1.337,1.337,0,0,1-.4-1.082,1.626,1.626,0,0,1,.735-1.311,3.128,3.128,0,0,1,1.8-.471l.923,0,.059-.42a.965.965,0,0,0-.183-.75.884.884,0,0,0-.7-.286,1.363,1.363,0,0,0-.8.222.946.946,0,0,0-.427.613l-.889,0A1.416,1.416,0,0,1-5.1-4.641,2.1,2.1,0,0,1-4.28-5.2a2.634,2.634,0,0,1,1.03-.188,1.752,1.752,0,0,1,1.284.5A1.552,1.552,0,0,1-1.58-3.608l-.43,2.617-.024.376a1.843,1.843,0,0,0,.059.532L-1.985,0ZM-4.27-.684a1.541,1.541,0,0,0,.8-.2,2.034,2.034,0,0,0,.652-.588l.19-1.089-.669,0A2.534,2.534,0,0,0-4.573-2.3a.971.971,0,0,0-.5.747A.756.756,0,0,0-4.9-.94.826.826,0,0,0-4.27-.684ZM4-6.562,3.772-5.283h.962l-.122.7H3.655L3.1-1.3a1.146,1.146,0,0,0,0,.234.372.372,0,0,0,.415.381,2.531,2.531,0,0,0,.43-.049L3.875,0A2.4,2.4,0,0,1,3.23.093.923.923,0,0,1,2.439-.3a1.5,1.5,0,0,1-.205-1.018l.537-3.271H1.838l.122-.7h.933l.225-1.279ZM7.717-5.381a1.9,1.9,0,0,1,1.138.361,2.053,2.053,0,0,1,.7.969A3,3,0,0,1,9.709-2.7l-.01.107A3.553,3.553,0,0,1,9.241-1.2a2.693,2.693,0,0,1-.947.969A2.31,2.31,0,0,1,7.019.1,1.908,1.908,0,0,1,5.884-.264a2.006,2.006,0,0,1-.7-.957,3.082,3.082,0,0,1-.156-1.333,3.6,3.6,0,0,1,.444-1.475,2.756,2.756,0,0,1,.955-1.013A2.283,2.283,0,0,1,7.717-5.381ZM5.92-2.549a3,3,0,0,0,0,.64,1.567,1.567,0,0,0,.344.918,1.033,1.033,0,0,0,.789.356,1.408,1.408,0,0,0,.811-.217,1.824,1.824,0,0,0,.625-.7,2.951,2.951,0,0,0,.327-1.04,4.684,4.684,0,0,0,.015-.757,1.626,1.626,0,0,0-.356-.933,1.056,1.056,0,0,0-.791-.361,1.44,1.44,0,0,0-1.162.537A2.653,2.653,0,0,0,5.93-2.661ZM12.7-6.562l-.225,1.279h.962l-.122.7h-.957L11.8-1.3a1.146,1.146,0,0,0,0,.234.372.372,0,0,0,.415.381,2.531,2.531,0,0,0,.43-.049L12.576,0a2.4,2.4,0,0,1-.645.088A.923.923,0,0,1,11.14-.3a1.5,1.5,0,0,1-.205-1.018l.537-3.271H10.54l.122-.7h.933l.225-1.279ZM16.814,0a1.183,1.183,0,0,1-.034-.278l.015-.278A2.166,2.166,0,0,1,15.251.1a1.579,1.579,0,0,1-1.135-.442,1.337,1.337,0,0,1-.4-1.082,1.626,1.626,0,0,1,.735-1.311,3.128,3.128,0,0,1,1.8-.471l.923,0,.059-.42a.965.965,0,0,0-.183-.75.884.884,0,0,0-.7-.286,1.363,1.363,0,0,0-.8.222.946.946,0,0,0-.427.613l-.889,0a1.416,1.416,0,0,1,.361-.823,2.1,2.1,0,0,1,.815-.557,2.634,2.634,0,0,1,1.03-.188,1.752,1.752,0,0,1,1.284.5,1.552,1.552,0,0,1,.386,1.277l-.43,2.617-.024.376a1.843,1.843,0,0,0,.059.532L17.712,0ZM15.427-.684a1.541,1.541,0,0,0,.8-.2,2.034,2.034,0,0,0,.652-.588l.19-1.089-.669,0a2.534,2.534,0,0,0-1.279.264.971.971,0,0,0-.5.747.756.756,0,0,0,.173.618A.826.826,0,0,0,15.427-.684ZM19.866,0h-.879l1.3-7.5h.884Z" transform="translate(-1694.956 -8843.5)" fill="#fff"/>
    <path id="Trazado_716877" data-name="Trazado 716877" d="M-4318.812-1622.677h164.3" transform="translate(2541.208 -7235.823)" fill="none" stroke="#fff" stroke-width="2"/>
  </g>
</svg>
