<svg xmlns="http://www.w3.org/2000/svg" width="326" height="61" viewBox="0 0 326 61">
  <g id="Grupo_1084159" data-name="Grupo 1084159" transform="translate(1882 9427)">
    <path id="Trazado_716918" data-name="Trazado 716918" d="M20,0H306a20,20,0,0,1,20,20V41a20,20,0,0,1-20,20H20A20,20,0,0,1,0,41V20A20,20,0,0,1,20,0Z" transform="translate(-1882 -9427)" fill="#0b481e"/>
    <path id="Trazado_716919" data-name="Trazado 716919" d="M1.523,13H.428L1.91,4.469h1.1ZM5.508,6.654l-.152.8A2.5,2.5,0,0,1,7.3,6.543a1.573,1.573,0,0,1,1.324.621,2.413,2.413,0,0,1,.316,1.682L8.25,13H7.189l.7-4.167A2.222,2.222,0,0,0,7.893,8.3a.876.876,0,0,0-.967-.837A2,2,0,0,0,5.25,8.481L4.465,13H3.4l1.1-6.34Zm7.055,5.584a1.609,1.609,0,0,0,1.025-.331,1.575,1.575,0,0,0,.6-.9l1-.006a2.261,2.261,0,0,1-.478,1.09,2.76,2.76,0,0,1-2.194,1.025,2.263,2.263,0,0,1-1.339-.413,2.313,2.313,0,0,1-.806-1.119A3.729,3.729,0,0,1,10.2,9.971l.029-.293a4.2,4.2,0,0,1,.533-1.635,3.083,3.083,0,0,1,1.1-1.122,2.736,2.736,0,0,1,1.5-.378,2.143,2.143,0,0,1,1.594.668,2.31,2.31,0,0,1,.6,1.635l-.99-.006a1.522,1.522,0,0,0-.346-1,1.205,1.205,0,0,0-.9-.407,1.69,1.69,0,0,0-1.374.615,3.223,3.223,0,0,0-.683,1.77l-.018.152a5.082,5.082,0,0,0-.012.773,1.766,1.766,0,0,0,.387,1.084A1.242,1.242,0,0,0,12.563,12.238ZM17.186,13H16.131l1.1-6.34h1.055Zm.873-8.654a.58.58,0,0,1,.448.161.6.6,0,0,1,.179.454.625.625,0,0,1-.627.639.584.584,0,0,1-.451-.158A.573.573,0,0,1,17.438,5a.665.665,0,0,1,.176-.457A.62.62,0,0,1,18.059,4.346Zm1.166,5.473a4.933,4.933,0,0,1,.533-1.746,3.023,3.023,0,0,1,1.025-1.166,2.345,2.345,0,0,1,1.342-.369,1.98,1.98,0,0,1,1.629.773L24.363,4h1.061l-1.559,9H22.9l.111-.68a2.337,2.337,0,0,1-1.852.8,1.751,1.751,0,0,1-1.4-.688,3,3,0,0,1-.562-1.784A5.7,5.7,0,0,1,19.225,9.818Zm1.02.606a2.2,2.2,0,0,0,.3,1.3,1.078,1.078,0,0,0,.926.474,1.916,1.916,0,0,0,1.635-.925l.5-2.926a1.316,1.316,0,0,0-1.277-.89,1.607,1.607,0,0,0-1.1.377A2.442,2.442,0,0,0,20.5,8.941,4.561,4.561,0,0,0,20.244,10.424Zm8.039,2.693a2.286,2.286,0,0,1-1.852-.873,3,3,0,0,1-.562-2.174l.029-.252a4.218,4.218,0,0,1,.56-1.723A3.254,3.254,0,0,1,27.58,6.921a2.618,2.618,0,0,1,1.43-.378,2.016,2.016,0,0,1,1.535.65,2.675,2.675,0,0,1,.609,1.7,4.966,4.966,0,0,1-.023.762l-.064.486H26.924a2.142,2.142,0,0,0,.284,1.465,1.346,1.346,0,0,0,1.163.627,2.255,2.255,0,0,0,1.734-.844l.609.516a2.789,2.789,0,0,1-1.028.9A2.914,2.914,0,0,1,28.283,13.117Zm.674-5.689a1.549,1.549,0,0,0-1.146.445,3.165,3.165,0,0,0-.776,1.377l3.082.006.023-.094A1.734,1.734,0,0,0,29.9,7.935,1.116,1.116,0,0,0,28.957,7.428Zm4.91-.773-.152.8a2.5,2.5,0,0,1,1.945-.914,1.573,1.573,0,0,1,1.324.621A2.413,2.413,0,0,1,37.3,8.846L36.609,13H35.549l.7-4.167a2.222,2.222,0,0,0,.006-.533.876.876,0,0,0-.967-.837,2,2,0,0,0-1.676,1.018L32.824,13H31.764l1.1-6.34Zm7.055,5.584a1.609,1.609,0,0,0,1.025-.331,1.575,1.575,0,0,0,.6-.9l1-.006a2.261,2.261,0,0,1-.478,1.09,2.76,2.76,0,0,1-2.194,1.025,2.263,2.263,0,0,1-1.339-.413,2.313,2.313,0,0,1-.806-1.119,3.729,3.729,0,0,1-.176-1.614l.029-.293a4.2,4.2,0,0,1,.533-1.635,3.083,3.083,0,0,1,1.1-1.122,2.736,2.736,0,0,1,1.5-.378,2.143,2.143,0,0,1,1.594.668,2.31,2.31,0,0,1,.6,1.635l-.99-.006a1.522,1.522,0,0,0-.346-1,1.205,1.205,0,0,0-.9-.407,1.69,1.69,0,0,0-1.374.615,3.223,3.223,0,0,0-.683,1.77l-.018.152a5.082,5.082,0,0,0-.012.773,1.766,1.766,0,0,0,.387,1.084A1.242,1.242,0,0,0,40.922,12.238ZM45.545,13H44.49l1.1-6.34h1.055Zm.873-8.654a.58.58,0,0,1,.448.161.6.6,0,0,1,.179.454.625.625,0,0,1-.627.639.584.584,0,0,1-.451-.158A.573.573,0,0,1,45.8,5a.665.665,0,0,1,.176-.457A.62.62,0,0,1,46.418,4.346ZM51.158,13a1.42,1.42,0,0,1-.041-.334l.018-.334a2.6,2.6,0,0,1-1.852.785,1.894,1.894,0,0,1-1.362-.53,1.6,1.6,0,0,1-.478-1.3,1.952,1.952,0,0,1,.882-1.573A3.754,3.754,0,0,1,50.49,9.15l1.107.006.07-.5a1.158,1.158,0,0,0-.22-.9,1.06,1.06,0,0,0-.835-.343,1.635,1.635,0,0,0-.964.267,1.135,1.135,0,0,0-.513.735l-1.066.006a1.7,1.7,0,0,1,.434-.987,2.523,2.523,0,0,1,.979-.668,3.161,3.161,0,0,1,1.236-.226,2.1,2.1,0,0,1,1.541.6,1.863,1.863,0,0,1,.463,1.532l-.516,3.141-.029.451a2.212,2.212,0,0,0,.07.639l-.012.1Zm-1.664-.82a1.85,1.85,0,0,0,.964-.243,2.441,2.441,0,0,0,.782-.706l.229-1.307-.8-.006a3.041,3.041,0,0,0-1.535.316,1.165,1.165,0,0,0-.6.9.908.908,0,0,0,.208.741A.991.991,0,0,0,49.494,12.18Zm7.717-2.619a11.092,11.092,0,0,1,.718-2.637,8.171,8.171,0,0,1,1.286-2.188,5.284,5.284,0,0,1,1.7-1.368l.158.727a6.081,6.081,0,0,0-1.579,1.79,9.211,9.211,0,0,0-1.017,2.625,12.626,12.626,0,0,0-.346,3,6.637,6.637,0,0,0,.313,2.136A3.371,3.371,0,0,0,59.35,15.1l-.264.656a4.231,4.231,0,0,1-1.5-2.01,7.752,7.752,0,0,1-.472-3.047A9.263,9.263,0,0,1,57.2,9.625ZM61.992,13H60.9l1.482-8.531h1.1Zm4.9-3.428a10.872,10.872,0,0,1-.744,2.7,8.131,8.131,0,0,1-1.292,2.15,5.372,5.372,0,0,1-1.667,1.333l-.164-.674a7.693,7.693,0,0,0,2.684-4.857,12.625,12.625,0,0,0,.258-2.6,4.776,4.776,0,0,0-1.219-3.6l.275-.656a3.884,3.884,0,0,1,1.11,1.216,5.734,5.734,0,0,1,.668,1.764A9.032,9.032,0,0,1,67,8.436a10.008,10.008,0,0,1-.088,1.072ZM79.506,8.23H74.76l.164-.943h4.752Zm-.422,2.432H74.338l.164-.937h4.752Z" transform="translate(-1857.5 -9405)" fill="#fff"/>
    <path id="Trazado_716921" data-name="Trazado 716921" d="M-68.079,0h-.889l-2.539-5.518L-72.463,0h-.923l1.235-7.109h.889l2.544,5.542.962-5.542h.913Zm4.873-.522A2.04,2.04,0,0,1-64.783.1,1.317,1.317,0,0,1-65.9-.444a2.073,2.073,0,0,1-.271-1.426l.566-3.413h.884L-65.3-1.855a2.277,2.277,0,0,0-.01.42.874.874,0,0,0,.21.552.716.716,0,0,0,.518.215,1.585,1.585,0,0,0,1.465-.767l.664-3.848h.884L-62.483,0h-.835Zm.352-6.978h1.128L-63.22-6.064l-.776,0Zm3.433,2.212-.112.591a2.066,2.066,0,0,1,1.606-.684,1.63,1.63,0,0,1,.852.229,1.126,1.126,0,0,1,.481.62,2.181,2.181,0,0,1,1.753-.85,1.4,1.4,0,0,1,1.167.532A1.9,1.9,0,0,1-53.4-3.472L-53.977,0h-.879l.576-3.481a1.839,1.839,0,0,0,0-.464q-.093-.664-.869-.679a1.335,1.335,0,0,0-.876.3,1.389,1.389,0,0,0-.505.813L-57.131,0h-.889l.586-3.477a1.116,1.116,0,0,0-.164-.835.861.861,0,0,0-.706-.3,1.447,1.447,0,0,0-1.313.752L-60.286,0h-.884l.918-5.283ZM-50.33.1A1.9,1.9,0,0,1-51.873-.63a2.5,2.5,0,0,1-.469-1.812l.024-.21a3.515,3.515,0,0,1,.466-1.436,2.712,2.712,0,0,1,.935-.979,2.182,2.182,0,0,1,1.191-.315,1.68,1.68,0,0,1,1.279.542,2.229,2.229,0,0,1,.508,1.416,4.138,4.138,0,0,1-.02.635l-.054.405h-3.452a1.785,1.785,0,0,0,.237,1.221,1.122,1.122,0,0,0,.969.522,1.88,1.88,0,0,0,1.445-.7l.508.43a2.324,2.324,0,0,1-.857.75A2.429,2.429,0,0,1-50.33.1Zm.562-4.741a1.291,1.291,0,0,0-.955.371,2.638,2.638,0,0,0-.647,1.147l2.568,0,.02-.078a1.445,1.445,0,0,0-.2-1.023A.93.93,0,0,0-49.768-4.644Zm5.625.166-.415-.044a1.512,1.512,0,0,0-1.338.767L-46.545,0h-.884l.918-5.283.854,0-.132.615a1.58,1.58,0,0,1,1.323-.718,1.621,1.621,0,0,1,.42.073Zm2.881-.9a1.9,1.9,0,0,1,1.138.361,2.053,2.053,0,0,1,.7.969A3,3,0,0,1-39.27-2.7l-.01.107A3.553,3.553,0,0,1-39.739-1.2a2.693,2.693,0,0,1-.947.969A2.31,2.31,0,0,1-41.96.1,1.908,1.908,0,0,1-43.1-.264a2.006,2.006,0,0,1-.7-.957,3.082,3.082,0,0,1-.156-1.333A3.6,3.6,0,0,1-43.5-4.028a2.756,2.756,0,0,1,.955-1.013A2.283,2.283,0,0,1-41.262-5.381Zm-1.8,2.832a3,3,0,0,0,0,.64,1.567,1.567,0,0,0,.344.918,1.033,1.033,0,0,0,.789.356,1.408,1.408,0,0,0,.811-.217,1.824,1.824,0,0,0,.625-.7,2.951,2.951,0,0,0,.327-1.04,4.684,4.684,0,0,0,.015-.757,1.626,1.626,0,0,0-.356-.933,1.056,1.056,0,0,0-.791-.361,1.44,1.44,0,0,0-1.162.537,2.653,2.653,0,0,0-.591,1.445Zm7.148-.1a4.111,4.111,0,0,1,.444-1.455,2.519,2.519,0,0,1,.854-.972,1.954,1.954,0,0,1,1.118-.308,1.65,1.65,0,0,1,1.357.645l.508-2.759h.884l-1.3,7.5h-.806l.093-.566A1.948,1.948,0,0,1-34.3.1a1.46,1.46,0,0,1-1.167-.574,2.5,2.5,0,0,1-.469-1.487A4.748,4.748,0,0,1-35.911-2.651Zm.85.5a1.831,1.831,0,0,0,.249,1.083.9.9,0,0,0,.771.4,1.6,1.6,0,0,0,1.362-.771l.42-2.438a1.1,1.1,0,0,0-1.064-.741,1.339,1.339,0,0,0-.92.315,2.035,2.035,0,0,0-.605.922A3.8,3.8,0,0,0-35.061-2.147ZM-28.362.1A1.9,1.9,0,0,1-29.9-.63a2.5,2.5,0,0,1-.469-1.812l.024-.21a3.515,3.515,0,0,1,.466-1.436,2.712,2.712,0,0,1,.935-.979,2.182,2.182,0,0,1,1.191-.315,1.68,1.68,0,0,1,1.279.542,2.229,2.229,0,0,1,.508,1.416,4.138,4.138,0,0,1-.02.635l-.054.405h-3.452a1.785,1.785,0,0,0,.237,1.221,1.122,1.122,0,0,0,.969.522,1.88,1.88,0,0,0,1.445-.7l.508.43a2.324,2.324,0,0,1-.857.75A2.429,2.429,0,0,1-28.362.1Zm.562-4.741a1.291,1.291,0,0,0-.955.371A2.638,2.638,0,0,0-29.4-3.125l2.568,0,.02-.078a1.445,1.445,0,0,0-.2-1.023A.93.93,0,0,0-27.8-4.644Zm9.575,2.026a4.192,4.192,0,0,1-.435,1.45,2.468,2.468,0,0,1-.835.964A1.911,1.911,0,0,1-20.6.1,1.759,1.759,0,0,1-22-.518l-.474,2.549h-.884l1.27-7.314.8,0-.1.591a2,2,0,0,1,1.567-.684,1.474,1.474,0,0,1,1.187.562,2.471,2.471,0,0,1,.449,1.494,5.258,5.258,0,0,1-.024.605Zm-.869-.1.024-.41a1.855,1.855,0,0,0-.271-1.09.953.953,0,0,0-.784-.4,1.567,1.567,0,0,0-1.323.727l-.444,2.531a1.105,1.105,0,0,0,1.069.722A1.39,1.39,0,0,0-19.7-1.149,2.986,2.986,0,0,0-19.094-2.717ZM-16.56,0h-.879l1.3-7.5h.884Zm4.678,0a1.183,1.183,0,0,1-.034-.278l.015-.278A2.166,2.166,0,0,1-13.445.1,1.579,1.579,0,0,1-14.58-.344a1.337,1.337,0,0,1-.4-1.082,1.626,1.626,0,0,1,.735-1.311,3.128,3.128,0,0,1,1.8-.471l.923,0,.059-.42a.965.965,0,0,0-.183-.75.884.884,0,0,0-.7-.286,1.363,1.363,0,0,0-.8.222.946.946,0,0,0-.427.613l-.889,0a1.416,1.416,0,0,1,.361-.823,2.1,2.1,0,0,1,.815-.557,2.634,2.634,0,0,1,1.03-.188,1.752,1.752,0,0,1,1.284.5,1.552,1.552,0,0,1,.386,1.277l-.43,2.617-.024.376a1.843,1.843,0,0,0,.059.532l-.01.083Zm-1.387-.684a1.541,1.541,0,0,0,.8-.2,2.034,2.034,0,0,0,.652-.588l.19-1.089-.669,0a2.534,2.534,0,0,0-1.279.264.971.971,0,0,0-.5.747A.756.756,0,0,0-13.9-.94.826.826,0,0,0-13.269-.684Zm5.234-4.6-.127.669a2.083,2.083,0,0,1,1.621-.762,1.311,1.311,0,0,1,1.1.518,2.011,2.011,0,0,1,.264,1.4L-5.75,0h-.884l.581-3.473a1.851,1.851,0,0,0,0-.444.73.73,0,0,0-.806-.7,1.663,1.663,0,0,0-1.4.849L-8.9,0h-.884l.918-5.283Zm5.981-1.274-.225,1.279h.962l-.122.7H-2.4L-2.947-1.3a1.146,1.146,0,0,0,0,.234.372.372,0,0,0,.415.381,2.531,2.531,0,0,0,.43-.049L-2.175,0A2.4,2.4,0,0,1-2.82.093.923.923,0,0,1-3.611-.3a1.5,1.5,0,0,1-.205-1.018l.537-3.271h-.933l.122-.7h.933l.225-1.279ZM2.063,0a1.183,1.183,0,0,1-.034-.278l.015-.278A2.166,2.166,0,0,1,.5.1,1.579,1.579,0,0,1-.635-.344a1.337,1.337,0,0,1-.4-1.082A1.626,1.626,0,0,1-.3-2.737a3.128,3.128,0,0,1,1.8-.471l.923,0,.059-.42a.965.965,0,0,0-.183-.75.884.884,0,0,0-.7-.286,1.363,1.363,0,0,0-.8.222.946.946,0,0,0-.427.613l-.889,0a1.416,1.416,0,0,1,.361-.823A2.1,2.1,0,0,1,.667-5.2,2.634,2.634,0,0,1,1.7-5.386a1.752,1.752,0,0,1,1.284.5,1.552,1.552,0,0,1,.386,1.277L2.937-.991l-.024.376a1.843,1.843,0,0,0,.059.532L2.961,0ZM.676-.684a1.541,1.541,0,0,0,.8-.2,2.034,2.034,0,0,0,.652-.588l.19-1.089-.669,0A2.534,2.534,0,0,0,.374-2.3a.971.971,0,0,0-.5.747A.756.756,0,0,0,.044-.94.826.826,0,0,0,.676-.684Zm6.753-.747q.073-.547-.6-.771l-.918-.269Q4.749-2.871,4.788-3.8a1.463,1.463,0,0,1,.637-1.145,2.269,2.269,0,0,1,1.418-.437,1.892,1.892,0,0,1,1.3.466,1.477,1.477,0,0,1,.481,1.189l-.879,0A.824.824,0,0,0,7.5-4.375a.985.985,0,0,0-.688-.259,1.287,1.287,0,0,0-.791.225.822.822,0,0,0-.356.576q-.063.459.562.669l.444.122a2.861,2.861,0,0,1,1.289.61,1.166,1.166,0,0,1,.352.933,1.481,1.481,0,0,1-.322.859A1.843,1.843,0,0,1,7.2-.081,2.613,2.613,0,0,1,6.165.1,2.061,2.061,0,0,1,4.778-.393,1.517,1.517,0,0,1,4.25-1.631l.884,0a.937.937,0,0,0,.283.713,1.082,1.082,0,0,0,.776.269,1.523,1.523,0,0,0,.835-.2A.78.78,0,0,0,7.429-1.431ZM13.943.1A1.9,1.9,0,0,1,12.4-.63a2.5,2.5,0,0,1-.469-1.812l.024-.21a3.515,3.515,0,0,1,.466-1.436,2.712,2.712,0,0,1,.935-.979,2.182,2.182,0,0,1,1.191-.315,1.68,1.68,0,0,1,1.279.542,2.229,2.229,0,0,1,.508,1.416,4.138,4.138,0,0,1-.02.635l-.054.405H12.81a1.785,1.785,0,0,0,.237,1.221,1.122,1.122,0,0,0,.969.522,1.88,1.88,0,0,0,1.445-.7l.508.43a2.324,2.324,0,0,1-.857.75A2.429,2.429,0,0,1,13.943.1ZM14.5-4.644a1.291,1.291,0,0,0-.955.371A2.638,2.638,0,0,0,12.9-3.125l2.568,0,.02-.078a1.445,1.445,0,0,0-.2-1.023A.93.93,0,0,0,14.5-4.644ZM18.6-5.288l-.127.669a2.083,2.083,0,0,1,1.621-.762,1.311,1.311,0,0,1,1.1.518,2.011,2.011,0,0,1,.264,1.4L20.881,0H20l.581-3.473a1.851,1.851,0,0,0,0-.444.73.73,0,0,0-.806-.7,1.663,1.663,0,0,0-1.4.849L17.727,0h-.884l.918-5.283ZM22.673,0l.8-4.585h-.815l.122-.7h.811l.088-.625a2.074,2.074,0,0,1,.615-1.245A1.829,1.829,0,0,1,25.6-7.612a3.053,3.053,0,0,1,.63.084l-.107.742a2.9,2.9,0,0,0-.474-.059,1.009,1.009,0,0,0-.745.285,1.3,1.3,0,0,0-.354.757l-.078.521h1.094l-.122.7H24.353L23.557,0Zm5.273.1A1.9,1.9,0,0,1,26.4-.63a2.5,2.5,0,0,1-.469-1.812l.024-.21a3.515,3.515,0,0,1,.466-1.436,2.712,2.712,0,0,1,.935-.979,2.182,2.182,0,0,1,1.191-.315,1.68,1.68,0,0,1,1.279.542,2.229,2.229,0,0,1,.508,1.416,4.138,4.138,0,0,1-.02.635l-.054.405H26.814a1.785,1.785,0,0,0,.237,1.221,1.122,1.122,0,0,0,.969.522,1.88,1.88,0,0,0,1.445-.7l.508.43a2.324,2.324,0,0,1-.857.75A2.429,2.429,0,0,1,27.947.1Zm.562-4.741a1.291,1.291,0,0,0-.955.371,2.638,2.638,0,0,0-.647,1.147l2.568,0,.02-.078a1.445,1.445,0,0,0-.2-1.023A.93.93,0,0,0,28.508-4.644Zm5.625.166-.415-.044a1.512,1.512,0,0,0-1.338.767L31.731,0h-.884l.918-5.283.854,0-.132.615a1.58,1.58,0,0,1,1.323-.718,1.621,1.621,0,0,1,.42.073Zm1.787-.811-.112.591a2.066,2.066,0,0,1,1.606-.684,1.63,1.63,0,0,1,.852.229,1.126,1.126,0,0,1,.481.62,2.181,2.181,0,0,1,1.753-.85,1.4,1.4,0,0,1,1.167.532,1.9,1.9,0,0,1,.278,1.377L41.365,0h-.879l.576-3.481a1.839,1.839,0,0,0,0-.464q-.093-.664-.869-.679a1.335,1.335,0,0,0-.876.3,1.389,1.389,0,0,0-.505.813L38.21,0h-.889l.586-3.477a1.116,1.116,0,0,0-.164-.835.861.861,0,0,0-.706-.3,1.447,1.447,0,0,0-1.313.752L35.056,0h-.884l.918-5.283ZM45.959,0a1.184,1.184,0,0,1-.034-.278l.015-.278A2.166,2.166,0,0,1,44.4.1a1.579,1.579,0,0,1-1.135-.442,1.337,1.337,0,0,1-.4-1.082A1.626,1.626,0,0,1,43.6-2.737a3.128,3.128,0,0,1,1.8-.471l.923,0,.059-.42a.965.965,0,0,0-.183-.75.884.884,0,0,0-.7-.286,1.363,1.363,0,0,0-.8.222.946.946,0,0,0-.427.613l-.889,0a1.416,1.416,0,0,1,.361-.823,2.1,2.1,0,0,1,.815-.557,2.634,2.634,0,0,1,1.03-.188,1.752,1.752,0,0,1,1.284.5,1.552,1.552,0,0,1,.386,1.277l-.43,2.617-.024.376a1.843,1.843,0,0,0,.059.532L46.858,0ZM44.573-.684a1.541,1.541,0,0,0,.8-.2,2.034,2.034,0,0,0,.652-.588l.19-1.089-.669,0A2.534,2.534,0,0,0,44.27-2.3a.971.971,0,0,0-.5.747.756.756,0,0,0,.173.618A.826.826,0,0,0,44.573-.684Zm6.753-.747q.073-.547-.6-.771l-.918-.269q-1.162-.4-1.123-1.328a1.463,1.463,0,0,1,.637-1.145,2.269,2.269,0,0,1,1.418-.437,1.892,1.892,0,0,1,1.3.466,1.477,1.477,0,0,1,.481,1.189l-.879,0a.824.824,0,0,0-.249-.645.985.985,0,0,0-.688-.259,1.287,1.287,0,0,0-.791.225.822.822,0,0,0-.356.576q-.063.459.562.669l.444.122a2.861,2.861,0,0,1,1.289.61A1.166,1.166,0,0,1,52.2-1.5a1.481,1.481,0,0,1-.322.859,1.843,1.843,0,0,1-.781.559A2.613,2.613,0,0,1,50.061.1a2.061,2.061,0,0,1-1.387-.491,1.517,1.517,0,0,1-.527-1.238l.884,0a.937.937,0,0,0,.283.713,1.082,1.082,0,0,0,.776.269,1.523,1.523,0,0,0,.835-.2A.78.78,0,0,0,51.326-1.431Zm3.5-3.391-1.353-.439.332-.7,1.357.551.249-1.7h.732L55.8-5.431l1.479-.527.093.776-1.538.444L56.555-3.4l-.625.43-.64-1.416L54.207-3.015l-.557-.479ZM60.129,0h-.889l1.045-6-1.89.664.151-.859,2.637-.952h.156Zm4.854.1A1.6,1.6,0,0,1,63.635-.54a2.829,2.829,0,0,1-.41-1.78q.01-.361.054-.713l.176-1.187a4.4,4.4,0,0,1,.894-2.266,2.136,2.136,0,0,1,1.738-.723,1.624,1.624,0,0,1,1.355.623,2.766,2.766,0,0,1,.413,1.75q-.015.366-.059.718l-.171,1.147A4.664,4.664,0,0,1,66.711-.62,2.123,2.123,0,0,1,64.983.1Zm1.958-4.375A7.558,7.558,0,0,0,67-5.2q-.024-1.24-.962-1.274a1.283,1.283,0,0,0-1.106.505A3.5,3.5,0,0,0,64.348-4.3l-.21,1.416a7.2,7.2,0,0,0-.063.923q.024,1.294.957,1.328A1.254,1.254,0,0,0,66.1-1.113a3.393,3.393,0,0,0,.6-1.611ZM70.481.1A1.6,1.6,0,0,1,69.133-.54a2.829,2.829,0,0,1-.41-1.78q.01-.361.054-.713l.176-1.187a4.4,4.4,0,0,1,.894-2.266,2.136,2.136,0,0,1,1.738-.723,1.624,1.624,0,0,1,1.355.623,2.766,2.766,0,0,1,.413,1.75q-.015.366-.059.718l-.171,1.147A4.664,4.664,0,0,1,72.209-.62,2.123,2.123,0,0,1,70.481.1Zm1.958-4.375A7.558,7.558,0,0,0,72.5-5.2q-.024-1.24-.962-1.274a1.283,1.283,0,0,0-1.106.505A3.5,3.5,0,0,0,69.846-4.3l-.21,1.416a7.2,7.2,0,0,0-.063.923Q69.6-.669,70.53-.635A1.254,1.254,0,0,0,71.6-1.113a3.393,3.393,0,0,0,.6-1.611Z" transform="translate(-1681.956 -9403.533)" fill="#fff"/>
    <path id="Trazado_716920" data-name="Trazado 716920" d="M-73.735-6.343h-2.212L-77.046,0h-.913l1.1-6.343h-2.212l.137-.767H-73.6Zm2.28.962a1.9,1.9,0,0,1,1.138.361,2.053,2.053,0,0,1,.7.969,3,3,0,0,1,.154,1.35l-.01.107A3.553,3.553,0,0,1-69.932-1.2a2.693,2.693,0,0,1-.947.969A2.31,2.31,0,0,1-72.153.1a1.908,1.908,0,0,1-1.135-.361,2.006,2.006,0,0,1-.7-.957,3.082,3.082,0,0,1-.156-1.333A3.6,3.6,0,0,1-73.7-4.028a2.756,2.756,0,0,1,.955-1.013A2.283,2.283,0,0,1-71.455-5.381Zm-1.8,2.832a3,3,0,0,0,0,.64,1.567,1.567,0,0,0,.344.918,1.033,1.033,0,0,0,.789.356,1.408,1.408,0,0,0,.811-.217,1.824,1.824,0,0,0,.625-.7,2.95,2.95,0,0,0,.327-1.04,4.684,4.684,0,0,0,.015-.757,1.626,1.626,0,0,0-.356-.933,1.056,1.056,0,0,0-.791-.361,1.44,1.44,0,0,0-1.162.537,2.653,2.653,0,0,0-.591,1.445Zm6.777-4.014L-66.7-5.283h.962l-.122.7h-.957L-67.368-1.3a1.146,1.146,0,0,0,0,.234.372.372,0,0,0,.415.381,2.531,2.531,0,0,0,.43-.049L-66.6,0a2.4,2.4,0,0,1-.645.088A.923.923,0,0,1-68.032-.3a1.5,1.5,0,0,1-.205-1.018l.537-3.271h-.933l.122-.7h.933l.225-1.279ZM-62.358,0a1.184,1.184,0,0,1-.034-.278l.015-.278A2.166,2.166,0,0,1-63.921.1a1.579,1.579,0,0,1-1.135-.442,1.337,1.337,0,0,1-.4-1.082,1.626,1.626,0,0,1,.735-1.311,3.128,3.128,0,0,1,1.8-.471l.923,0,.059-.42a.965.965,0,0,0-.183-.75.884.884,0,0,0-.7-.286,1.363,1.363,0,0,0-.8.222.946.946,0,0,0-.427.613l-.889,0a1.416,1.416,0,0,1,.361-.823,2.1,2.1,0,0,1,.815-.557,2.634,2.634,0,0,1,1.03-.188,1.752,1.752,0,0,1,1.284.5,1.552,1.552,0,0,1,.386,1.277l-.43,2.617-.024.376a1.843,1.843,0,0,0,.059.532L-61.46,0Zm-1.387-.684a1.541,1.541,0,0,0,.8-.2,2.034,2.034,0,0,0,.652-.588l.19-1.089-.669,0a2.534,2.534,0,0,0-1.279.264.971.971,0,0,0-.5.747.756.756,0,0,0,.173.618A.826.826,0,0,0-63.745-.684ZM-59.307,0h-.879l1.3-7.5H-58Zm4.395-2.866a9.243,9.243,0,0,1,.6-2.2,6.809,6.809,0,0,1,1.072-1.824,4.4,4.4,0,0,1,1.416-1.14l.132.605A5.067,5.067,0,0,0-53.01-5.93a7.676,7.676,0,0,0-.847,2.188,10.521,10.521,0,0,0-.288,2.5,5.531,5.531,0,0,0,.261,1.78,2.809,2.809,0,0,0,.754,1.213l-.22.547A3.526,3.526,0,0,1-54.6.62a6.46,6.46,0,0,1-.393-2.539,7.72,7.72,0,0,1,.068-.894Zm6.138,1.436q.073-.547-.6-.771l-.918-.269q-1.162-.4-1.123-1.328a1.463,1.463,0,0,1,.637-1.145,2.269,2.269,0,0,1,1.418-.437,1.892,1.892,0,0,1,1.3.466,1.477,1.477,0,0,1,.481,1.189l-.879,0a.824.824,0,0,0-.249-.645.985.985,0,0,0-.688-.259,1.287,1.287,0,0,0-.791.225.822.822,0,0,0-.356.576q-.063.459.562.669l.444.122a2.861,2.861,0,0,1,1.289.61A1.166,1.166,0,0,1-47.9-1.5a1.481,1.481,0,0,1-.322.859A1.843,1.843,0,0,1-49-.081,2.613,2.613,0,0,1-50.039.1a2.061,2.061,0,0,1-1.387-.491,1.517,1.517,0,0,1-.527-1.238l.884,0a.937.937,0,0,0,.283.713,1.082,1.082,0,0,0,.776.269,1.523,1.523,0,0,0,.835-.2A.78.78,0,0,0-48.774-1.431ZM-43.765,0A1.184,1.184,0,0,1-43.8-.278l.015-.278A2.166,2.166,0,0,1-45.327.1a1.579,1.579,0,0,1-1.135-.442,1.337,1.337,0,0,1-.4-1.082,1.626,1.626,0,0,1,.735-1.311,3.128,3.128,0,0,1,1.8-.471l.923,0,.059-.42a.965.965,0,0,0-.183-.75.884.884,0,0,0-.7-.286,1.363,1.363,0,0,0-.8.222.946.946,0,0,0-.427.613l-.889,0a1.416,1.416,0,0,1,.361-.823,2.1,2.1,0,0,1,.815-.557,2.634,2.634,0,0,1,1.03-.188,1.752,1.752,0,0,1,1.284.5,1.552,1.552,0,0,1,.386,1.277l-.43,2.617-.024.376a1.843,1.843,0,0,0,.059.532l-.01.083Zm-1.387-.684a1.541,1.541,0,0,0,.8-.2,2.034,2.034,0,0,0,.652-.588l.19-1.089-.669,0a2.534,2.534,0,0,0-1.279.264.971.971,0,0,0-.5.747.756.756,0,0,0,.173.618A.826.826,0,0,0-45.151-.684Zm5.234-4.6-.127.669a2.083,2.083,0,0,1,1.621-.762,1.311,1.311,0,0,1,1.1.518,2.011,2.011,0,0,1,.264,1.4L-37.632,0h-.884l.581-3.473a1.851,1.851,0,0,0,0-.444.73.73,0,0,0-.806-.7,1.663,1.663,0,0,0-1.4.849L-40.786,0h-.884l.918-5.283ZM-33.037,0a1.184,1.184,0,0,1-.034-.278l.015-.278A2.166,2.166,0,0,1-34.6.1a1.579,1.579,0,0,1-1.135-.442,1.337,1.337,0,0,1-.4-1.082A1.626,1.626,0,0,1-35.4-2.737a3.128,3.128,0,0,1,1.8-.471l.923,0,.059-.42a.965.965,0,0,0-.183-.75.884.884,0,0,0-.7-.286,1.363,1.363,0,0,0-.8.222.946.946,0,0,0-.427.613l-.889,0a1.416,1.416,0,0,1,.361-.823,2.1,2.1,0,0,1,.815-.557,2.634,2.634,0,0,1,1.03-.188,1.752,1.752,0,0,1,1.284.5,1.552,1.552,0,0,1,.386,1.277l-.43,2.617-.024.376a1.843,1.843,0,0,0,.059.532l-.01.083Zm-1.387-.684a1.541,1.541,0,0,0,.8-.2,2.034,2.034,0,0,0,.652-.588l.19-1.089-.669,0a2.534,2.534,0,0,0-1.279.264.971.971,0,0,0-.5.747.756.756,0,0,0,.173.618A.826.826,0,0,0-34.424-.684Zm6.753-.747q.073-.547-.6-.771l-.918-.269q-1.162-.4-1.123-1.328a1.463,1.463,0,0,1,.637-1.145,2.269,2.269,0,0,1,1.418-.437,1.892,1.892,0,0,1,1.3.466,1.477,1.477,0,0,1,.481,1.189l-.879,0a.824.824,0,0,0-.249-.645.985.985,0,0,0-.688-.259,1.287,1.287,0,0,0-.791.225.822.822,0,0,0-.356.576q-.063.459.562.669l.444.122a2.861,2.861,0,0,1,1.289.61,1.166,1.166,0,0,1,.352.933,1.481,1.481,0,0,1-.322.859,1.843,1.843,0,0,1-.781.559A2.613,2.613,0,0,1-28.936.1a2.061,2.061,0,0,1-1.387-.491,1.517,1.517,0,0,1-.527-1.238l.884,0a.937.937,0,0,0,.283.713,1.082,1.082,0,0,0,.776.269,1.523,1.523,0,0,0,.835-.2A.78.78,0,0,0-27.671-1.431Zm7.407-2.383h1.924l-.151.854H-20.41L-20.8-.713h-.889l.391-2.246h-1.924l.151-.854h1.919l.361-2.075h.889ZM-13.159.1A1.9,1.9,0,0,1-14.7-.63a2.5,2.5,0,0,1-.469-1.812l.024-.21a3.515,3.515,0,0,1,.466-1.436,2.712,2.712,0,0,1,.935-.979,2.182,2.182,0,0,1,1.191-.315,1.68,1.68,0,0,1,1.279.542,2.229,2.229,0,0,1,.508,1.416,4.138,4.138,0,0,1-.02.635l-.054.405h-3.452a1.785,1.785,0,0,0,.237,1.221,1.122,1.122,0,0,0,.969.522,1.88,1.88,0,0,0,1.445-.7l.508.43a2.324,2.324,0,0,1-.857.75A2.429,2.429,0,0,1-13.159.1Zm.562-4.741a1.291,1.291,0,0,0-.955.371A2.638,2.638,0,0,0-14.2-3.125l2.568,0,.02-.078a1.445,1.445,0,0,0-.2-1.023A.93.93,0,0,0-12.6-4.644Zm4.092-.645-.127.669a2.083,2.083,0,0,1,1.621-.762,1.311,1.311,0,0,1,1.1.518,2.011,2.011,0,0,1,.264,1.4L-6.221,0H-7.1l.581-3.473a1.851,1.851,0,0,0,0-.444.73.73,0,0,0-.806-.7,1.663,1.663,0,0,0-1.4.849L-9.375,0h-.884l.918-5.283ZM-4.429,0l.8-4.585h-.815l.122-.7h.811l.088-.625a2.074,2.074,0,0,1,.615-1.245A1.829,1.829,0,0,1-1.5-7.612a3.053,3.053,0,0,1,.63.084l-.107.742a2.9,2.9,0,0,0-.474-.059,1.009,1.009,0,0,0-.745.285,1.3,1.3,0,0,0-.354.757l-.078.521h1.094l-.122.7H-2.749L-3.545,0ZM.845.1A1.9,1.9,0,0,1-.7-.63a2.5,2.5,0,0,1-.469-1.812l.024-.21A3.515,3.515,0,0,1-.676-4.087a2.712,2.712,0,0,1,.935-.979A2.182,2.182,0,0,1,1.45-5.381a1.68,1.68,0,0,1,1.279.542,2.229,2.229,0,0,1,.508,1.416,4.138,4.138,0,0,1-.02.635l-.054.405H-.288A1.785,1.785,0,0,0-.051-1.162,1.122,1.122,0,0,0,.918-.64a1.88,1.88,0,0,0,1.445-.7l.508.43a2.324,2.324,0,0,1-.857.75A2.429,2.429,0,0,1,.845.1Zm.562-4.741a1.291,1.291,0,0,0-.955.371A2.638,2.638,0,0,0-.2-3.125l2.568,0,.02-.078a1.445,1.445,0,0,0-.2-1.023A.93.93,0,0,0,1.406-4.644Zm5.625.166-.415-.044a1.512,1.512,0,0,0-1.338.767L4.629,0H3.745l.918-5.283.854,0-.132.615a1.58,1.58,0,0,1,1.323-.718,1.621,1.621,0,0,1,.42.073Zm1.787-.811L8.706-4.7a2.066,2.066,0,0,1,1.606-.684,1.63,1.63,0,0,1,.852.229,1.126,1.126,0,0,1,.481.62,2.181,2.181,0,0,1,1.753-.85,1.4,1.4,0,0,1,1.167.532,1.9,1.9,0,0,1,.278,1.377L14.263,0h-.879l.576-3.481a1.839,1.839,0,0,0,0-.464q-.093-.664-.869-.679a1.335,1.335,0,0,0-.876.3,1.389,1.389,0,0,0-.505.813L11.108,0H10.22l.586-3.477a1.116,1.116,0,0,0-.164-.835.861.861,0,0,0-.706-.3,1.447,1.447,0,0,0-1.313.752L7.954,0H7.07l.918-5.283ZM18.857,0a1.183,1.183,0,0,1-.034-.278l.015-.278A2.166,2.166,0,0,1,17.295.1,1.579,1.579,0,0,1,16.16-.344a1.337,1.337,0,0,1-.4-1.082A1.626,1.626,0,0,1,16.5-2.737a3.128,3.128,0,0,1,1.8-.471l.923,0,.059-.42a.965.965,0,0,0-.183-.75.884.884,0,0,0-.7-.286,1.363,1.363,0,0,0-.8.222.946.946,0,0,0-.427.613l-.889,0a1.416,1.416,0,0,1,.361-.823,2.1,2.1,0,0,1,.815-.557,2.634,2.634,0,0,1,1.03-.188,1.752,1.752,0,0,1,1.284.5,1.552,1.552,0,0,1,.386,1.277l-.43,2.617-.024.376a1.843,1.843,0,0,0,.059.532L19.756,0ZM17.471-.684a1.541,1.541,0,0,0,.8-.2,2.034,2.034,0,0,0,.652-.588l.19-1.089-.669,0a2.534,2.534,0,0,0-1.279.264.971.971,0,0,0-.5.747.756.756,0,0,0,.173.618A.826.826,0,0,0,17.471-.684Zm6.753-.747q.073-.547-.6-.771l-.918-.269q-1.162-.4-1.123-1.328a1.463,1.463,0,0,1,.637-1.145,2.269,2.269,0,0,1,1.418-.437,1.892,1.892,0,0,1,1.3.466,1.477,1.477,0,0,1,.481,1.189l-.879,0a.824.824,0,0,0-.249-.645.985.985,0,0,0-.688-.259,1.287,1.287,0,0,0-.791.225.822.822,0,0,0-.356.576q-.063.459.562.669l.444.122a2.861,2.861,0,0,1,1.289.61A1.166,1.166,0,0,1,25.1-1.5a1.481,1.481,0,0,1-.322.859A1.843,1.843,0,0,1,24-.081,2.613,2.613,0,0,1,22.959.1a2.061,2.061,0,0,1-1.387-.491,1.517,1.517,0,0,1-.527-1.238l.884,0a.937.937,0,0,0,.283.713,1.082,1.082,0,0,0,.776.269,1.523,1.523,0,0,0,.835-.2A.78.78,0,0,0,24.224-1.431Zm4.3-1.426A9.06,9.06,0,0,1,27.9-.6a6.776,6.776,0,0,1-1.077,1.792A4.477,4.477,0,0,1,25.435,2.3L25.3,1.738A6.411,6.411,0,0,0,27.534-2.31a10.521,10.521,0,0,0,.215-2.163,3.98,3.98,0,0,0-1.016-3l.229-.547a3.237,3.237,0,0,1,.925,1.013,4.778,4.778,0,0,1,.557,1.47A7.527,7.527,0,0,1,28.6-3.8a8.34,8.34,0,0,1-.073.894Zm3.838-2.524A1.9,1.9,0,0,1,33.5-5.02a2.053,2.053,0,0,1,.7.969,3,3,0,0,1,.154,1.35l-.01.107A3.553,3.553,0,0,1,33.882-1.2a2.693,2.693,0,0,1-.947.969A2.31,2.31,0,0,1,31.66.1a1.908,1.908,0,0,1-1.135-.361,2.006,2.006,0,0,1-.7-.957,3.082,3.082,0,0,1-.156-1.333,3.6,3.6,0,0,1,.444-1.475,2.756,2.756,0,0,1,.955-1.013A2.283,2.283,0,0,1,32.358-5.381Zm-1.8,2.832a3,3,0,0,0,0,.64,1.567,1.567,0,0,0,.344.918,1.033,1.033,0,0,0,.789.356A1.408,1.408,0,0,0,32.5-.852a1.824,1.824,0,0,0,.625-.7,2.951,2.951,0,0,0,.327-1.04,4.684,4.684,0,0,0,.015-.757,1.626,1.626,0,0,0-.356-.933,1.056,1.056,0,0,0-.791-.361,1.44,1.44,0,0,0-1.162.537,2.653,2.653,0,0,0-.591,1.445ZM39.8-2.617a4.116,4.116,0,0,1-.444,1.46,2.489,2.489,0,0,1-.84.962,1.911,1.911,0,0,1-1.094.3A1.631,1.631,0,0,1,36-.615L35.82,0H35l1.3-7.5h.884L36.66-4.7A1.942,1.942,0,0,1,38.2-5.381a1.474,1.474,0,0,1,1.187.562,2.471,2.471,0,0,1,.449,1.494,4.6,4.6,0,0,1-.029.605Zm-.84-.51a1.88,1.88,0,0,0-.239-1.09.915.915,0,0,0-.776-.4,1.609,1.609,0,0,0-1.4.829l-.4,2.3a1.125,1.125,0,0,0,1.1.824,1.284,1.284,0,0,0,.906-.307,2.007,2.007,0,0,0,.588-.914A4.111,4.111,0,0,0,38.96-3.127Zm4.81,1.7q.073-.547-.6-.771l-.918-.269q-1.162-.4-1.123-1.328a1.463,1.463,0,0,1,.637-1.145,2.269,2.269,0,0,1,1.418-.437,1.892,1.892,0,0,1,1.3.466,1.477,1.477,0,0,1,.481,1.189l-.879,0a.824.824,0,0,0-.249-.645.985.985,0,0,0-.688-.259,1.287,1.287,0,0,0-.791.225A.822.822,0,0,0,42-3.833q-.063.459.562.669l.444.122a2.861,2.861,0,0,1,1.289.61,1.166,1.166,0,0,1,.352.933,1.481,1.481,0,0,1-.322.859,1.843,1.843,0,0,1-.781.559A2.613,2.613,0,0,1,42.5.1a2.061,2.061,0,0,1-1.387-.491,1.517,1.517,0,0,1-.527-1.238l.884,0a.937.937,0,0,0,.283.713,1.082,1.082,0,0,0,.776.269,1.523,1.523,0,0,0,.835-.2A.78.78,0,0,0,43.77-1.431ZM47.832.1A1.9,1.9,0,0,1,46.289-.63a2.5,2.5,0,0,1-.469-1.812l.024-.21a3.515,3.515,0,0,1,.466-1.436,2.712,2.712,0,0,1,.935-.979,2.182,2.182,0,0,1,1.191-.315,1.68,1.68,0,0,1,1.279.542,2.229,2.229,0,0,1,.508,1.416,4.138,4.138,0,0,1-.02.635l-.054.405H46.7a1.785,1.785,0,0,0,.237,1.221,1.122,1.122,0,0,0,.969.522,1.88,1.88,0,0,0,1.445-.7l.508.43A2.324,2.324,0,0,1,49-.164,2.429,2.429,0,0,1,47.832.1Zm.562-4.741a1.291,1.291,0,0,0-.955.371,2.638,2.638,0,0,0-.647,1.147l2.568,0,.02-.078a1.445,1.445,0,0,0-.2-1.023A.93.93,0,0,0,48.394-4.644Zm5.625.166L53.6-4.521a1.512,1.512,0,0,0-1.338.767L51.616,0h-.884l.918-5.283.854,0-.132.615A1.58,1.58,0,0,1,53.7-5.391a1.621,1.621,0,0,1,.42.073Zm2.051,3.242,1.9-4.048h.933L56.245,0h-.674L54.536-5.283h.869ZM62.056,0a1.184,1.184,0,0,1-.034-.278l.015-.278A2.166,2.166,0,0,1,60.493.1a1.579,1.579,0,0,1-1.135-.442,1.337,1.337,0,0,1-.4-1.082,1.626,1.626,0,0,1,.735-1.311,3.128,3.128,0,0,1,1.8-.471l.923,0,.059-.42a.965.965,0,0,0-.183-.75.884.884,0,0,0-.7-.286,1.363,1.363,0,0,0-.8.222.946.946,0,0,0-.427.613l-.889,0a1.416,1.416,0,0,1,.361-.823,2.1,2.1,0,0,1,.815-.557,2.634,2.634,0,0,1,1.03-.188,1.752,1.752,0,0,1,1.284.5,1.552,1.552,0,0,1,.386,1.277L62.93-.991l-.024.376a1.843,1.843,0,0,0,.059.532L62.954,0ZM60.669-.684a1.541,1.541,0,0,0,.8-.2,2.034,2.034,0,0,0,.652-.588l.19-1.089-.669,0a2.534,2.534,0,0,0-1.279.264.971.971,0,0,0-.5.747.756.756,0,0,0,.173.618A.826.826,0,0,0,60.669-.684ZM64.4-2.651a4.111,4.111,0,0,1,.444-1.455,2.519,2.519,0,0,1,.854-.972,1.954,1.954,0,0,1,1.118-.308,1.65,1.65,0,0,1,1.357.645L68.687-7.5h.884L68.271,0h-.806l.093-.566A1.948,1.948,0,0,1,66.016.1a1.46,1.46,0,0,1-1.167-.574,2.5,2.5,0,0,1-.469-1.487A4.749,4.749,0,0,1,64.4-2.651Zm.85.5A1.831,1.831,0,0,0,65.5-1.064a.9.9,0,0,0,.771.4,1.6,1.6,0,0,0,1.362-.771l.42-2.438a1.1,1.1,0,0,0-1.064-.741,1.339,1.339,0,0,0-.92.315,2.035,2.035,0,0,0-.605.922A3.8,3.8,0,0,0,65.254-2.147ZM72.9,0a1.183,1.183,0,0,1-.034-.278l.015-.278A2.166,2.166,0,0,1,71.338.1,1.579,1.579,0,0,1,70.2-.344a1.337,1.337,0,0,1-.4-1.082,1.626,1.626,0,0,1,.735-1.311,3.128,3.128,0,0,1,1.8-.471l.923,0,.059-.42a.965.965,0,0,0-.183-.75.884.884,0,0,0-.7-.286,1.363,1.363,0,0,0-.8.222.946.946,0,0,0-.427.613l-.889,0a1.416,1.416,0,0,1,.361-.823A2.1,2.1,0,0,1,71.5-5.2a2.634,2.634,0,0,1,1.03-.188,1.752,1.752,0,0,1,1.284.5A1.552,1.552,0,0,1,74.2-3.608l-.43,2.617-.024.376a1.843,1.843,0,0,0,.059.532L73.8,0ZM71.514-.684a1.541,1.541,0,0,0,.8-.2,2.034,2.034,0,0,0,.652-.588l.19-1.089-.669,0a2.534,2.534,0,0,0-1.279.264.971.971,0,0,0-.5.747.756.756,0,0,0,.173.618A.826.826,0,0,0,71.514-.684Zm6.753-.747q.073-.547-.6-.771l-.918-.269q-1.162-.4-1.123-1.328a1.463,1.463,0,0,1,.637-1.145,2.269,2.269,0,0,1,1.418-.437,1.892,1.892,0,0,1,1.3.466,1.477,1.477,0,0,1,.481,1.189l-.879,0a.824.824,0,0,0-.249-.645.985.985,0,0,0-.688-.259,1.287,1.287,0,0,0-.791.225.822.822,0,0,0-.356.576q-.063.459.562.669l.444.122a2.861,2.861,0,0,1,1.289.61,1.166,1.166,0,0,1,.352.933,1.481,1.481,0,0,1-.322.859,1.843,1.843,0,0,1-.781.559A2.613,2.613,0,0,1,77,.1a2.061,2.061,0,0,1-1.387-.491,1.517,1.517,0,0,1-.527-1.238l.884,0a.937.937,0,0,0,.283.713,1.082,1.082,0,0,0,.776.269,1.523,1.523,0,0,0,.835-.2A.78.78,0,0,0,78.267-1.431Z" transform="translate(-1684.956 -9381.5)" fill="#fff"/>
    <path id="Trazado_716878" data-name="Trazado 716878" d="M-4318.812-1622.677h164.3" transform="translate(2553.857 -7773.823)" fill="none" stroke="#fff" stroke-width="2"/>
  </g>
</svg>
