<svg xmlns="http://www.w3.org/2000/svg" width="445" height="61" viewBox="0 0 445 61">
  <g id="Grupo_1084158" data-name="Grupo 1084158" transform="translate(-206 -1746)">
    <path id="Trazado_716913" data-name="Trazado 716913" d="M20,0H425a20,20,0,0,1,20,20V41a20,20,0,0,1-20,20H20A20,20,0,0,1,0,41V20A20,20,0,0,1,20,0Z" transform="translate(206 1746)" fill="#0b481e"/>
    <path id="Trazado_716917" data-name="Trazado 716917" d="M3.076,4.34A1.47,1.47,0,0,1,4.2,4.858a1.7,1.7,0,0,1,.372,1.251l-.035.451a2,2,0,0,1-.618,1.283,1.7,1.7,0,0,1-1.263.475A1.45,1.45,0,0,1,1.523,7.8a1.679,1.679,0,0,1-.381-1.242l.035-.375A2.037,2.037,0,0,1,1.79,4.835,1.764,1.764,0,0,1,3.076,4.34ZM1.934,6.57a1.137,1.137,0,0,0,.173.755.7.7,0,0,0,.577.291.909.909,0,0,0,.694-.285,1.306,1.306,0,0,0,.36-.772L3.791,6.1a1.147,1.147,0,0,0-.152-.746.676.676,0,0,0-.586-.311.921.921,0,0,0-.7.288,1.311,1.311,0,0,0-.363.775ZM6.27,9.145a1.471,1.471,0,0,1,1.143.524,1.7,1.7,0,0,1,.369,1.239l-.035.393A2.055,2.055,0,0,1,7.14,12.64a1.694,1.694,0,0,1-1.28.489,1.46,1.46,0,0,1-1.134-.51,1.68,1.68,0,0,1-.384-1.254l.035-.4a2.051,2.051,0,0,1,.6-1.324A1.739,1.739,0,0,1,6.27,9.145Zm-1.137,2.23a1.172,1.172,0,0,0,.167.755.689.689,0,0,0,.583.3.9.9,0,0,0,.7-.288,1.338,1.338,0,0,0,.354-.775L6.99,10.9a1.135,1.135,0,0,0-.152-.74.676.676,0,0,0-.586-.311.917.917,0,0,0-.709.288,1.323,1.323,0,0,0-.357.769Zm-3.023.969-.58-.422L6.691,5.313l.58.416Zm9.9-2.525a4.933,4.933,0,0,1,.533-1.746A3.023,3.023,0,0,1,13.57,6.906a2.345,2.345,0,0,1,1.342-.369,1.98,1.98,0,0,1,1.629.773L17.15,4h1.061l-1.559,9h-.967l.111-.68a2.337,2.337,0,0,1-1.852.8,1.751,1.751,0,0,1-1.4-.688,3,3,0,0,1-.562-1.784A5.7,5.7,0,0,1,12.012,9.818Zm1.02.606a2.2,2.2,0,0,0,.3,1.3,1.078,1.078,0,0,0,.926.474,1.916,1.916,0,0,0,1.635-.925l.5-2.926a1.316,1.316,0,0,0-1.277-.89,1.607,1.607,0,0,0-1.1.377,2.442,2.442,0,0,0-.727,1.106A4.561,4.561,0,0,0,13.031,10.424Zm8.039,2.693a2.286,2.286,0,0,1-1.852-.873,3,3,0,0,1-.562-2.174l.029-.252a4.218,4.218,0,0,1,.56-1.723,3.254,3.254,0,0,1,1.122-1.175,2.618,2.618,0,0,1,1.43-.378,2.016,2.016,0,0,1,1.535.65,2.675,2.675,0,0,1,.609,1.7,4.966,4.966,0,0,1-.023.762l-.064.486H19.711A2.142,2.142,0,0,0,20,11.605a1.346,1.346,0,0,0,1.163.627,2.255,2.255,0,0,0,1.734-.844l.609.516a2.789,2.789,0,0,1-1.028.9A2.914,2.914,0,0,1,21.07,13.117Zm.674-5.689a1.549,1.549,0,0,0-1.146.445,3.165,3.165,0,0,0-.776,1.377l3.082.006.023-.094a1.734,1.734,0,0,0-.237-1.228A1.116,1.116,0,0,0,21.744,7.428Zm8.49,5.689a2.286,2.286,0,0,1-1.852-.873,3,3,0,0,1-.562-2.174l.029-.252a4.218,4.218,0,0,1,.56-1.723,3.254,3.254,0,0,1,1.122-1.175,2.618,2.618,0,0,1,1.43-.378,2.016,2.016,0,0,1,1.535.65,2.675,2.675,0,0,1,.609,1.7,4.966,4.966,0,0,1-.023.762l-.064.486H28.875a2.142,2.142,0,0,0,.284,1.465,1.346,1.346,0,0,0,1.163.627,2.255,2.255,0,0,0,1.734-.844l.609.516a2.789,2.789,0,0,1-1.028.9A2.914,2.914,0,0,1,30.234,13.117Zm.674-5.689a1.549,1.549,0,0,0-1.146.445,3.165,3.165,0,0,0-.776,1.377l3.082.006.023-.094a1.734,1.734,0,0,0-.237-1.228A1.116,1.116,0,0,0,30.908,7.428Zm4.91-.773-.152.8a2.5,2.5,0,0,1,1.945-.914,1.573,1.573,0,0,1,1.324.621,2.413,2.413,0,0,1,.316,1.682L38.561,13H37.5l.7-4.167A2.222,2.222,0,0,0,38.2,8.3a.876.876,0,0,0-.967-.837,2,2,0,0,0-1.676,1.018L34.775,13H33.715l1.1-6.34Zm8.32.973-.5-.053a1.815,1.815,0,0,0-1.605.92L41.256,13H40.2l1.1-6.34,1.025-.006-.158.738a1.9,1.9,0,0,1,1.588-.861,1.945,1.945,0,0,1,.5.088ZM47.836,13a1.42,1.42,0,0,1-.041-.334l.018-.334a2.6,2.6,0,0,1-1.852.785,1.894,1.894,0,0,1-1.362-.53,1.6,1.6,0,0,1-.478-1.3A1.952,1.952,0,0,1,45,9.716a3.754,3.754,0,0,1,2.165-.565l1.107.006.07-.5a1.158,1.158,0,0,0-.22-.9,1.06,1.06,0,0,0-.835-.343,1.635,1.635,0,0,0-.964.267,1.135,1.135,0,0,0-.513.735l-1.066.006a1.7,1.7,0,0,1,.434-.987,2.523,2.523,0,0,1,.979-.668A3.161,3.161,0,0,1,47.4,6.537a2.1,2.1,0,0,1,1.541.6A1.863,1.863,0,0,1,49.4,8.67l-.516,3.141-.029.451a2.212,2.212,0,0,0,.07.639l-.012.1Zm-1.664-.82a1.85,1.85,0,0,0,.964-.243,2.441,2.441,0,0,0,.782-.706l.229-1.307-.8-.006a3.041,3.041,0,0,0-1.535.316,1.165,1.165,0,0,0-.6.9.908.908,0,0,0,.208.741A.991.991,0,0,0,46.172,12.18ZM51.5,13H50.443l1.1-6.34H52.6Zm.873-8.654a.58.58,0,0,1,.448.161A.6.6,0,0,1,53,4.961a.625.625,0,0,1-.627.639.584.584,0,0,1-.451-.158A.573.573,0,0,1,51.75,5a.665.665,0,0,1,.176-.457A.62.62,0,0,1,52.371,4.346Zm2.051,7.77h3.563L57.826,13H52.939l.146-.85L57.24,7.557H53.93l.164-.9h4.664l-.141.82Zm8.52.885a1.42,1.42,0,0,1-.041-.334l.018-.334a2.6,2.6,0,0,1-1.852.785,1.894,1.894,0,0,1-1.362-.53,1.6,1.6,0,0,1-.478-1.3,1.952,1.952,0,0,1,.882-1.573,3.754,3.754,0,0,1,2.165-.565l1.107.006.07-.5a1.158,1.158,0,0,0-.22-.9A1.06,1.06,0,0,0,62.4,7.41a1.635,1.635,0,0,0-.964.267,1.135,1.135,0,0,0-.513.735l-1.066.006a1.7,1.7,0,0,1,.434-.987,2.523,2.523,0,0,1,.979-.668A3.161,3.161,0,0,1,62.5,6.537a2.1,2.1,0,0,1,1.541.6,1.863,1.863,0,0,1,.463,1.532l-.516,3.141-.029.451a2.212,2.212,0,0,0,.07.639l-.012.1Zm-1.664-.82a1.85,1.85,0,0,0,.964-.243,2.441,2.441,0,0,0,.782-.706l.229-1.307-.8-.006a3.041,3.041,0,0,0-1.535.316,1.165,1.165,0,0,0-.6.9.908.908,0,0,0,.208.741A.991.991,0,0,0,61.277,12.18Zm6.27-5.525-.135.709a2.479,2.479,0,0,1,1.928-.82,1.956,1.956,0,0,1,1.022.275,1.351,1.351,0,0,1,.577.744,2.618,2.618,0,0,1,2.1-1.02,1.676,1.676,0,0,1,1.4.639,2.281,2.281,0,0,1,.334,1.652L74.08,13H73.025l.691-4.178a2.207,2.207,0,0,0,0-.557q-.111-.8-1.043-.814a1.6,1.6,0,0,0-1.052.36,1.667,1.667,0,0,0-.606.976L70.295,13H69.229l.7-4.172a1.34,1.34,0,0,0-.2-1,1.033,1.033,0,0,0-.847-.363,1.736,1.736,0,0,0-1.576.9L66.51,13H65.449l1.1-6.34ZM76.863,13H75.809l1.1-6.34h1.055Zm.873-8.654a.58.58,0,0,1,.448.161.6.6,0,0,1,.179.454.625.625,0,0,1-.627.639.584.584,0,0,1-.451-.158A.573.573,0,0,1,77.115,5a.665.665,0,0,1,.176-.457A.62.62,0,0,1,77.736,4.346Zm3.6,8.771a2.286,2.286,0,0,1-1.852-.873,3,3,0,0,1-.562-2.174l.029-.252a4.218,4.218,0,0,1,.56-1.723,3.254,3.254,0,0,1,1.122-1.175,2.618,2.618,0,0,1,1.43-.378,2.016,2.016,0,0,1,1.535.65,2.675,2.675,0,0,1,.609,1.7,4.966,4.966,0,0,1-.023.762l-.064.486H79.98a2.142,2.142,0,0,0,.284,1.465,1.346,1.346,0,0,0,1.163.627,2.255,2.255,0,0,0,1.734-.844l.609.516a2.789,2.789,0,0,1-1.028.9A2.914,2.914,0,0,1,81.34,13.117Zm.674-5.689a1.549,1.549,0,0,0-1.146.445,3.165,3.165,0,0,0-.776,1.377l3.082.006.023-.094a1.734,1.734,0,0,0-.237-1.228A1.116,1.116,0,0,0,82.014,7.428Zm4.91-.773-.152.8a2.5,2.5,0,0,1,1.945-.914,1.573,1.573,0,0,1,1.324.621,2.413,2.413,0,0,1,.316,1.682L89.666,13H88.605l.7-4.167a2.222,2.222,0,0,0,.006-.533.876.876,0,0,0-.967-.837,2,2,0,0,0-1.676,1.018L85.881,13H84.82l1.1-6.34ZM94.1,5.125l-.27,1.535h1.154L94.84,7.5H93.691l-.662,3.943a1.375,1.375,0,0,0-.006.281.447.447,0,0,0,.5.457,3.037,3.037,0,0,0,.516-.059l-.082.885a2.885,2.885,0,0,1-.773.105,1.107,1.107,0,0,1-.949-.466,1.8,1.8,0,0,1-.246-1.222L92.631,7.5H91.512l.146-.838h1.119l.27-1.535Zm4.465,1.418a2.285,2.285,0,0,1,1.365.434,2.464,2.464,0,0,1,.841,1.163,3.6,3.6,0,0,1,.185,1.62l-.012.129a4.264,4.264,0,0,1-.551,1.673,3.232,3.232,0,0,1-1.137,1.163,2.772,2.772,0,0,1-1.529.393,2.289,2.289,0,0,1-1.362-.434,2.408,2.408,0,0,1-.835-1.148,3.7,3.7,0,0,1-.187-1.6,4.32,4.32,0,0,1,.533-1.77A3.307,3.307,0,0,1,97.022,6.95,2.739,2.739,0,0,1,98.566,6.543Zm-2.156,3.4a3.6,3.6,0,0,0,0,.768,1.88,1.88,0,0,0,.413,1.1,1.24,1.24,0,0,0,.946.428,1.69,1.69,0,0,0,.973-.261,2.189,2.189,0,0,0,.75-.841,3.541,3.541,0,0,0,.393-1.248A5.621,5.621,0,0,0,99.9,8.98a1.952,1.952,0,0,0-.428-1.119,1.268,1.268,0,0,0-.949-.434,1.728,1.728,0,0,0-1.395.645,3.184,3.184,0,0,0-.709,1.734Z" transform="translate(214.5 1767)" fill="#fff"/>
    <path id="Trazado_716916" data-name="Trazado 716916" d="M-130.676,0h-.889L-134.1-5.518-135.061,0h-.923l1.235-7.109h.889l2.544,5.542.962-5.542h.913Zm4.873-.522A2.04,2.04,0,0,1-127.38.1,1.317,1.317,0,0,1-128.5-.444a2.073,2.073,0,0,1-.271-1.426l.566-3.413h.884l-.571,3.428a2.277,2.277,0,0,0-.01.42.874.874,0,0,0,.21.552.716.716,0,0,0,.518.215,1.585,1.585,0,0,0,1.465-.767l.664-3.848h.884L-125.081,0h-.835Zm.352-6.978h1.128l-1.494,1.436-.776,0Zm3.433,2.212-.112.591a2.066,2.066,0,0,1,1.606-.684,1.63,1.63,0,0,1,.852.229,1.126,1.126,0,0,1,.481.62,2.181,2.181,0,0,1,1.753-.85,1.4,1.4,0,0,1,1.167.532,1.9,1.9,0,0,1,.278,1.377L-116.575,0h-.879l.576-3.481a1.839,1.839,0,0,0,0-.464q-.093-.664-.869-.679a1.335,1.335,0,0,0-.876.3,1.389,1.389,0,0,0-.505.813l-.6,3.511h-.889l.586-3.477a1.116,1.116,0,0,0-.164-.835.861.861,0,0,0-.706-.3,1.447,1.447,0,0,0-1.313.752L-122.883,0h-.884l.918-5.283ZM-112.927.1A1.9,1.9,0,0,1-114.47-.63a2.5,2.5,0,0,1-.469-1.812l.024-.21a3.515,3.515,0,0,1,.466-1.436,2.712,2.712,0,0,1,.935-.979,2.182,2.182,0,0,1,1.191-.315,1.68,1.68,0,0,1,1.279.542,2.229,2.229,0,0,1,.508,1.416,4.138,4.138,0,0,1-.02.635l-.054.405h-3.452a1.785,1.785,0,0,0,.237,1.221,1.122,1.122,0,0,0,.969.522,1.88,1.88,0,0,0,1.445-.7l.508.43a2.324,2.324,0,0,1-.857.75A2.429,2.429,0,0,1-112.927.1Zm.562-4.741a1.291,1.291,0,0,0-.955.371,2.638,2.638,0,0,0-.647,1.147l2.568,0,.02-.078a1.445,1.445,0,0,0-.2-1.023A.93.93,0,0,0-112.366-4.644Zm5.625.166-.415-.044a1.512,1.512,0,0,0-1.338.767L-109.143,0h-.884l.918-5.283.854,0-.132.615a1.58,1.58,0,0,1,1.323-.718,1.621,1.621,0,0,1,.42.073Zm2.881-.9a1.9,1.9,0,0,1,1.138.361,2.053,2.053,0,0,1,.7.969,3,3,0,0,1,.154,1.35l-.01.107a3.553,3.553,0,0,1-.459,1.394,2.693,2.693,0,0,1-.947.969A2.31,2.31,0,0,1-104.558.1a1.908,1.908,0,0,1-1.135-.361,2.006,2.006,0,0,1-.7-.957,3.082,3.082,0,0,1-.156-1.333,3.6,3.6,0,0,1,.444-1.475,2.756,2.756,0,0,1,.955-1.013A2.283,2.283,0,0,1-103.86-5.381Zm-1.8,2.832a3,3,0,0,0,0,.64,1.567,1.567,0,0,0,.344.918,1.033,1.033,0,0,0,.789.356,1.408,1.408,0,0,0,.811-.217,1.824,1.824,0,0,0,.625-.7,2.95,2.95,0,0,0,.327-1.04,4.684,4.684,0,0,0,.015-.757,1.626,1.626,0,0,0-.356-.933,1.056,1.056,0,0,0-.791-.361,1.44,1.44,0,0,0-1.162.537,2.653,2.653,0,0,0-.591,1.445Zm7.148-.1a4.111,4.111,0,0,1,.444-1.455,2.519,2.519,0,0,1,.854-.972,1.954,1.954,0,0,1,1.118-.308,1.65,1.65,0,0,1,1.357.645l.508-2.759h.884l-1.3,7.5h-.806l.093-.566A1.948,1.948,0,0,1-96.9.1a1.46,1.46,0,0,1-1.167-.574,2.5,2.5,0,0,1-.469-1.487A4.749,4.749,0,0,1-98.508-2.651Zm.85.5a1.831,1.831,0,0,0,.249,1.083.9.9,0,0,0,.771.4,1.6,1.6,0,0,0,1.362-.771l.42-2.438a1.1,1.1,0,0,0-1.064-.741,1.339,1.339,0,0,0-.92.315,2.035,2.035,0,0,0-.605.922A3.8,3.8,0,0,0-97.659-2.147ZM-90.959.1A1.9,1.9,0,0,1-92.5-.63a2.5,2.5,0,0,1-.469-1.812l.024-.21a3.515,3.515,0,0,1,.466-1.436,2.712,2.712,0,0,1,.935-.979,2.182,2.182,0,0,1,1.191-.315,1.68,1.68,0,0,1,1.279.542,2.229,2.229,0,0,1,.508,1.416,4.138,4.138,0,0,1-.02.635l-.054.405h-3.452a1.785,1.785,0,0,0,.237,1.221,1.122,1.122,0,0,0,.969.522,1.88,1.88,0,0,0,1.445-.7l.508.43a2.324,2.324,0,0,1-.857.75A2.429,2.429,0,0,1-90.959.1Zm.562-4.741a1.291,1.291,0,0,0-.955.371A2.638,2.638,0,0,0-92-3.125l2.568,0,.02-.078a1.445,1.445,0,0,0-.2-1.023A.93.93,0,0,0-90.4-4.644Zm9.575,2.026a4.192,4.192,0,0,1-.435,1.45,2.468,2.468,0,0,1-.835.964A1.911,1.911,0,0,1-83.2.1,1.759,1.759,0,0,1-84.6-.518l-.474,2.549h-.884l1.27-7.314.8,0-.1.591a2,2,0,0,1,1.567-.684,1.474,1.474,0,0,1,1.187.562,2.471,2.471,0,0,1,.449,1.494,5.257,5.257,0,0,1-.024.605Zm-.869-.1.024-.41a1.855,1.855,0,0,0-.271-1.09.953.953,0,0,0-.784-.4,1.567,1.567,0,0,0-1.323.727l-.444,2.531a1.105,1.105,0,0,0,1.069.722A1.39,1.39,0,0,0-82.3-1.149,2.986,2.986,0,0,0-81.692-2.717ZM-79.158,0h-.879l1.3-7.5h.884Zm4.678,0a1.183,1.183,0,0,1-.034-.278l.015-.278A2.166,2.166,0,0,1-76.042.1a1.579,1.579,0,0,1-1.135-.442,1.337,1.337,0,0,1-.4-1.082,1.626,1.626,0,0,1,.735-1.311,3.128,3.128,0,0,1,1.8-.471l.923,0,.059-.42a.965.965,0,0,0-.183-.75.884.884,0,0,0-.7-.286,1.363,1.363,0,0,0-.8.222.946.946,0,0,0-.427.613l-.889,0a1.416,1.416,0,0,1,.361-.823,2.1,2.1,0,0,1,.815-.557,2.634,2.634,0,0,1,1.03-.188,1.752,1.752,0,0,1,1.284.5,1.552,1.552,0,0,1,.386,1.277l-.43,2.617-.024.376a1.843,1.843,0,0,0,.059.532l-.01.083Zm-1.387-.684a1.541,1.541,0,0,0,.8-.2,2.034,2.034,0,0,0,.652-.588l.19-1.089-.669,0a2.534,2.534,0,0,0-1.279.264.971.971,0,0,0-.5.747A.756.756,0,0,0-76.5-.94.826.826,0,0,0-75.867-.684Zm5.234-4.6-.127.669a2.083,2.083,0,0,1,1.621-.762,1.311,1.311,0,0,1,1.1.518,2.011,2.011,0,0,1,.264,1.4L-68.347,0h-.884l.581-3.473a1.851,1.851,0,0,0,0-.444.73.73,0,0,0-.806-.7,1.663,1.663,0,0,0-1.4.849L-71.5,0h-.884l.918-5.283Zm5.981-1.274-.225,1.279h.962l-.122.7h-.957L-65.544-1.3a1.146,1.146,0,0,0,0,.234.372.372,0,0,0,.415.381,2.531,2.531,0,0,0,.43-.049L-64.773,0a2.4,2.4,0,0,1-.645.088A.923.923,0,0,1-66.208-.3a1.5,1.5,0,0,1-.205-1.018l.537-3.271h-.933l.122-.7h.933l.225-1.279ZM-60.535,0a1.184,1.184,0,0,1-.034-.278l.015-.278A2.166,2.166,0,0,1-62.1.1a1.579,1.579,0,0,1-1.135-.442,1.337,1.337,0,0,1-.4-1.082A1.626,1.626,0,0,1-62.9-2.737a3.128,3.128,0,0,1,1.8-.471l.923,0,.059-.42a.965.965,0,0,0-.183-.75.884.884,0,0,0-.7-.286,1.363,1.363,0,0,0-.8.222.946.946,0,0,0-.427.613l-.889,0a1.416,1.416,0,0,1,.361-.823,2.1,2.1,0,0,1,.815-.557,2.634,2.634,0,0,1,1.03-.188,1.752,1.752,0,0,1,1.284.5,1.552,1.552,0,0,1,.386,1.277l-.43,2.617-.024.376a1.843,1.843,0,0,0,.059.532l-.01.083Zm-1.387-.684a1.541,1.541,0,0,0,.8-.2,2.034,2.034,0,0,0,.652-.588l.19-1.089-.669,0a2.534,2.534,0,0,0-1.279.264.971.971,0,0,0-.5.747.756.756,0,0,0,.173.618A.826.826,0,0,0-61.921-.684Zm6.753-.747q.073-.547-.6-.771l-.918-.269q-1.162-.4-1.123-1.328a1.463,1.463,0,0,1,.637-1.145,2.269,2.269,0,0,1,1.418-.437,1.892,1.892,0,0,1,1.3.466,1.477,1.477,0,0,1,.481,1.189l-.879,0a.824.824,0,0,0-.249-.645.985.985,0,0,0-.688-.259,1.287,1.287,0,0,0-.791.225.822.822,0,0,0-.356.576q-.063.459.562.669l.444.122a2.861,2.861,0,0,1,1.289.61,1.166,1.166,0,0,1,.352.933,1.481,1.481,0,0,1-.322.859,1.843,1.843,0,0,1-.781.559A2.613,2.613,0,0,1-56.433.1,2.061,2.061,0,0,1-57.82-.393a1.517,1.517,0,0,1-.527-1.238l.884,0a.937.937,0,0,0,.283.713,1.082,1.082,0,0,0,.776.269,1.523,1.523,0,0,0,.835-.2A.78.78,0,0,0-55.168-1.431ZM-48.655.1A1.9,1.9,0,0,1-50.2-.63a2.5,2.5,0,0,1-.469-1.812l.024-.21a3.515,3.515,0,0,1,.466-1.436,2.712,2.712,0,0,1,.935-.979,2.182,2.182,0,0,1,1.191-.315,1.68,1.68,0,0,1,1.279.542,2.229,2.229,0,0,1,.508,1.416,4.138,4.138,0,0,1-.02.635l-.054.405h-3.452a1.785,1.785,0,0,0,.237,1.221,1.122,1.122,0,0,0,.969.522,1.88,1.88,0,0,0,1.445-.7l.508.43a2.324,2.324,0,0,1-.857.75A2.429,2.429,0,0,1-48.655.1Zm.562-4.741a1.291,1.291,0,0,0-.955.371,2.638,2.638,0,0,0-.647,1.147l2.568,0,.02-.078a1.445,1.445,0,0,0-.2-1.023A.93.93,0,0,0-48.093-4.644ZM-44-5.288l-.127.669a2.083,2.083,0,0,1,1.621-.762,1.311,1.311,0,0,1,1.1.518,2.011,2.011,0,0,1,.264,1.4L-41.716,0H-42.6l.581-3.473a1.851,1.851,0,0,0,0-.444.73.73,0,0,0-.806-.7,1.663,1.663,0,0,0-1.4.849L-44.871,0h-.884l.918-5.283Zm6.934.811-.415-.044a1.512,1.512,0,0,0-1.338.767L-39.47,0h-.884l.918-5.283.854,0-.132.615a1.58,1.58,0,0,1,1.323-.718,1.621,1.621,0,0,1,.42.073ZM-33.987,0a1.184,1.184,0,0,1-.034-.278l.015-.278A2.166,2.166,0,0,1-35.549.1a1.579,1.579,0,0,1-1.135-.442,1.337,1.337,0,0,1-.4-1.082,1.626,1.626,0,0,1,.735-1.311,3.128,3.128,0,0,1,1.8-.471l.923,0,.059-.42a.965.965,0,0,0-.183-.75.884.884,0,0,0-.7-.286,1.363,1.363,0,0,0-.8.222.946.946,0,0,0-.427.613l-.889,0a1.416,1.416,0,0,1,.361-.823,2.1,2.1,0,0,1,.815-.557,2.634,2.634,0,0,1,1.03-.188,1.752,1.752,0,0,1,1.284.5,1.552,1.552,0,0,1,.386,1.277l-.43,2.617-.024.376a1.843,1.843,0,0,0,.059.532l-.01.083Zm-1.387-.684a1.541,1.541,0,0,0,.8-.2,2.034,2.034,0,0,0,.652-.588l.19-1.089-.669,0a2.534,2.534,0,0,0-1.279.264.971.971,0,0,0-.5.747.756.756,0,0,0,.173.618A.826.826,0,0,0-35.374-.684ZM-30.935,0h-.879l.918-5.283h.879Zm.728-7.212a.484.484,0,0,1,.374.134.5.5,0,0,1,.149.378.531.531,0,0,1-.149.376.535.535,0,0,1-.374.156.487.487,0,0,1-.376-.132.478.478,0,0,1-.142-.371.554.554,0,0,1,.146-.381A.517.517,0,0,1-30.208-7.212ZM-28.5-.737h2.969L-25.662,0h-4.072l.122-.708,3.462-3.828h-2.759l.137-.747h3.887L-25-4.6ZM-21.4,0a1.183,1.183,0,0,1-.034-.278l.015-.278A2.166,2.166,0,0,1-22.961.1,1.579,1.579,0,0,1-24.1-.344a1.337,1.337,0,0,1-.4-1.082,1.626,1.626,0,0,1,.735-1.311,3.128,3.128,0,0,1,1.8-.471l.923,0,.059-.42a.965.965,0,0,0-.183-.75.884.884,0,0,0-.7-.286,1.363,1.363,0,0,0-.8.222.946.946,0,0,0-.427.613l-.889,0a1.416,1.416,0,0,1,.361-.823A2.1,2.1,0,0,1-22.8-5.2a2.634,2.634,0,0,1,1.03-.188,1.752,1.752,0,0,1,1.284.5A1.552,1.552,0,0,1-20.1-3.608l-.43,2.617-.024.376a1.843,1.843,0,0,0,.059.532L-20.5,0Zm-1.387-.684a1.541,1.541,0,0,0,.8-.2,2.034,2.034,0,0,0,.652-.588l.19-1.089-.669,0a2.534,2.534,0,0,0-1.279.264.971.971,0,0,0-.5.747.756.756,0,0,0,.173.618A.826.826,0,0,0-22.786-.684Zm3.735-1.968a4.111,4.111,0,0,1,.444-1.455,2.519,2.519,0,0,1,.854-.972,1.954,1.954,0,0,1,1.118-.308,1.65,1.65,0,0,1,1.357.645l.508-2.759h.884l-1.3,7.5h-.806l.093-.566A1.948,1.948,0,0,1-17.439.1a1.46,1.46,0,0,1-1.167-.574,2.5,2.5,0,0,1-.469-1.487A4.748,4.748,0,0,1-19.05-2.651Zm.85.5a1.831,1.831,0,0,0,.249,1.083.9.9,0,0,0,.771.4,1.6,1.6,0,0,0,1.362-.771l.42-2.438a1.1,1.1,0,0,0-1.064-.741,1.339,1.339,0,0,0-.92.315,2.035,2.035,0,0,0-.605.922A3.8,3.8,0,0,0-18.2-2.147ZM-10.554,0a1.183,1.183,0,0,1-.034-.278l.015-.278A2.166,2.166,0,0,1-12.117.1a1.579,1.579,0,0,1-1.135-.442,1.337,1.337,0,0,1-.4-1.082,1.626,1.626,0,0,1,.735-1.311,3.128,3.128,0,0,1,1.8-.471l.923,0,.059-.42a.965.965,0,0,0-.183-.75.884.884,0,0,0-.7-.286,1.363,1.363,0,0,0-.8.222.946.946,0,0,0-.427.613l-.889,0a1.416,1.416,0,0,1,.361-.823,2.1,2.1,0,0,1,.815-.557,2.634,2.634,0,0,1,1.03-.188,1.752,1.752,0,0,1,1.284.5A1.552,1.552,0,0,1-9.25-3.608L-9.68-.991-9.7-.615a1.843,1.843,0,0,0,.059.532L-9.656,0Zm-1.387-.684a1.541,1.541,0,0,0,.8-.2,2.034,2.034,0,0,0,.652-.588l.19-1.089-.669,0a2.534,2.534,0,0,0-1.279.264.971.971,0,0,0-.5.747.756.756,0,0,0,.173.618A.826.826,0,0,0-11.941-.684Zm6.753-.747q.073-.547-.6-.771l-.918-.269Q-7.869-2.871-7.83-3.8a1.463,1.463,0,0,1,.637-1.145,2.269,2.269,0,0,1,1.418-.437,1.892,1.892,0,0,1,1.3.466,1.477,1.477,0,0,1,.481,1.189l-.879,0a.824.824,0,0,0-.249-.645.985.985,0,0,0-.688-.259,1.287,1.287,0,0,0-.791.225.822.822,0,0,0-.356.576q-.063.459.562.669l.444.122a2.861,2.861,0,0,1,1.289.61,1.166,1.166,0,0,1,.352.933,1.481,1.481,0,0,1-.322.859,1.843,1.843,0,0,1-.781.559A2.613,2.613,0,0,1-6.453.1,2.061,2.061,0,0,1-7.839-.393a1.517,1.517,0,0,1-.527-1.238l.884,0A.937.937,0,0,0-7.2-.913a1.082,1.082,0,0,0,.776.269,1.523,1.523,0,0,0,.835-.2A.78.78,0,0,0-5.188-1.431ZM3.826-2.617a4.192,4.192,0,0,1-.435,1.45A2.468,2.468,0,0,1,2.556-.2,1.911,1.911,0,0,1,1.453.1,1.759,1.759,0,0,1,.046-.518L-.427,2.031h-.884l1.27-7.314.8,0-.1.591a2,2,0,0,1,1.567-.684,1.474,1.474,0,0,1,1.187.562,2.471,2.471,0,0,1,.449,1.494,5.258,5.258,0,0,1-.024.605Zm-.869-.1.024-.41a1.855,1.855,0,0,0-.271-1.09.953.953,0,0,0-.784-.4A1.567,1.567,0,0,0,.6-3.888L.159-1.357a1.105,1.105,0,0,0,1.069.722,1.39,1.39,0,0,0,1.121-.514A2.986,2.986,0,0,0,2.957-2.717ZM7.468-5.381a1.9,1.9,0,0,1,1.138.361,2.053,2.053,0,0,1,.7.969A3,3,0,0,1,9.46-2.7l-.01.107A3.553,3.553,0,0,1,8.992-1.2a2.693,2.693,0,0,1-.947.969A2.31,2.31,0,0,1,6.77.1,1.908,1.908,0,0,1,5.635-.264a2.006,2.006,0,0,1-.7-.957,3.082,3.082,0,0,1-.156-1.333,3.6,3.6,0,0,1,.444-1.475,2.756,2.756,0,0,1,.955-1.013A2.283,2.283,0,0,1,7.468-5.381Zm-1.8,2.832a3,3,0,0,0,0,.64,1.567,1.567,0,0,0,.344.918A1.033,1.033,0,0,0,6.8-.635a1.408,1.408,0,0,0,.811-.217,1.824,1.824,0,0,0,.625-.7,2.951,2.951,0,0,0,.327-1.04,4.684,4.684,0,0,0,.015-.757,1.626,1.626,0,0,0-.356-.933,1.056,1.056,0,0,0-.791-.361,1.44,1.44,0,0,0-1.162.537,2.653,2.653,0,0,0-.591,1.445ZM13.4-4.478l-.415-.044a1.512,1.512,0,0,0-1.338.767L11,0h-.884l.918-5.283.854,0-.132.615a1.58,1.58,0,0,1,1.323-.718,1.621,1.621,0,0,1,.42.073ZM18.23-6.562l-.225,1.279h.962l-.122.7h-.957L17.336-1.3a1.146,1.146,0,0,0,0,.234.372.372,0,0,0,.415.381,2.531,2.531,0,0,0,.43-.049L18.108,0a2.4,2.4,0,0,1-.645.088A.923.923,0,0,1,16.672-.3a1.5,1.5,0,0,1-.205-1.018L17-4.585h-.933l.122-.7h.933l.225-1.279ZM22.4-4.478l-.415-.044a1.512,1.512,0,0,0-1.338.767L20,0h-.884l.918-5.283.854,0-.132.615a1.58,1.58,0,0,1,1.323-.718,1.621,1.621,0,0,1,.42.073ZM25.481,0a1.183,1.183,0,0,1-.034-.278l.015-.278A2.166,2.166,0,0,1,23.918.1a1.579,1.579,0,0,1-1.135-.442,1.337,1.337,0,0,1-.4-1.082,1.626,1.626,0,0,1,.735-1.311,3.128,3.128,0,0,1,1.8-.471l.923,0,.059-.42a.965.965,0,0,0-.183-.75.884.884,0,0,0-.7-.286,1.363,1.363,0,0,0-.8.222.946.946,0,0,0-.427.613l-.889,0a1.416,1.416,0,0,1,.361-.823,2.1,2.1,0,0,1,.815-.557,2.634,2.634,0,0,1,1.03-.188,1.752,1.752,0,0,1,1.284.5,1.552,1.552,0,0,1,.386,1.277l-.43,2.617-.024.376a1.843,1.843,0,0,0,.059.532L26.379,0ZM24.094-.684a1.541,1.541,0,0,0,.8-.2,2.034,2.034,0,0,0,.652-.588l.19-1.089-.669,0a2.534,2.534,0,0,0-1.279.264.971.971,0,0,0-.5.747.756.756,0,0,0,.173.618A.826.826,0,0,0,24.094-.684ZM29.91-6.562l-.225,1.279h.962l-.122.7h-.957L29.016-1.3a1.146,1.146,0,0,0,0,.234.372.372,0,0,0,.415.381,2.531,2.531,0,0,0,.43-.049L29.788,0a2.4,2.4,0,0,1-.645.088A.923.923,0,0,1,28.352-.3a1.5,1.5,0,0,1-.205-1.018l.537-3.271h-.933l.122-.7h.933l.225-1.279ZM34.026,0a1.184,1.184,0,0,1-.034-.278l.015-.278A2.166,2.166,0,0,1,32.463.1a1.579,1.579,0,0,1-1.135-.442,1.337,1.337,0,0,1-.4-1.082,1.626,1.626,0,0,1,.735-1.311,3.128,3.128,0,0,1,1.8-.471l.923,0,.059-.42a.965.965,0,0,0-.183-.75.884.884,0,0,0-.7-.286,1.363,1.363,0,0,0-.8.222.946.946,0,0,0-.427.613l-.889,0a1.416,1.416,0,0,1,.361-.823,2.1,2.1,0,0,1,.815-.557,2.634,2.634,0,0,1,1.03-.188,1.752,1.752,0,0,1,1.284.5,1.552,1.552,0,0,1,.386,1.277L34.9-.991l-.024.376a1.843,1.843,0,0,0,.059.532L34.924,0ZM32.639-.684a1.541,1.541,0,0,0,.8-.2,2.034,2.034,0,0,0,.652-.588l.19-1.089-.669,0a2.534,2.534,0,0,0-1.279.264.971.971,0,0,0-.5.747.756.756,0,0,0,.173.618A.826.826,0,0,0,32.639-.684Zm5.225-4.6-.112.591a2.066,2.066,0,0,1,1.606-.684,1.63,1.63,0,0,1,.852.229,1.126,1.126,0,0,1,.481.62,2.181,2.181,0,0,1,1.753-.85,1.4,1.4,0,0,1,1.167.532,1.9,1.9,0,0,1,.278,1.377L43.308,0h-.879l.576-3.481a1.839,1.839,0,0,0,0-.464q-.093-.664-.869-.679a1.335,1.335,0,0,0-.876.3,1.389,1.389,0,0,0-.505.813L40.154,0h-.889l.586-3.477a1.116,1.116,0,0,0-.164-.835.861.861,0,0,0-.706-.3,1.447,1.447,0,0,0-1.313.752L37,0h-.884l.918-5.283ZM45.627,0h-.879l.918-5.283h.879Zm.728-7.212a.484.484,0,0,1,.374.134.5.5,0,0,1,.149.378.531.531,0,0,1-.149.376.535.535,0,0,1-.374.156.487.487,0,0,1-.376-.132.478.478,0,0,1-.142-.371.554.554,0,0,1,.146-.381A.517.517,0,0,1,46.355-7.212Zm3,7.31A1.9,1.9,0,0,1,47.815-.63a2.5,2.5,0,0,1-.469-1.812l.024-.21a3.515,3.515,0,0,1,.466-1.436,2.712,2.712,0,0,1,.935-.979,2.182,2.182,0,0,1,1.191-.315,1.68,1.68,0,0,1,1.279.542,2.229,2.229,0,0,1,.508,1.416,4.138,4.138,0,0,1-.02.635l-.054.405H48.225a1.785,1.785,0,0,0,.237,1.221,1.122,1.122,0,0,0,.969.522,1.88,1.88,0,0,0,1.445-.7l.508.43a2.324,2.324,0,0,1-.857.75A2.429,2.429,0,0,1,49.358.1Zm.562-4.741a1.291,1.291,0,0,0-.955.371,2.638,2.638,0,0,0-.647,1.147l2.568,0,.02-.078a1.445,1.445,0,0,0-.2-1.023A.93.93,0,0,0,49.919-4.644Zm4.092-.645-.127.669a2.083,2.083,0,0,1,1.621-.762,1.311,1.311,0,0,1,1.1.518,2.011,2.011,0,0,1,.264,1.4L56.3,0h-.884l.581-3.473a1.851,1.851,0,0,0,0-.444.73.73,0,0,0-.806-.7,1.663,1.663,0,0,0-1.4.849L53.142,0h-.884l.918-5.283Zm5.981-1.274-.225,1.279h.962l-.122.7h-.957L59.1-1.3a1.146,1.146,0,0,0,0,.234.372.372,0,0,0,.415.381,2.531,2.531,0,0,0,.43-.049L59.871,0a2.4,2.4,0,0,1-.645.088A.923.923,0,0,1,58.435-.3a1.5,1.5,0,0,1-.205-1.018l.537-3.271h-.933l.122-.7h.933l.225-1.279Zm3.721,1.182a1.9,1.9,0,0,1,1.138.361,2.053,2.053,0,0,1,.7.969,3,3,0,0,1,.154,1.35l-.01.107A3.553,3.553,0,0,1,65.237-1.2a2.693,2.693,0,0,1-.947.969A2.31,2.31,0,0,1,63.015.1,1.908,1.908,0,0,1,61.88-.264a2.006,2.006,0,0,1-.7-.957,3.082,3.082,0,0,1-.156-1.333,3.6,3.6,0,0,1,.444-1.475,2.756,2.756,0,0,1,.955-1.013A2.283,2.283,0,0,1,63.713-5.381Zm-1.8,2.832a3,3,0,0,0,0,.64,1.567,1.567,0,0,0,.344.918,1.033,1.033,0,0,0,.789.356,1.408,1.408,0,0,0,.811-.217,1.824,1.824,0,0,0,.625-.7,2.95,2.95,0,0,0,.327-1.04,4.684,4.684,0,0,0,.015-.757,1.626,1.626,0,0,0-.356-.933,1.056,1.056,0,0,0-.791-.361,1.44,1.44,0,0,0-1.162.537,2.653,2.653,0,0,0-.591,1.445Zm7.148-.1a4.111,4.111,0,0,1,.444-1.455,2.519,2.519,0,0,1,.854-.972,1.954,1.954,0,0,1,1.118-.308,1.65,1.65,0,0,1,1.357.645L73.347-7.5h.884L72.932,0h-.806l.093-.566A1.948,1.948,0,0,1,70.676.1a1.46,1.46,0,0,1-1.167-.574,2.5,2.5,0,0,1-.469-1.487A4.749,4.749,0,0,1,69.065-2.651Zm.85.5a1.831,1.831,0,0,0,.249,1.083.9.9,0,0,0,.771.4A1.6,1.6,0,0,0,72.3-1.44l.42-2.438a1.1,1.1,0,0,0-1.064-.741,1.339,1.339,0,0,0-.92.315,2.035,2.035,0,0,0-.605.922A3.8,3.8,0,0,0,69.915-2.147ZM76.614.1A1.9,1.9,0,0,1,75.071-.63,2.5,2.5,0,0,1,74.6-2.441l.024-.21a3.515,3.515,0,0,1,.466-1.436,2.712,2.712,0,0,1,.935-.979,2.182,2.182,0,0,1,1.191-.315,1.68,1.68,0,0,1,1.279.542,2.229,2.229,0,0,1,.508,1.416,4.138,4.138,0,0,1-.02.635l-.054.405H75.481a1.785,1.785,0,0,0,.237,1.221,1.122,1.122,0,0,0,.969.522,1.88,1.88,0,0,0,1.445-.7l.508.43a2.324,2.324,0,0,1-.857.75A2.429,2.429,0,0,1,76.614.1Zm.562-4.741a1.291,1.291,0,0,0-.955.371,2.638,2.638,0,0,0-.647,1.147l2.568,0,.02-.078a1.445,1.445,0,0,0-.2-1.023A.93.93,0,0,0,77.175-4.644ZM86.75-2.617a4.192,4.192,0,0,1-.435,1.45,2.468,2.468,0,0,1-.835.964,1.911,1.911,0,0,1-1.1.305,1.759,1.759,0,0,1-1.406-.62L82.5,2.031h-.884l1.27-7.314.8,0-.1.591a2,2,0,0,1,1.567-.684,1.474,1.474,0,0,1,1.187.562,2.471,2.471,0,0,1,.449,1.494,5.257,5.257,0,0,1-.024.605Zm-.869-.1.024-.41a1.855,1.855,0,0,0-.271-1.09.953.953,0,0,0-.784-.4,1.567,1.567,0,0,0-1.323.727l-.444,2.531a1.105,1.105,0,0,0,1.069.722,1.39,1.39,0,0,0,1.121-.514A2.986,2.986,0,0,0,85.881-2.717Zm4.863-1.76-.415-.044a1.512,1.512,0,0,0-1.338.767L88.342,0h-.884l.918-5.283.854,0-.132.615a1.58,1.58,0,0,1,1.323-.718,1.621,1.621,0,0,1,.42.073Zm2.881-.9a1.9,1.9,0,0,1,1.138.361,2.053,2.053,0,0,1,.7.969,3,3,0,0,1,.154,1.35l-.01.107A3.553,3.553,0,0,1,95.149-1.2a2.693,2.693,0,0,1-.947.969A2.31,2.31,0,0,1,92.927.1a1.908,1.908,0,0,1-1.135-.361,2.006,2.006,0,0,1-.7-.957,3.082,3.082,0,0,1-.156-1.333,3.6,3.6,0,0,1,.444-1.475,2.756,2.756,0,0,1,.955-1.013A2.283,2.283,0,0,1,93.625-5.381Zm-1.8,2.832a3,3,0,0,0,0,.64,1.567,1.567,0,0,0,.344.918,1.033,1.033,0,0,0,.789.356,1.408,1.408,0,0,0,.811-.217,1.824,1.824,0,0,0,.625-.7,2.95,2.95,0,0,0,.327-1.04,4.684,4.684,0,0,0,.015-.757,1.626,1.626,0,0,0-.356-.933,1.056,1.056,0,0,0-.791-.361,1.44,1.44,0,0,0-1.162.537,2.653,2.653,0,0,0-.591,1.445Zm9.229-.068a4.192,4.192,0,0,1-.435,1.45,2.468,2.468,0,0,1-.835.964,1.911,1.911,0,0,1-1.1.305,1.759,1.759,0,0,1-1.406-.62L96.8,2.031H95.92l1.27-7.314.8,0-.1.591a2,2,0,0,1,1.567-.684,1.474,1.474,0,0,1,1.187.562,2.471,2.471,0,0,1,.449,1.494,5.257,5.257,0,0,1-.024.605Zm-.869-.1.024-.41a1.855,1.855,0,0,0-.271-1.09.953.953,0,0,0-.784-.4,1.567,1.567,0,0,0-1.323.727L97.39-1.357a1.105,1.105,0,0,0,1.069.722,1.39,1.39,0,0,0,1.121-.514A2.986,2.986,0,0,0,100.188-2.717ZM105,0a1.183,1.183,0,0,1-.034-.278l.015-.278A2.166,2.166,0,0,1,103.435.1,1.579,1.579,0,0,1,102.3-.344a1.337,1.337,0,0,1-.4-1.082,1.626,1.626,0,0,1,.735-1.311,3.128,3.128,0,0,1,1.8-.471l.923,0,.059-.42a.965.965,0,0,0-.183-.75.884.884,0,0,0-.7-.286,1.363,1.363,0,0,0-.8.222.946.946,0,0,0-.427.613l-.889,0a1.416,1.416,0,0,1,.361-.823A2.1,2.1,0,0,1,103.6-5.2a2.634,2.634,0,0,1,1.03-.188,1.752,1.752,0,0,1,1.284.5,1.552,1.552,0,0,1,.386,1.277l-.43,2.617-.024.376a1.843,1.843,0,0,0,.059.532L105.9,0Zm-1.387-.684a1.541,1.541,0,0,0,.8-.2,2.034,2.034,0,0,0,.652-.588l.19-1.089-.669,0a2.534,2.534,0,0,0-1.279.264.971.971,0,0,0-.5.747.756.756,0,0,0,.173.618A.826.826,0,0,0,103.611-.684Zm3.74-1.968a4.306,4.306,0,0,1,.466-1.5,2.439,2.439,0,0,1,.85-.942,1.97,1.97,0,0,1,1.1-.291,1.625,1.625,0,0,1,1.387.693l.176-.591h.811l-.879,5.171a2.57,2.57,0,0,1-.82,1.619,2.311,2.311,0,0,1-1.675.579,2.378,2.378,0,0,1-1.028-.254,1.954,1.954,0,0,1-.774-.669l.5-.542a1.512,1.512,0,0,0,1.265.728A1.516,1.516,0,0,0,109.795,1a1.814,1.814,0,0,0,.579-1.055l.1-.469A2,2,0,0,1,108.962.1a1.554,1.554,0,0,1-.857-.266,1.618,1.618,0,0,1-.564-.728,2.974,2.974,0,0,1-.22-1.062A5.459,5.459,0,0,1,107.351-2.651Zm.854.5a1.859,1.859,0,0,0,.242,1.08.913.913,0,0,0,.774.4,1.6,1.6,0,0,0,1.362-.775L111-3.868a1.11,1.11,0,0,0-1.06-.751,1.371,1.371,0,0,0-1.179.585,3.049,3.049,0,0,0-.544,1.634ZM115.818,0a1.183,1.183,0,0,1-.034-.278l.015-.278A2.166,2.166,0,0,1,114.255.1a1.579,1.579,0,0,1-1.135-.442,1.337,1.337,0,0,1-.4-1.082,1.626,1.626,0,0,1,.735-1.311,3.128,3.128,0,0,1,1.8-.471l.923,0,.059-.42a.965.965,0,0,0-.183-.75.884.884,0,0,0-.7-.286,1.363,1.363,0,0,0-.8.222.946.946,0,0,0-.427.613l-.889,0a1.416,1.416,0,0,1,.361-.823,2.1,2.1,0,0,1,.815-.557,2.634,2.634,0,0,1,1.03-.188,1.752,1.752,0,0,1,1.284.5,1.552,1.552,0,0,1,.386,1.277l-.43,2.617-.024.376a1.843,1.843,0,0,0,.059.532l-.01.083Zm-1.387-.684a1.541,1.541,0,0,0,.8-.2,2.034,2.034,0,0,0,.652-.588l.19-1.089-.669,0a2.534,2.534,0,0,0-1.279.264.971.971,0,0,0-.5.747.756.756,0,0,0,.173.618A.826.826,0,0,0,114.431-.684Zm5.713.049A1.341,1.341,0,0,0,121-.911a1.312,1.312,0,0,0,.5-.75l.835,0a1.884,1.884,0,0,1-.4.908,2.221,2.221,0,0,1-.818.64A2.219,2.219,0,0,1,120.1.1a1.885,1.885,0,0,1-1.116-.344,1.927,1.927,0,0,1-.671-.933,3.107,3.107,0,0,1-.146-1.345l.024-.244a3.5,3.5,0,0,1,.444-1.362,2.569,2.569,0,0,1,.918-.935,2.28,2.28,0,0,1,1.25-.315,1.785,1.785,0,0,1,1.328.557,1.925,1.925,0,0,1,.5,1.362l-.825,0a1.268,1.268,0,0,0-.288-.837,1,1,0,0,0-.752-.339,1.409,1.409,0,0,0-1.145.513,2.685,2.685,0,0,0-.569,1.475l-.015.127a4.235,4.235,0,0,0-.01.645,1.472,1.472,0,0,0,.322.9A1.035,1.035,0,0,0,120.144-.635ZM124,0h-.879l.918-5.283h.879Zm.728-7.212a.484.484,0,0,1,.374.134.5.5,0,0,1,.149.378.531.531,0,0,1-.149.376.535.535,0,0,1-.374.156.487.487,0,0,1-.376-.132.478.478,0,0,1-.142-.371.554.554,0,0,1,.146-.381A.517.517,0,0,1,124.724-7.212Zm3.652,1.831a1.9,1.9,0,0,1,1.138.361,2.053,2.053,0,0,1,.7.969,3,3,0,0,1,.154,1.35l-.01.107A3.553,3.553,0,0,1,129.9-1.2a2.693,2.693,0,0,1-.947.969A2.31,2.31,0,0,1,127.678.1a1.908,1.908,0,0,1-1.135-.361,2.006,2.006,0,0,1-.7-.957,3.082,3.082,0,0,1-.156-1.333,3.6,3.6,0,0,1,.444-1.475,2.756,2.756,0,0,1,.955-1.013A2.283,2.283,0,0,1,128.376-5.381Zm-1.8,2.832a3,3,0,0,0,0,.64,1.567,1.567,0,0,0,.344.918,1.033,1.033,0,0,0,.789.356,1.408,1.408,0,0,0,.811-.217,1.824,1.824,0,0,0,.625-.7,2.951,2.951,0,0,0,.327-1.04,4.683,4.683,0,0,0,.015-.757,1.626,1.626,0,0,0-.356-.933,1.056,1.056,0,0,0-.791-.361,1.44,1.44,0,0,0-1.162.537,2.653,2.653,0,0,0-.591,1.445ZM129.128-7.5h1.128l-1.494,1.436-.776,0Zm3.647,2.212-.127.669a2.083,2.083,0,0,1,1.621-.762,1.311,1.311,0,0,1,1.1.518,2.011,2.011,0,0,1,.264,1.4L135.061,0h-.884l.581-3.473a1.851,1.851,0,0,0,0-.444.73.73,0,0,0-.806-.7,1.663,1.663,0,0,0-1.4.849L131.907,0h-.884l.918-5.283Z" transform="translate(461 1768.502)" fill="#fff"/>
    <path id="Trazado_716914" data-name="Trazado 716914" d="M-55.84-6.343h-2.212L-59.15,0h-.913l1.1-6.343h-2.212l.137-.767H-55.7Zm2.28.962a1.9,1.9,0,0,1,1.138.361,2.053,2.053,0,0,1,.7.969,3,3,0,0,1,.154,1.35l-.01.107A3.553,3.553,0,0,1-52.036-1.2a2.693,2.693,0,0,1-.947.969A2.31,2.31,0,0,1-54.258.1a1.908,1.908,0,0,1-1.135-.361,2.006,2.006,0,0,1-.7-.957,3.082,3.082,0,0,1-.156-1.333A3.6,3.6,0,0,1-55.8-4.028a2.756,2.756,0,0,1,.955-1.013A2.283,2.283,0,0,1-53.56-5.381Zm-1.8,2.832a3,3,0,0,0,0,.64,1.567,1.567,0,0,0,.344.918,1.033,1.033,0,0,0,.789.356,1.408,1.408,0,0,0,.811-.217,1.824,1.824,0,0,0,.625-.7,2.951,2.951,0,0,0,.327-1.04,4.684,4.684,0,0,0,.015-.757,1.626,1.626,0,0,0-.356-.933,1.056,1.056,0,0,0-.791-.361,1.44,1.44,0,0,0-1.162.537,2.653,2.653,0,0,0-.591,1.445Zm6.777-4.014L-48.8-5.283h.962l-.122.7h-.957L-49.473-1.3a1.146,1.146,0,0,0,0,.234.372.372,0,0,0,.415.381,2.531,2.531,0,0,0,.43-.049L-48.7,0a2.4,2.4,0,0,1-.645.088A.923.923,0,0,1-50.137-.3a1.5,1.5,0,0,1-.205-1.018l.537-3.271h-.933l.122-.7h.933l.225-1.279ZM-44.463,0A1.184,1.184,0,0,1-44.5-.278l.015-.278A2.166,2.166,0,0,1-46.025.1a1.579,1.579,0,0,1-1.135-.442,1.337,1.337,0,0,1-.4-1.082,1.626,1.626,0,0,1,.735-1.311,3.128,3.128,0,0,1,1.8-.471l.923,0,.059-.42a.965.965,0,0,0-.183-.75.884.884,0,0,0-.7-.286,1.363,1.363,0,0,0-.8.222.946.946,0,0,0-.427.613l-.889,0a1.416,1.416,0,0,1,.361-.823,2.1,2.1,0,0,1,.815-.557,2.634,2.634,0,0,1,1.03-.188,1.752,1.752,0,0,1,1.284.5,1.552,1.552,0,0,1,.386,1.277l-.43,2.617-.024.376a1.843,1.843,0,0,0,.059.532l-.01.083ZM-45.85-.684a1.541,1.541,0,0,0,.8-.2,2.034,2.034,0,0,0,.652-.588l.19-1.089-.669,0a2.534,2.534,0,0,0-1.279.264.971.971,0,0,0-.5.747.756.756,0,0,0,.173.618A.826.826,0,0,0-45.85-.684ZM-41.411,0h-.879l1.3-7.5h.884Zm4.15-2.651a4.111,4.111,0,0,1,.444-1.455,2.519,2.519,0,0,1,.854-.972,1.954,1.954,0,0,1,1.118-.308,1.65,1.65,0,0,1,1.357.645l.508-2.759h.884l-1.3,7.5H-34.2l.093-.566A1.948,1.948,0,0,1-35.649.1a1.46,1.46,0,0,1-1.167-.574,2.5,2.5,0,0,1-.469-1.487A4.748,4.748,0,0,1-37.261-2.651Zm.85.5a1.831,1.831,0,0,0,.249,1.083.9.9,0,0,0,.771.4,1.6,1.6,0,0,0,1.362-.771l.42-2.438a1.1,1.1,0,0,0-1.064-.741,1.339,1.339,0,0,0-.92.315,2.035,2.035,0,0,0-.605.922A3.8,3.8,0,0,0-36.411-2.147ZM-29.712.1A1.9,1.9,0,0,1-31.255-.63a2.5,2.5,0,0,1-.469-1.812l.024-.21a3.515,3.515,0,0,1,.466-1.436,2.712,2.712,0,0,1,.935-.979,2.182,2.182,0,0,1,1.191-.315,1.68,1.68,0,0,1,1.279.542,2.229,2.229,0,0,1,.508,1.416,4.138,4.138,0,0,1-.02.635l-.054.405h-3.452a1.785,1.785,0,0,0,.237,1.221,1.122,1.122,0,0,0,.969.522,1.88,1.88,0,0,0,1.445-.7l.508.43a2.324,2.324,0,0,1-.857.75A2.429,2.429,0,0,1-29.712.1Zm.562-4.741a1.291,1.291,0,0,0-.955.371,2.638,2.638,0,0,0-.647,1.147l2.568,0,.02-.078a1.445,1.445,0,0,0-.2-1.023A.93.93,0,0,0-29.15-4.644Zm9.575,2.026a4.192,4.192,0,0,1-.435,1.45,2.468,2.468,0,0,1-.835.964,1.911,1.911,0,0,1-1.1.305,1.759,1.759,0,0,1-1.406-.62l-.474,2.549h-.884l1.27-7.314.8,0-.1.591a2,2,0,0,1,1.567-.684,1.474,1.474,0,0,1,1.187.562,2.471,2.471,0,0,1,.449,1.494,5.258,5.258,0,0,1-.024.605Zm-.869-.1.024-.41a1.855,1.855,0,0,0-.271-1.09.953.953,0,0,0-.784-.4,1.567,1.567,0,0,0-1.323.727l-.444,2.531a1.105,1.105,0,0,0,1.069.722,1.39,1.39,0,0,0,1.121-.514A2.986,2.986,0,0,0-20.444-2.717ZM-17.91,0h-.879l1.3-7.5h.884Zm4.678,0a1.183,1.183,0,0,1-.034-.278l.015-.278A2.166,2.166,0,0,1-14.795.1,1.579,1.579,0,0,1-15.93-.344a1.337,1.337,0,0,1-.4-1.082,1.626,1.626,0,0,1,.735-1.311,3.128,3.128,0,0,1,1.8-.471l.923,0,.059-.42a.965.965,0,0,0-.183-.75.884.884,0,0,0-.7-.286,1.363,1.363,0,0,0-.8.222.946.946,0,0,0-.427.613l-.889,0a1.416,1.416,0,0,1,.361-.823,2.1,2.1,0,0,1,.815-.557,2.634,2.634,0,0,1,1.03-.188,1.752,1.752,0,0,1,1.284.5,1.552,1.552,0,0,1,.386,1.277l-.43,2.617-.024.376a1.843,1.843,0,0,0,.059.532l-.01.083Zm-1.387-.684a1.541,1.541,0,0,0,.8-.2,2.034,2.034,0,0,0,.652-.588l.19-1.089-.669,0a2.534,2.534,0,0,0-1.279.264.971.971,0,0,0-.5.747.756.756,0,0,0,.173.618A.826.826,0,0,0-14.619-.684Zm5.234-4.6-.127.669a2.083,2.083,0,0,1,1.621-.762,1.311,1.311,0,0,1,1.1.518,2.011,2.011,0,0,1,.264,1.4L-7.1,0h-.884L-7.4-3.473a1.851,1.851,0,0,0,0-.444.73.73,0,0,0-.806-.7,1.663,1.663,0,0,0-1.4.849L-10.254,0h-.884l.918-5.283ZM-3.4-6.562l-.225,1.279h.962l-.122.7h-.957L-4.3-1.3a1.146,1.146,0,0,0,0,.234.372.372,0,0,0,.415.381,2.531,2.531,0,0,0,.43-.049L-3.525,0A2.4,2.4,0,0,1-4.17.093.923.923,0,0,1-4.961-.3a1.5,1.5,0,0,1-.205-1.018l.537-3.271h-.933l.122-.7h.933l.225-1.279ZM.713,0A1.183,1.183,0,0,1,.679-.278L.693-.557A2.166,2.166,0,0,1-.85.1,1.579,1.579,0,0,1-1.985-.344a1.337,1.337,0,0,1-.4-1.082,1.626,1.626,0,0,1,.735-1.311,3.128,3.128,0,0,1,1.8-.471l.923,0,.059-.42a.965.965,0,0,0-.183-.75.884.884,0,0,0-.7-.286,1.363,1.363,0,0,0-.8.222.946.946,0,0,0-.427.613l-.889,0A1.416,1.416,0,0,1-1.5-4.641,2.1,2.1,0,0,1-.684-5.2a2.634,2.634,0,0,1,1.03-.188,1.752,1.752,0,0,1,1.284.5,1.552,1.552,0,0,1,.386,1.277L1.587-.991l-.024.376a1.843,1.843,0,0,0,.059.532L1.611,0ZM-.674-.684a1.541,1.541,0,0,0,.8-.2,2.034,2.034,0,0,0,.652-.588l.19-1.089-.669,0A2.534,2.534,0,0,0-.977-2.3a.971.971,0,0,0-.5.747.756.756,0,0,0,.173.618A.826.826,0,0,0-.674-.684Zm6.753-.747q.073-.547-.6-.771l-.918-.269Q3.4-2.871,3.438-3.8a1.463,1.463,0,0,1,.637-1.145,2.269,2.269,0,0,1,1.418-.437,1.892,1.892,0,0,1,1.3.466,1.477,1.477,0,0,1,.481,1.189l-.879,0a.824.824,0,0,0-.249-.645.985.985,0,0,0-.688-.259,1.287,1.287,0,0,0-.791.225.822.822,0,0,0-.356.576q-.063.459.562.669l.444.122a2.861,2.861,0,0,1,1.289.61,1.166,1.166,0,0,1,.352.933,1.481,1.481,0,0,1-.322.859,1.843,1.843,0,0,1-.781.559A2.613,2.613,0,0,1,4.814.1,2.061,2.061,0,0,1,3.428-.393,1.517,1.517,0,0,1,2.9-1.631l.884,0a.937.937,0,0,0,.283.713,1.082,1.082,0,0,0,.776.269,1.523,1.523,0,0,0,.835-.2A.78.78,0,0,0,6.079-1.431Zm9.014-1.187a4.192,4.192,0,0,1-.435,1.45,2.468,2.468,0,0,1-.835.964A1.911,1.911,0,0,1,12.72.1a1.759,1.759,0,0,1-1.406-.62L10.84,2.031H9.956l1.27-7.314.8,0-.1.591A2,2,0,0,1,13.5-5.381a1.474,1.474,0,0,1,1.187.562,2.471,2.471,0,0,1,.449,1.494,5.258,5.258,0,0,1-.024.605Zm-.869-.1.024-.41a1.855,1.855,0,0,0-.271-1.09.953.953,0,0,0-.784-.4,1.567,1.567,0,0,0-1.323.727l-.444,2.531A1.105,1.105,0,0,0,12.5-.635a1.39,1.39,0,0,0,1.121-.514A2.986,2.986,0,0,0,14.224-2.717Zm4.863-1.76-.415-.044a1.512,1.512,0,0,0-1.338.767L16.685,0H15.8l.918-5.283.854,0-.132.615a1.58,1.58,0,0,1,1.323-.718,1.621,1.621,0,0,1,.42.073Zm2.881-.9a1.9,1.9,0,0,1,1.138.361,2.053,2.053,0,0,1,.7.969A3,3,0,0,1,23.96-2.7l-.01.107A3.553,3.553,0,0,1,23.491-1.2a2.693,2.693,0,0,1-.947.969A2.31,2.31,0,0,1,21.27.1a1.908,1.908,0,0,1-1.135-.361,2.006,2.006,0,0,1-.7-.957,3.082,3.082,0,0,1-.156-1.333,3.6,3.6,0,0,1,.444-1.475,2.756,2.756,0,0,1,.955-1.013A2.283,2.283,0,0,1,21.968-5.381Zm-1.8,2.832a3,3,0,0,0,0,.64,1.567,1.567,0,0,0,.344.918,1.033,1.033,0,0,0,.789.356,1.408,1.408,0,0,0,.811-.217,1.824,1.824,0,0,0,.625-.7,2.951,2.951,0,0,0,.327-1.04,4.684,4.684,0,0,0,.015-.757,1.626,1.626,0,0,0-.356-.933,1.056,1.056,0,0,0-.791-.361,1.44,1.44,0,0,0-1.162.537,2.653,2.653,0,0,0-.591,1.445ZM29.4-2.617a4.192,4.192,0,0,1-.435,1.45A2.468,2.468,0,0,1,28.13-.2a1.911,1.911,0,0,1-1.1.305,1.759,1.759,0,0,1-1.406-.62l-.474,2.549h-.884l1.27-7.314.8,0-.1.591A2,2,0,0,1,27.8-5.381a1.474,1.474,0,0,1,1.187.562,2.471,2.471,0,0,1,.449,1.494,5.258,5.258,0,0,1-.024.605Zm-.869-.1.024-.41a1.855,1.855,0,0,0-.271-1.09.953.953,0,0,0-.784-.4,1.567,1.567,0,0,0-1.323.727l-.444,2.531A1.105,1.105,0,0,0,26.8-.635a1.39,1.39,0,0,0,1.121-.514A2.986,2.986,0,0,0,28.53-2.717ZM33.34,0a1.184,1.184,0,0,1-.034-.278l.015-.278A2.166,2.166,0,0,1,31.777.1a1.579,1.579,0,0,1-1.135-.442,1.337,1.337,0,0,1-.4-1.082,1.626,1.626,0,0,1,.735-1.311,3.128,3.128,0,0,1,1.8-.471l.923,0,.059-.42a.965.965,0,0,0-.183-.75.884.884,0,0,0-.7-.286,1.363,1.363,0,0,0-.8.222.946.946,0,0,0-.427.613l-.889,0a1.416,1.416,0,0,1,.361-.823,2.1,2.1,0,0,1,.815-.557,2.634,2.634,0,0,1,1.03-.188,1.752,1.752,0,0,1,1.284.5,1.552,1.552,0,0,1,.386,1.277l-.43,2.617-.024.376a1.843,1.843,0,0,0,.059.532L34.238,0ZM31.953-.684a1.541,1.541,0,0,0,.8-.2,2.034,2.034,0,0,0,.652-.588l.19-1.089-.669,0A2.534,2.534,0,0,0,31.65-2.3a.971.971,0,0,0-.5.747.756.756,0,0,0,.173.618A.826.826,0,0,0,31.953-.684Zm3.74-1.968a4.306,4.306,0,0,1,.466-1.5,2.439,2.439,0,0,1,.85-.942,1.97,1.97,0,0,1,1.1-.291,1.625,1.625,0,0,1,1.387.693l.176-.591h.811L39.6-.112a2.57,2.57,0,0,1-.82,1.619,2.311,2.311,0,0,1-1.675.579,2.378,2.378,0,0,1-1.028-.254,1.954,1.954,0,0,1-.774-.669l.5-.542a1.512,1.512,0,0,0,1.265.728A1.516,1.516,0,0,0,38.137,1a1.814,1.814,0,0,0,.579-1.055l.1-.469A2,2,0,0,1,37.3.1a1.554,1.554,0,0,1-.857-.266A1.618,1.618,0,0,1,35.884-.9a2.974,2.974,0,0,1-.22-1.062A5.458,5.458,0,0,1,35.693-2.651Zm.854.5a1.859,1.859,0,0,0,.242,1.08.913.913,0,0,0,.774.4,1.6,1.6,0,0,0,1.362-.775l.415-2.424a1.11,1.11,0,0,0-1.06-.751,1.371,1.371,0,0,0-1.179.585A3.049,3.049,0,0,0,36.558-2.4ZM44.16,0a1.184,1.184,0,0,1-.034-.278l.015-.278A2.166,2.166,0,0,1,42.6.1a1.579,1.579,0,0,1-1.135-.442,1.337,1.337,0,0,1-.4-1.082A1.626,1.626,0,0,1,41.8-2.737a3.128,3.128,0,0,1,1.8-.471l.923,0,.059-.42a.965.965,0,0,0-.183-.75.884.884,0,0,0-.7-.286,1.363,1.363,0,0,0-.8.222.946.946,0,0,0-.427.613l-.889,0a1.416,1.416,0,0,1,.361-.823,2.1,2.1,0,0,1,.815-.557,2.634,2.634,0,0,1,1.03-.188,1.752,1.752,0,0,1,1.284.5,1.552,1.552,0,0,1,.386,1.277l-.43,2.617-.024.376a1.843,1.843,0,0,0,.059.532L45.059,0ZM42.773-.684a1.541,1.541,0,0,0,.8-.2,2.034,2.034,0,0,0,.652-.588l.19-1.089-.669,0a2.534,2.534,0,0,0-1.279.264.971.971,0,0,0-.5.747.756.756,0,0,0,.173.618A.826.826,0,0,0,42.773-.684Zm3.735-1.968a4.111,4.111,0,0,1,.444-1.455,2.519,2.519,0,0,1,.854-.972,1.954,1.954,0,0,1,1.118-.308,1.65,1.65,0,0,1,1.357.645L50.791-7.5h.884L50.376,0H49.57l.093-.566A1.948,1.948,0,0,1,48.12.1a1.46,1.46,0,0,1-1.167-.574,2.5,2.5,0,0,1-.469-1.487A4.748,4.748,0,0,1,46.509-2.651Zm.85.5a1.831,1.831,0,0,0,.249,1.083.9.9,0,0,0,.771.4,1.6,1.6,0,0,0,1.362-.771l.42-2.438A1.1,1.1,0,0,0,49.1-4.619a1.339,1.339,0,0,0-.92.315,2.035,2.035,0,0,0-.605.922A3.8,3.8,0,0,0,47.358-2.147ZM55,0a1.184,1.184,0,0,1-.034-.278l.015-.278A2.166,2.166,0,0,1,53.442.1a1.579,1.579,0,0,1-1.135-.442,1.337,1.337,0,0,1-.4-1.082,1.626,1.626,0,0,1,.735-1.311,3.128,3.128,0,0,1,1.8-.471l.923,0,.059-.42a.965.965,0,0,0-.183-.75.884.884,0,0,0-.7-.286,1.363,1.363,0,0,0-.8.222.946.946,0,0,0-.427.613l-.889,0a1.416,1.416,0,0,1,.361-.823,2.1,2.1,0,0,1,.815-.557,2.634,2.634,0,0,1,1.03-.188,1.752,1.752,0,0,1,1.284.5,1.552,1.552,0,0,1,.386,1.277l-.43,2.617-.024.376a1.843,1.843,0,0,0,.059.532L55.9,0ZM53.618-.684a1.541,1.541,0,0,0,.8-.2,2.034,2.034,0,0,0,.652-.588l.19-1.089-.669,0a2.534,2.534,0,0,0-1.279.264.971.971,0,0,0-.5.747.756.756,0,0,0,.173.618A.826.826,0,0,0,53.618-.684Zm6.753-.747q.073-.547-.6-.771l-.918-.269q-1.162-.4-1.123-1.328a1.463,1.463,0,0,1,.637-1.145,2.269,2.269,0,0,1,1.418-.437,1.892,1.892,0,0,1,1.3.466,1.477,1.477,0,0,1,.481,1.189l-.879,0a.824.824,0,0,0-.249-.645.985.985,0,0,0-.688-.259,1.287,1.287,0,0,0-.791.225.822.822,0,0,0-.356.576q-.063.459.562.669l.444.122a2.861,2.861,0,0,1,1.289.61,1.166,1.166,0,0,1,.352.933,1.481,1.481,0,0,1-.322.859,1.843,1.843,0,0,1-.781.559A2.613,2.613,0,0,1,59.106.1,2.061,2.061,0,0,1,57.72-.393a1.517,1.517,0,0,1-.527-1.238l.884,0a.937.937,0,0,0,.283.713,1.082,1.082,0,0,0,.776.269,1.523,1.523,0,0,0,.835-.2A.78.78,0,0,0,60.371-1.431Z" transform="translate(449 1791.5)" fill="#fff"/>
    <path id="Trazado_716877" data-name="Trazado 716877" d="M-4318.812-1622.677h276.6" transform="translate(4639.208 3399.178)" fill="none" stroke="#fff" stroke-width="2"/>
    <path id="Trazado_716915" data-name="Trazado 716915" d="M-9.48-3.359l1.436-1.924H-6.96L-9.08-2.627-7.791,0h-.962l-.874-1.973L-11.116,0h-1.079l2.183-2.715-1.25-2.568h.967ZM-1.643,0h-.889l1.045-6-1.89.664.151-.859,2.637-.952h.156ZM3.21.1A1.6,1.6,0,0,1,1.863-.54a2.829,2.829,0,0,1-.41-1.78q.01-.361.054-.713l.176-1.187a4.4,4.4,0,0,1,.894-2.266,2.136,2.136,0,0,1,1.738-.723,1.624,1.624,0,0,1,1.355.623,2.766,2.766,0,0,1,.413,1.75q-.015.366-.059.718L5.852-2.969A4.664,4.664,0,0,1,4.939-.62,2.123,2.123,0,0,1,3.21.1ZM5.168-4.277A7.558,7.558,0,0,0,5.232-5.2Q5.208-6.436,4.27-6.47a1.283,1.283,0,0,0-1.106.505A3.5,3.5,0,0,0,2.576-4.3l-.21,1.416a7.2,7.2,0,0,0-.063.923q.024,1.294.957,1.328a1.254,1.254,0,0,0,1.072-.479,3.393,3.393,0,0,0,.6-1.611ZM8.708.1A1.6,1.6,0,0,1,7.361-.54a2.829,2.829,0,0,1-.41-1.78q.01-.361.054-.713L7.18-4.219a4.4,4.4,0,0,1,.894-2.266,2.136,2.136,0,0,1,1.738-.723,1.624,1.624,0,0,1,1.355.623,2.766,2.766,0,0,1,.413,1.75q-.015.366-.059.718L11.35-2.969A4.664,4.664,0,0,1,10.437-.62,2.123,2.123,0,0,1,8.708.1Zm1.958-4.375A7.558,7.558,0,0,0,10.73-5.2q-.024-1.24-.962-1.274a1.283,1.283,0,0,0-1.106.505A3.5,3.5,0,0,0,8.074-4.3l-.21,1.416a7.2,7.2,0,0,0-.063.923q.024,1.294.957,1.328a1.254,1.254,0,0,0,1.072-.479,3.393,3.393,0,0,0,.6-1.611Z" transform="translate(614 1779)" fill="#fff"/>
  </g>
</svg>
