<svg xmlns="http://www.w3.org/2000/svg" xmlns:xlink="http://www.w3.org/1999/xlink" width="350" height="61" viewBox="0 0 350 61">
  <defs>
    <filter id="Trazado_501624" x="293" y="3.5" width="57" height="57" filterUnits="userSpaceOnUse">
      <feOffset dy="3" input="SourceAlpha"/>
      <feGaussianBlur stdDeviation="3" result="blur"/>
      <feFlood flood-opacity="0.161"/>
      <feComposite operator="in" in2="blur"/>
      <feComposite in="SourceGraphic"/>
    </filter>
  </defs>
  <g id="Grupo_1084133" data-name="Grupo 1084133" transform="translate(1892 8889)">
    <rect id="Rectángulo_361732" data-name="Rectángulo 361732" width="326" height="61" rx="20" transform="translate(-1892 -8889)" fill="#0b481e"/>
    <text id="Severidad_S_" data-name="Severidad (S)  = " transform="translate(-1867.5 -8867)" fill="#fff" font-size="12" font-family="Roboto-Italic, Roboto" font-style="italic"><tspan x="0" y="13" xml:space="preserve">Severidad (S)  = </tspan></text>
    <text id="Superficie_área_del_tejido_enfermo_100" data-name="Superficie (área) del tejido enfermo*100" transform="translate(-1691.956 -8865.533)" fill="#fff" font-size="10" font-family="Roboto-Italic, Roboto" font-style="italic"><tspan x="-86.926" y="0">Superficie (área) del tejido enfermo*100</tspan></text>
    <text id="Área_total" data-name="Área total" transform="translate(-1694.956 -8843.5)" fill="#fff" font-size="10" font-family="Roboto-Italic, Roboto" font-style="italic"><tspan x="-21.16" y="0">Área total</tspan></text>
    <g id="Grupo_1084125" data-name="Grupo 1084125" transform="translate(-1590 -8879.026)">
      <g transform="matrix(1, 0, 0, 1, -302, -9.97)" filter="url(#Trazado_501624)">
        <path id="Trazado_501624-2" data-name="Trazado 501624" d="M19.5,0A19.5,19.5,0,1,1,0,19.5,19.5,19.5,0,0,1,19.5,0Z" transform="translate(341 48.5) rotate(180)" fill="#adce32"/>
      </g>
      <text id="_" data-name="+" transform="translate(14.5 26.026)" fill="#12263f" font-size="19" font-family="Roboto-Black, Roboto" font-weight="800"><tspan x="0" y="0">+</tspan></text>
    </g>
    <path id="Trazado_716877" data-name="Trazado 716877" d="M-4318.812-1622.677h164.3" transform="translate(2541.208 -7235.823)" fill="none" stroke="#fff" stroke-width="2"/>
  </g>
</svg>
