<svg xmlns="http://www.w3.org/2000/svg" width="105.194" height="105.194" viewBox="0 0 105.194 105.194">
  <g id="Grupo_1084161" data-name="Grupo 1084161" transform="translate(-284.806 -5362.806)">
    <g id="Grupo_1084152" data-name="Grupo 1084152" transform="translate(284.806 5362.806)">
      <g id="Grupo_1083552" data-name="Grupo 1083552" transform="translate(0 0)">
        <g id="Grupo_1083548" data-name="Grupo 1083548" transform="translate(0 0)">
          <g id="Grupo_1083547" data-name="Grupo 1083547" transform="translate(0 0)">
            <g id="Grupo_1083546" data-name="Grupo 1083546">
              <circle id="Elipse_4735" data-name="Elipse 4735" cx="51.259" cy="51.259" r="51.259" transform="matrix(0.026, -1, 1, 0.026, 0, 102.478)" fill="#fdb70a"/>
            </g>
          </g>
        </g>
      </g>
    </g>
    <g id="monitoreo" transform="translate(311.097 5381.379)">
      <path id="Trazado_716828" data-name="Trazado 716828" d="M277.307,386.468h-6.149a4.5,4.5,0,0,0-2.953,1.057A3.344,3.344,0,0,0,267,390.079v52.4a3.889,3.889,0,0,0,4.139,3.564h48.421a3.889,3.889,0,0,0,4.139-3.564v-52.4a3.887,3.887,0,0,0-4.139-3.572h-6.149a3.927,3.927,0,0,0-4.056-3.524h-3.982c-.534-2.606-3.155-4.508-6.223-4.514h-6.7c-3.065.007-5.684,1.909-6.214,4.514h-4.889a3.933,3.933,0,0,0-4.047,3.484Zm35.994,5.473h2.991v46.27H274.408v-46.27h3.074a4.056,4.056,0,0,0,3.88,2.589h28a4.065,4.065,0,0,0,3.936-2.589Zm7.5-1.9v52.4a1.106,1.106,0,0,1-1.176,1.007H271.158a1.1,1.1,0,0,1-1.167-1.007V390.079a.934.934,0,0,1,.339-.714,1.258,1.258,0,0,1,.828-.292H277.3v.344h-4.362a1.391,1.391,0,0,0-1.482,1.278v48.834a1.188,1.188,0,0,0,.431.906,1.6,1.6,0,0,0,1.05.372h44.8a1.391,1.391,0,0,0,1.482-1.278V390.655a1.391,1.391,0,0,0-1.482-1.278h-4.287v-.344h6.13a1.265,1.265,0,0,1,.848.306.935.935,0,0,1,.328.741Zm-40.495-3.372a1.142,1.142,0,0,1,1.111-1.167h6.269a1.4,1.4,0,0,0,1.491-1.278v-.336a3.146,3.146,0,0,1,3.343-2.892h6.7a3.157,3.157,0,0,1,3.352,2.892v.336h0a1.391,1.391,0,0,0,1.482,1.278h5.371a1.132,1.132,0,0,1,1.1,1.167v1.079h0V390.8a1.132,1.132,0,0,1-1.1,1.167H281.372a1.142,1.142,0,0,1-1.111-1.167V386.66Z" transform="translate(-267.02 -378.42)" fill="#09070a"/>
      <path id="Trazado_716829" data-name="Trazado 716829" d="M295.753,388.157a3.113,3.113,0,1,0-3.113-3.107A3.113,3.113,0,0,0,295.753,388.157Zm0-4.091a.985.985,0,1,1-.978.985.985.985,0,0,1,.978-.985Z" transform="translate(-267.71 -379.578)" fill="#09070a"/>
      <path id="Trazado_716830" data-name="Trazado 716830" d="M277.6,406.824c0,.589.767,1.067,1.716,1.071h38.747c.9-.044,1.591-.509,1.591-1.068s-.693-1.024-1.591-1.068H279.316C278.368,405.76,277.6,406.237,277.6,406.824Z" transform="translate(-270.568 -383.762)" fill="#09070a"/>
      <path id="Trazado_716831" data-name="Trazado 716831" d="M293.074,416.87H278.664a1.064,1.064,0,0,0,0,2.129h14.409a1.064,1.064,0,1,0,0-2.129Z" transform="translate(-265.915 -385.937)" fill="#09070a"/>
      <path id="Trazado_716832" data-name="Trazado 716832" d="M293.074,429.05H278.664a1.064,1.064,0,1,0,0,2.129h14.409a1.064,1.064,0,1,0,0-2.129Z" transform="translate(-265.915 -388.321)" fill="#09070a"/>
      <path id="Trazado_716833" data-name="Trazado 716833" d="M293.074,441.23H278.664a1.064,1.064,0,1,0,0,2.129h14.409a1.064,1.064,0,1,0,0-2.129Z" transform="translate(-265.915 -390.705)" fill="#09070a"/>
      <path id="Trazado_716834" data-name="Trazado 716834" d="M310.133,413.155l-2.708,2.821-.745-1.024a1.064,1.064,0,0,0-1.71,1.264l1.49,2.062a1.078,1.078,0,0,0,.792.426h.067a1.058,1.058,0,0,0,.772-.333l3.579-3.739a1.064,1.064,0,0,0-1.537-1.47Z" transform="translate(-267.721 -384.802)" fill="#09070a"/>
      <path id="Trazado_716835" data-name="Trazado 716835" d="M310.1,425.835l-2.708,2.827-.745-1.011a1.064,1.064,0,1,0-1.71,1.264l1.49,2.029a1.084,1.084,0,0,0,.792.432h.067a1.078,1.078,0,0,0,.772-.326l3.579-3.739a1.066,1.066,0,0,0-1.537-1.477Z" transform="translate(-267.685 -387.143)" fill="#09070a"/>
      <path id="Trazado_716836" data-name="Trazado 716836" d="M310.1,438.549l-2.708,2.847-.745-1.011a1.064,1.064,0,1,0-1.71,1.264l1.49,2a1.084,1.084,0,0,0,.792.432h.067a1.051,1.051,0,0,0,.772-.326l3.579-3.739a1.066,1.066,0,0,0-1.537-1.477Z" transform="translate(-267.685 -389.498)" fill="#09070a"/>
    </g>
  </g>
</svg>
