<svg xmlns="http://www.w3.org/2000/svg" width="105.194" height="105.194" viewBox="0 0 105.194 105.194">
  <g id="Grupo_1084169" data-name="Grupo 1084169" transform="translate(-494.806 -1467.426)">
    <g id="Grupo_1084151" data-name="Grupo 1084151" transform="translate(494.806 1467.426)">
      <g id="Grupo_1083552" data-name="Grupo 1083552" transform="translate(0 0)">
        <g id="Grupo_1083548" data-name="Grupo 1083548" transform="translate(0 0)">
          <g id="Grupo_1083547" data-name="Grupo 1083547" transform="translate(0 0)">
            <g id="Grupo_1083546" data-name="Grupo 1083546">
              <circle id="Elipse_4735" data-name="Elipse 4735" cx="51.259" cy="51.259" r="51.259" transform="matrix(0.026, -1, 1, 0.026, 0, 102.478)" fill="#fdb70a"/>
            </g>
          </g>
        </g>
      </g>
    </g>
    <g id="monitoreo" transform="translate(495.097 1476.521)">
      <path id="Trazado_716828" data-name="Trazado 716828" d="M277.65,386.734H271.3a4.654,4.654,0,0,0-3.051,1.092,3.455,3.455,0,0,0-1.245,2.64v54.144a4.018,4.018,0,0,0,4.277,3.682h50.035a4.018,4.018,0,0,0,4.277-3.682V390.466a4.016,4.016,0,0,0-4.277-3.691h-6.354a4.058,4.058,0,0,0-4.191-3.641h-4.115c-.552-2.693-3.26-4.658-6.43-4.665H293.3c-3.168.007-5.873,1.973-6.421,4.665h-5.052a4.065,4.065,0,0,0-4.182,3.6Zm37.194,5.655h3.091V440.2h-43.28V392.39h3.177a4.191,4.191,0,0,0,4.009,2.675h28.936A4.2,4.2,0,0,0,314.844,392.39Zm7.751-1.965v54.144a1.143,1.143,0,0,1-1.215,1.04H271.3a1.132,1.132,0,0,1-1.206-1.04v-54.1a.965.965,0,0,1,.35-.738,1.3,1.3,0,0,1,.855-.3h6.344v.355h-4.507A1.438,1.438,0,0,0,271.6,391.1v50.462a1.227,1.227,0,0,0,.446.937,1.654,1.654,0,0,0,1.085.384h46.294a1.438,1.438,0,0,0,1.531-1.321v-50.5a1.438,1.438,0,0,0-1.531-1.321H315v-.355h6.335a1.308,1.308,0,0,1,.876.316.966.966,0,0,1,.339.765Zm-41.844-3.484a1.18,1.18,0,0,1,1.148-1.205h6.478a1.448,1.448,0,0,0,1.541-1.321v-.347a3.251,3.251,0,0,1,3.454-2.989h6.918a3.262,3.262,0,0,1,3.464,2.989v.347h0a1.438,1.438,0,0,0,1.531,1.321h5.55a1.17,1.17,0,0,1,1.139,1.205v1.115h0v3.154a1.17,1.17,0,0,1-1.139,1.205H281.851a1.18,1.18,0,0,1-1.148-1.205v-4.277Z" transform="translate(-245.02 -369.339)" fill="#09070a"/>
      <path id="Trazado_716829" data-name="Trazado 716829" d="M295.857,388.364a3.217,3.217,0,1,0-3.217-3.21A3.217,3.217,0,0,0,295.857,388.364Zm0-4.228a1.017,1.017,0,1,1-1.011,1.017,1.017,1.017,0,0,1,1.011-1.017Z" transform="translate(-244.879 -370.42)" fill="#09070a"/>
      <path id="Trazado_716830" data-name="Trazado 716830" d="M277.6,406.86c0,.609.792,1.1,1.773,1.107h40.038c.928-.045,1.644-.526,1.644-1.1s-.716-1.058-1.644-1.1H279.373C278.394,405.76,277.6,406.252,277.6,406.86Z" transform="translate(-248.333 -373.948)" fill="#09070a"/>
      <path id="Trazado_716831" data-name="Trazado 716831" d="M293.59,416.87H278.7a1.1,1.1,0,0,0,0,2.2h14.89a1.1,1.1,0,1,0,0-2.2Z" transform="translate(-243.525 -375.826)" fill="#09070a"/>
      <path id="Trazado_716832" data-name="Trazado 716832" d="M293.59,429.05H278.7a1.1,1.1,0,1,0,0,2.2h14.89a1.1,1.1,0,1,0,0-2.2Z" transform="translate(-243.525 -377.884)" fill="#09070a"/>
      <path id="Trazado_716833" data-name="Trazado 716833" d="M293.59,441.23H278.7a1.1,1.1,0,1,0,0,2.2h14.89a1.1,1.1,0,1,0,0-2.2Z" transform="translate(-243.525 -379.942)" fill="#09070a"/>
      <path id="Trazado_716834" data-name="Trazado 716834" d="M310.311,413.164l-2.8,2.915-.77-1.059a1.1,1.1,0,0,0-1.767,1.306l1.54,2.131a1.114,1.114,0,0,0,.818.44h.069a1.093,1.093,0,0,0,.8-.344l3.7-3.863a1.1,1.1,0,0,0-1.588-1.519Z" transform="translate(-244.485 -374.786)" fill="#09070a"/>
      <path id="Trazado_716835" data-name="Trazado 716835" d="M310.281,425.846l-2.8,2.922-.77-1.045a1.1,1.1,0,1,0-1.767,1.306l1.54,2.1a1.12,1.12,0,0,0,.818.447h.069a1.114,1.114,0,0,0,.8-.337l3.7-3.863a1.1,1.1,0,0,0-1.588-1.526Z" transform="translate(-244.451 -376.784)" fill="#09070a"/>
      <path id="Trazado_716836" data-name="Trazado 716836" d="M310.281,438.56l-2.8,2.942-.77-1.045a1.1,1.1,0,1,0-1.767,1.306l1.54,2.062a1.12,1.12,0,0,0,.818.447h.069a1.086,1.086,0,0,0,.8-.337l3.7-3.863a1.1,1.1,0,0,0-1.588-1.526Z" transform="translate(-244.451 -378.794)" fill="#09070a"/>
    </g>
  </g>
</svg>
