<svg xmlns="http://www.w3.org/2000/svg" xmlns:xlink="http://www.w3.org/1999/xlink" width="473.5" height="61" viewBox="0 0 473.5 61">
  <defs>
    <filter id="Trazado_501624" x="416.5" y="4" width="57" height="57" filterUnits="userSpaceOnUse">
      <feOffset dy="3" input="SourceAlpha"/>
      <feGaussianBlur stdDeviation="3" result="blur"/>
      <feFlood flood-opacity="0.161"/>
      <feComposite operator="in" in2="blur"/>
      <feComposite in="SourceGraphic"/>
    </filter>
  </defs>
  <g id="Grupo_1084131" data-name="Grupo 1084131" transform="translate(-285 -1747)">
    <rect id="Rectángulo_361732" data-name="Rectángulo 361732" width="445" height="61" rx="20" transform="translate(285 1747)" fill="#0b481e"/>
    <text id="_de_enraizamiento" data-name="% de enraizamiento" transform="translate(293.5 1768)" fill="#fff" font-size="12" font-family="Roboto-Italic, Roboto" font-style="italic"><tspan x="0" y="13">% de enraizamiento</tspan></text>
    <text id="Número_de_plantas_enraizadas_por_tratamiento_de_propagación" data-name="Número de plantas enraizadas por tratamiento de propagación" transform="translate(540 1769.502)" fill="#fff" font-size="10" font-family="Roboto-Italic, Roboto" font-style="italic"><tspan x="-136.272" y="0">Número de plantas enraizadas por tratamiento de propagación</tspan></text>
    <text id="Total_de_plantas_propagadas" data-name="Total de plantas propagadas" transform="translate(528 1792.5)" fill="#fff" font-size="10" font-family="Roboto-Italic, Roboto" font-style="italic"><tspan x="-61.997" y="0">Total de plantas propagadas</tspan></text>
    <g transform="matrix(1, 0, 0, 1, 285, 1747)" filter="url(#Trazado_501624)">
      <path id="Trazado_501624-2" data-name="Trazado 501624" d="M19.5,0A19.5,19.5,0,1,1,0,19.5,19.5,19.5,0,0,1,19.5,0Z" transform="translate(464.5 49) rotate(180)" fill="#adce32"/>
    </g>
    <text id="_" data-name="+" transform="translate(725 1783.5)" fill="#12263f" font-size="19" font-family="Roboto-Black, Roboto" font-weight="800"><tspan x="0" y="0">+</tspan></text>
    <path id="Trazado_716877" data-name="Trazado 716877" d="M-4318.812-1622.677h276.6" transform="translate(4718.208 3400.178)" fill="none" stroke="#fff" stroke-width="2"/>
    <text id="x_100" data-name="x 100" transform="translate(693 1780)" fill="#fff" font-size="10" font-family="Roboto-Italic, Roboto" font-style="italic"><tspan x="-11.902" y="0">x 100</tspan></text>
  </g>
</svg>
