<svg xmlns="http://www.w3.org/2000/svg" width="105.194" height="105.194" viewBox="0 0 105.194 105.194">
  <g id="Grupo_1084168" data-name="Grupo 1084168" transform="translate(-284.806 -6531.903)">
    <g id="Grupo_1084149" data-name="Grupo 1084149" transform="translate(284.806 6531.903)">
      <g id="Grupo_1083552" data-name="Grupo 1083552" transform="translate(0 0)">
        <g id="Grupo_1083548" data-name="Grupo 1083548" transform="translate(0 0)">
          <g id="Grupo_1083547" data-name="Grupo 1083547" transform="translate(0 0)">
            <g id="Grupo_1083546" data-name="Grupo 1083546">
              <circle id="Elipse_4735" data-name="Elipse 4735" cx="51.259" cy="51.259" r="51.259" transform="matrix(0.026, -1, 1, 0.026, 0, 102.478)" fill="#fdb70a"/>
            </g>
          </g>
        </g>
      </g>
    </g>
    <g id="monitoreo" transform="translate(308.513 6545.95)">
      <path id="Trazado_716828" data-name="Trazado 716828" d="M277.51,386.626h-6.27a4.593,4.593,0,0,0-3.011,1.078,3.41,3.41,0,0,0-1.229,2.6V443.74a3.965,3.965,0,0,0,4.221,3.634H320.6a3.965,3.965,0,0,0,4.221-3.634V390.308a3.964,3.964,0,0,0-4.221-3.642h-6.27a4,4,0,0,0-4.136-3.593h-4.06c-.544-2.658-3.218-4.6-6.346-4.6h-6.827c-3.126.007-5.8,1.947-6.336,4.6h-4.986a4.011,4.011,0,0,0-4.127,3.552Zm36.7,5.581h3.05v47.183h-42.71V392.207h3.135a4.136,4.136,0,0,0,3.957,2.64H310.2a4.145,4.145,0,0,0,4.013-2.64Zm7.649-1.939V443.7a1.128,1.128,0,0,1-1.2,1.027H271.24a1.117,1.117,0,0,1-1.19-1.027V390.308a.952.952,0,0,1,.346-.728,1.284,1.284,0,0,1,.844-.3H277.5v.35h-4.448a1.419,1.419,0,0,0-1.511,1.3v49.8a1.211,1.211,0,0,0,.44.924,1.632,1.632,0,0,0,1.071.379h45.685a1.419,1.419,0,0,0,1.511-1.3V390.9a1.419,1.419,0,0,0-1.511-1.3h-4.372v-.35h6.251a1.291,1.291,0,0,1,.865.312.953.953,0,0,1,.335.755Zm-41.294-3.438a1.165,1.165,0,0,1,1.133-1.19H288.1a1.429,1.429,0,0,0,1.52-1.3v-.342a3.208,3.208,0,0,1,3.409-2.95h6.827a3.219,3.219,0,0,1,3.418,2.949v.342h0a1.419,1.419,0,0,0,1.511,1.3h5.477a1.154,1.154,0,0,1,1.124,1.19v1.1h0v3.112a1.154,1.154,0,0,1-1.124,1.19h-28.6a1.165,1.165,0,0,1-1.133-1.19v-4.22Z" transform="translate(-267.02 -378.42)" fill="#09070a"/>
      <path id="Trazado_716829" data-name="Trazado 716829" d="M295.815,388.28a3.175,3.175,0,1,0-3.175-3.168A3.175,3.175,0,0,0,295.815,388.28Zm0-4.172a1,1,0,1,1-1,1,1,1,0,0,1,1-1Z" transform="translate(-267.218 -379.533)" fill="#09070a"/>
      <path id="Trazado_716830" data-name="Trazado 716830" d="M277.6,406.845c0,.6.782,1.089,1.75,1.092h39.511c.916-.045,1.622-.519,1.622-1.089s-.706-1.044-1.622-1.089H279.35C278.383,405.76,277.6,406.246,277.6,406.845Z" transform="translate(-270.429 -383.328)" fill="#09070a"/>
      <path id="Trazado_716831" data-name="Trazado 716831" d="M293.379,416.87H278.685a1.085,1.085,0,1,0,0,2.171h14.694a1.085,1.085,0,1,0,0-2.171Z" transform="translate(-265.684 -385.327)" fill="#09070a"/>
      <path id="Trazado_716832" data-name="Trazado 716832" d="M293.379,429.05H278.685a1.085,1.085,0,1,0,0,2.171h14.694a1.085,1.085,0,1,0,0-2.171Z" transform="translate(-265.684 -387.518)" fill="#09070a"/>
      <path id="Trazado_716833" data-name="Trazado 716833" d="M293.379,441.23H278.685a1.085,1.085,0,1,0,0,2.171h14.694a1.085,1.085,0,1,0,0-2.171Z" transform="translate(-265.684 -389.709)" fill="#09070a"/>
      <path id="Trazado_716834" data-name="Trazado 716834" d="M310.238,413.16l-2.761,2.876-.76-1.045a1.085,1.085,0,0,0-1.743,1.289l1.52,2.1a1.1,1.1,0,0,0,.807.434h.068a1.079,1.079,0,0,0,.787-.339l3.65-3.812a1.085,1.085,0,0,0-1.567-1.5Z" transform="translate(-266.989 -384.249)" fill="#09070a"/>
      <path id="Trazado_716835" data-name="Trazado 716835" d="M310.208,425.842l-2.761,2.883-.76-1.031a1.085,1.085,0,1,0-1.743,1.289l1.52,2.069a1.106,1.106,0,0,0,.807.441h.068a1.1,1.1,0,0,0,.787-.332l3.65-3.813a1.087,1.087,0,0,0-1.567-1.506Z" transform="translate(-266.954 -386.386)" fill="#09070a"/>
      <path id="Trazado_716836" data-name="Trazado 716836" d="M310.208,438.555l-2.761,2.9-.76-1.031a1.085,1.085,0,1,0-1.743,1.289l1.52,2.035a1.106,1.106,0,0,0,.807.441h.068a1.072,1.072,0,0,0,.787-.332l3.65-3.813a1.087,1.087,0,0,0-1.567-1.506Z" transform="translate(-266.954 -388.537)" fill="#09070a"/>
    </g>
  </g>
</svg>
